<?xml version="1.0" standalone="no"?>
<!DOCTYPE svg PUBLIC "-//W3C//DTD SVG 1.1//EN" "http://www.w3.org/Graphics/SVG/1.1/DTD/svg11.dtd" >
<svg xmlns="http://www.w3.org/2000/svg" xmlns:xlink="http://www.w3.org/1999/xlink" version="1.1">
<metadata></metadata>
<defs>
<font id="miss_fajardoseregular" horiz-adv-x="536" >
<font-face units-per-em="2048" ascent="1638" descent="-410" />
<missing-glyph horiz-adv-x="266" />
<glyph horiz-adv-x="0" />
<glyph unicode="&#xd;" horiz-adv-x="681" />
<glyph unicode=" "  horiz-adv-x="266" />
<glyph unicode="&#x09;" horiz-adv-x="266" />
<glyph unicode="&#xa0;" horiz-adv-x="266" />
<glyph unicode="!" horiz-adv-x="555" d="M180 20q0 19 18.5 40.5t34 21.5t24.5 -9.5t9 -27.5t-21.5 -34.5t-35.5 -16.5q-29 0 -29 26zM313 285q0 8 2 14q76 139 227.5 352t264.5 357l115 141q87 106 122 106q39 -4 39 -30q-27 -14 -87 -69.5t-126 -131.5q-174 -197 -413 -559q-72 -104 -88 -137q-27 -63 -35 -64 q-20 0 -21 21z" />
<glyph unicode="&#x22;" horiz-adv-x="423" d="M362 763q0 9 25 10t72 26.5t55 64.5q-31 0 -31 27q0 18 18.5 39.5t34 21.5t24.5 -9t9 -19q0 -66 -58 -116t-126 -54q-23 0 -23 9zM493.5 764q0.5 10 25 10t71.5 25.5t55 64.5q-31 0 -31 27q0 18 18.5 39.5t34 21.5t24.5 -9t9 -19q0 -66 -58 -116t-126 -54q-23 0 -22.5 10 z" />
<glyph unicode="#" horiz-adv-x="1003" d="M319 578q14 35 56 34h321l64 119h-342q-23 0 -23 12q14 35 56 35h335l199 373q8 10 16.5 10t13.5 -9t5 -17v-9l-8 -22l-174 -326h161l199 373q8 10 16.5 10t13.5 -9t5 -17v-9l-8 -22l-174 -326h303q18 -2 18 -11t-8 -19q-16 -16 -33 -17h-307l-63 -119h317q18 -2 18 -11 t-10 -19q-14 -16 -29 -17h-321l-203 -381q-10 -14 -18 -14q-14 0 -14.5 28.5t8.5 37.5l176 329h-162l-203 -381q-10 -14 -18 -14q-14 0 -14.5 28.5t8.5 37.5l176 329h-330q-23 0 -23 13zM748 612h161l64 119h-162z" />
<glyph unicode="$" horiz-adv-x="1024" d="M176 231q0 162 144.5 276t336.5 114q29 0 29 -17q0 -10 -65.5 -10t-138 -27.5t-118 -68.5t-75.5 -92q-55 -90 -55.5 -186.5t63 -154t152.5 -73.5l485 751l-39 37q-145 131 -145 234q0 125 141 199.5t309 74.5q43 0 80 -6l78 119q6 8 12 8q18 0 18 -24.5t-8 -34.5l-49 -78 q131 -39 131 -127q0 -59 -28 -60q-12 0 -23.5 13.5t-11.5 29.5q0 74 -90 109l-310 -479q193 -186 193 -332q0 -59 -41 -136t-115.5 -154t-205 -130t-283.5 -53q-6 0 -64 4l-55 -86q-10 -10 -18 -10h-9q-16 2 -15 15t6 22.5t11.5 19.5t8.5 14l20 33q-256 51 -256 266z M500 -16q45 -4 55 -4q238 0 406.5 142t168.5 296q0 125 -161 291zM813 1026.5q0 -103.5 121 -209.5l31 -26l295 458q-33 8 -80 8q-137 0 -252 -63.5t-115 -167z" />
<glyph unicode="%" horiz-adv-x="1748" d="M324 721q0 -150 173 -150t333.5 178.5t160.5 362.5q0 135 -100 135q-84 0 -175 -72.5t-95 -170.5q4 -88 84 -89h4q0 -63 51 -63q29 0 28 12q0 4 -4 4h-12q-45 0 -45 50q47 8 80 44.5t33 65.5t-31 29t-62.5 -37t-37.5 -86q-66 0 -66 65.5t75 142.5t171 77q61 0 61 -90.5 t-56 -213t-161.5 -221t-220.5 -98.5q-137 0 -137 127q0 102 81 232t167 175q18 8 18 15q0 2 -6 2t-12 -2q-102 -29 -200.5 -167t-98.5 -257zM501 -105.5q1 13.5 6 22.5t11 19.5t8 14.5l947 1468q6 8 12 8q18 0 18 -24.5t-8 -34.5l-952 -1479q-10 -10 -19 -10h-8 q-16 2 -15 15.5zM727 934q2 45 26.5 71.5t42 26.5t17.5 -17.5t-25.5 -46t-60.5 -34.5zM1040 129q0 -150 173 -149.5t334 178.5t161 362q0 135 -100 135q-84 0 -175.5 -72.5t-95.5 -170.5q4 -88 84 -88h4q0 -63 52 -64q29 0 28 12q0 4 -4 4h-12q-45 0 -45 50q47 8 79.5 45 t32.5 65.5t-30.5 28.5t-62 -37t-38.5 -86q-66 0 -65.5 65.5t75 142.5t171.5 77q61 0 61 -90.5t-56.5 -213t-162 -221t-219.5 -98.5q-137 0 -137 127q0 102 80.5 232.5t166.5 175.5q18 8 19 14q0 2 -6 2t-13 -2q-102 -29 -200.5 -167t-98.5 -257zM1444 342q2 45 26.5 71.5 t42 26.5t17.5 -17t-25.5 -46t-60.5 -35z" />
<glyph unicode="&#x26;" horiz-adv-x="1163" d="M104 302q0 120 52.5 217t138.5 161q158 119 371 174q-49 55 -50 135q0 109 113 192t283 111q0 37 19.5 63.5t37.5 37.5l18 8l9 2l6 -6l-8 -13q-33 -20 -41 -73v-13q51 8 90 9h51q111 0 164 -39q23 -16 22 -37q0 -82 -168 -90q-182 2 -198 127q-156 -29 -244 -111 t-88 -160.5t37 -130.5q98 23 178 23t135 -17.5t55 -46.5q0 -37 -46 -53t-101 -16q-158 0 -252 75q-195 -47 -340 -155q-80 -59 -127 -154.5t-47 -216.5q0 -113 62 -203q35 -53 110.5 -84.5t190 -31.5t239.5 48t218 150.5t93 231.5q0 63 -45 63q-27 0 -127 -38t-196 -38 t-96 54q0 27 16 26q8 0 10 -6q25 -33 109 -33t253 58.5t236 58.5q70 0 103 -37q12 -12 12 -35.5t-14 -23.5q-12 0 -19 14q-29 43 -100 43l-88 -12q-16 -8 -16.5 -11t12 -21.5t12.5 -63.5q0 -172 -196.5 -314.5t-426.5 -142.5q-129 0 -218 34t-130 91q-74 100 -74 220z M739 844q68 -63 179.5 -63.5t111.5 39.5t-139 40q-68 0 -152 -16zM1055 1274q10 -47 51 -73.5t64.5 -30t59.5 -3.5t63.5 14.5t29.5 28.5l4 15q-4 57 -162 57q-41 0 -110 -8z" />
<glyph unicode="'" horiz-adv-x="292" d="M362 764q0 10 25 10t72 25.5t55 64.5q-31 0 -31 27q0 18 18.5 39.5t34 21.5t24.5 -9t9 -19q0 -66 -58 -116t-126 -54q-23 0 -23 10z" />
<glyph unicode="(" horiz-adv-x="432" d="M162 62.5q0 261.5 71.5 489.5t182 396t246.5 305q252 254 485 330h4q10 0 10 -6q0 -10 -20 -21q-393 -166 -659.5 -578.5t-266.5 -928.5q0 -264 82 -541q2 -6 2 -19t-14.5 -13.5t-24.5 30.5q-98 295 -98 556.5z" />
<glyph unicode=")" horiz-adv-x="794" d="M-166 -516q0 10 21 20q393 166 659 579t266 929q0 264 -82 540q-2 6 -2 19.5t14.5 13.5t24.5 -31q98 -295 98.5 -556t-71.5 -489t-182.5 -396t-245.5 -306q-252 -254 -486 -329h-4q-10 0 -10 6z" />
<glyph unicode="*" horiz-adv-x="499" d="M184 520q0 4 8.5 14.5t18.5 10.5l106 -13l-26 91q0 23 35 22q10 0 10 -8l-6 -102l84 102q10 8 23.5 8t13.5 -12q0 -6 -5 -10l-106 -91l123 13q10 0 10 -10q1 -27 -22 -27l-115 14q37 -90 37 -94q0 -14 -18.5 -14t-20.5 8l-10 98l-82 -100q-10 -10 -23.5 -10t-13.5 14 q0 6 6 12l100 86l-114 -14q-12 0 -13 12z" />
<glyph unicode="+" horiz-adv-x="739" d="M207 578q14 35 55 34h258l168 281q8 10 17 10q14 0 18 -35l-8 -22l-140 -234h306q18 -2 18 -11t-10 -19q-14 -16 -29 -17h-311l-152 -256q-10 -14 -18 -14q-14 0 -14 28.5t8 36.5l121 205h-265q-22 1 -22 13z" />
<glyph unicode="," horiz-adv-x="307" d="M4 -111.5q0 9.5 24.5 10.5t71.5 26.5t56 64.5q-31 0 -31 26q0 19 18.5 40.5t34 21.5t24.5 -9.5t9 -19.5q0 -66 -58.5 -116t-125.5 -54q-23 0 -23 9.5z" />
<glyph unicode="-" horiz-adv-x="1130" d="M207 180q14 35 55 35h782q18 -2 18.5 -11t-9.5 -20q-14 -16 -29 -16h-795q-22 0 -22 12z" />
<glyph unicode="." horiz-adv-x="294" d="M137 16q0 19 18.5 40.5t34 21.5t24.5 -9.5t9 -27.5t-21.5 -34.5t-35.5 -16.5q-29 0 -29 26z" />
<glyph unicode="/" horiz-adv-x="858" d="M-4 -60.5q0 7.5 8 13.5t434 371q1262 1079 1305 1095q8 4 20.5 4t12.5 -8t-43 -37.5t-824.5 -699.5t-892.5 -746q-20 0 -20 7.5z" />
<glyph unicode="0" horiz-adv-x="1212" d="M248 305q0 78 22.5 161t44.5 128l23 45q53 106 121.5 193.5t130.5 136.5q121 98 194 125l31 12q18 6 26.5 6t8.5 -4q0 -8 -21.5 -20.5t-40 -23.5t-74 -54t-107.5 -97.5t-118.5 -150.5t-117.5 -209q-68 -135 -68 -266t70.5 -213t208.5 -82q195 0 417 183t366 436t144 460 t-159 207q-90 0 -202 -60.5t-199 -176t-87 -244.5t117 -129h6q2 100 70.5 182t138.5 82q47 0 55 -58q0 -59 -66.5 -132.5t-160.5 -90.5q8 -96 90 -96l25 2q10 0 10 -9t-19.5 -16.5t-51.5 -7.5t-60.5 33t-30.5 90h-8q-80 0 -121 49t-43 129q4 131 98.5 248t215 177.5 t204.5 60.5t129 -31t64 -80q29 -86 28 -160q0 -238 -149.5 -491.5t-379.5 -420.5t-450 -167q-168 0 -246.5 99.5t-78.5 244.5zM1022 672q72 14 127 66t57 126q0 31 -36.5 31t-92 -63.5t-55.5 -159.5z" />
<glyph unicode="1" horiz-adv-x="741" d="M106 6q0 8 3 14q76 139 302 426t412 504l189 219q14 14 14 26.5t-31 12.5q-63 0 -233 -53l-55 -16q-51 -16 -84 -31q14 -29 14 -74t-50 -119.5t-131 -74.5t-81 67q0 121 192 209q-31 27 -68.5 27t-55 -5t-21.5 -5l-10 6q0 23 21.5 29t74.5 6t94 -41q160 68 418 110 q57 2 100 37q16 12 38 12t22 -16q0 -6 -29 -36t-116 -125t-325.5 -384.5t-441.5 -574.5q-72 -104 -87 -137t-45 -33t-30 20zM424 913q0 -37 46 -36.5t87 52.5t41 95t-12 68q-162 -83 -162 -179z" />
<glyph unicode="2" horiz-adv-x="1099" d="M80 -2l14 43q57 78 230.5 199.5t318.5 205.5l143 84q297 188 411 319.5t114 242.5q0 147 -205 147q-39 0 -59 -4q29 -45 30 -105q-2 -162 -126 -289.5t-267 -127.5q-59 0 -96 31.5t-37 97.5q0 123 125 247.5t305 161.5q-39 37 -104 41h-9l-67 -12q-10 -6 -17 -6l-14 4v4 q0 33 84 37h14q106 0 160 -59q37 6 71 6t61.5 -4.5t82.5 -19.5t89 -58t34 -91.5t-11.5 -85t-48 -104t-136 -156t-248.5 -176.5q-184 -121 -234.5 -148.5t-83.5 -49t-65.5 -42t-76.5 -50t-82 -56t-77 -56.5t-65 -54q-61 -53 -62 -70q0 -23 41 -27q137 20 250 21h330 q133 0 252 51q68 29 108.5 89.5t40.5 144.5t-84 88q-35 0 -67 -9q8 -25 8 -45q0 -76 -55.5 -137t-112.5 -61q-80 0 -80 61q0 53 53 110.5t131 86.5q-27 35 -58.5 38t-31.5 15q-2 10 29 10h8q61 -4 94 -51q31 8 66 8t62.5 -6t58 -34.5t30.5 -78.5q0 -133 -124 -226t-285 -93 l-404 6q-145 0 -262 -26l-39 -11q-25 -4 -29 -4q-27 0 -26 33zM598 834.5q0 -93.5 76 -93.5q137 0 244.5 126t107.5 259q0 59 -25 103q-176 -37 -289.5 -169t-113.5 -225.5zM862 229q0 -35 35 -34q41 0 78 43t43 102q0 23 -10 49q-61 -23 -103.5 -64t-42.5 -96z" />
<glyph unicode="3" horiz-adv-x="1024" d="M164 242.5q0 117.5 103.5 221t260.5 103.5q109 0 165.5 -42t62.5 -105l57 -21q25 -14 25 -28.5t-15 -14.5l-22 9q-35 16 -47 20q-9 -76 -69 -136.5t-140 -59.5t-80 69q0 80 80 124t149 44q12 0 21 -2q-12 49 -57.5 82t-120.5 33q-137 0 -228.5 -95.5t-91.5 -202 t72.5 -172t212 -65.5t246 41t167 100.5t101.5 133.5q66 121 65.5 230t-80.5 185q-115 -37 -227 -37q-84 0 -134 22.5t-50 52.5t46 54.5t118 24.5q150 0 258 -82q78 29 134 79t83 103q47 100 47 159.5t-31 104t-78 62.5q-78 27 -154.5 27t-146 -19.5t-103.5 -45t-54 -60.5 q-29 -47 -29 -90q0 -92 123 -93q102 0 151 72q12 16 20.5 43t26 27t17.5 -37q0 -12 -17.5 -40t-37.5 -46q-57 -45 -166 -45q-80 0 -124 34.5t-44 86.5q0 90 101 164.5t278 74.5q117 0 190 -35q135 -66 135 -198q0 -51 -26 -113q-55 -119 -217 -211q-20 -12 -54 -24 q35 -33 70 -85.5t35 -146.5q0 -190 -187.5 -345t-445.5 -155q-172 0 -258 74t-86 191.5zM506 264q0 -43 61.5 -43t106.5 51.5t45 116.5v2q-11 2 -29 2q-82 0 -133 -47t-51 -82zM655 739q2 -49 117 -49t205 27q-92 65 -207 65q-51 0 -79.5 -10t-31.5 -22z" />
<glyph unicode="4" horiz-adv-x="1193" d="M92 406q0 16 27 43q129 129 290.5 254.5t299.5 214.5q291 182 446 258l70 32q154 76 303 76t149 -119q0 -100 -103.5 -172.5t-217 -72.5t-113.5 67q0 29 24.5 56.5t65.5 46t77 18.5t36 -15.5t-14 -17.5q-66 -12 -86 -24q-39 -27 -39 -63t74.5 -36t165.5 58.5t91 149.5 t-129 91q-57 0 -125.5 -18.5t-107.5 -36.5l-39 -18q-63 -29 -207.5 -111t-260.5 -159t-266.5 -195.5t-271.5 -241.5q-23 -23 -22.5 -40t29.5 -19q170 -10 368 -11h113q164 203 313 353l47 47q14 14 38 13t24 -10t-15 -24q-164 -160 -342 -377q152 6 244 21q20 78 87 144.5 t161 66.5q59 0 59 -49q0 -139 -266 -187v-10q0 -82 70 -94q6 -2 6 -8q0 -14 -30 -14.5t-60.5 30.5t-30.5 84v4q-106 -14 -264 -20q-156 -193 -252 -353q-12 -27 -29 -26q-25 0 -28 20v8l6 27q113 170 235 322h-139l-403 10q-57 0 -58 27zM1073 430q209 39 209 143 q0 25 -43 25t-96 -51t-70 -117z" />
<glyph unicode="5" horiz-adv-x="966" d="M201 246q0 117 85 206t189.5 126.5t183 37.5t124.5 -14t67.5 -31.5t34.5 -42.5q16 -33 16 -61q0 -70 -38 -120t-97 -71q-104 -37 -175 -36.5t-102.5 23t-31.5 52t22 29.5q14 0 25 -16q16 -35 60 -43.5t57 -8.5q115 0 174 59.5t59 125.5q0 131 -178 131t-298 -111.5 t-120 -240.5q0 -68 33 -114t84 -65q82 -27 149 -26q225 0 413.5 177t188.5 388q0 127 -87 193.5t-201 66.5q-57 0 -116.5 -15.5t-90.5 -29.5l-31 -16q-25 -12 -34 -12.5t-9 12.5l6 22l340 412q12 10 31 10q131 -53 330 -53h16q29 68 99.5 116t159.5 48t89 -58 q0 -123 -309 -135q-4 -29 -4 -43q0 -49 26 -65q8 -6 8.5 -14.5t-10 -9.5t-15.5 0t-16.5 6t-19.5 14q-23 23 -22.5 60.5t4.5 49.5h-21q-145 0 -270 19l-43 6q-6 0 -21 -15q-178 -209 -219 -266q-4 -8 -4 -16t8.5 -8t34 5t86 5t117.5 -14.5t113.5 -46t91.5 -93t35 -148.5 t-48.5 -188.5t-130 -189.5t-208.5 -146.5t-244 -58.5t-182.5 24.5t-96.5 61.5q-59 70 -65 131zM1329 1190q242 14 242 92q0 37 -54.5 37t-108.5 -36t-79 -93z" />
<glyph unicode="6" horiz-adv-x="954" d="M154 280.5q0 137.5 85 305.5t220 317.5t325.5 251.5t380.5 102q53 0 95 -18q78 -35 77.5 -93.5t-32 -100t-76.5 -62.5q-84 -37 -126 -37t-42 6q0 8 16 13q88 14 138.5 57t56.5 78l6 35q0 41 -29 63q-41 31 -98 31q-213 0 -439.5 -167t-366.5 -394.5t-140 -405.5 q0 -115 83 -195.5t223 -80.5t280.5 96t218 227t77.5 228q0 197 -194 196q-131 0 -270.5 -117.5t-139.5 -271.5q0 -96 111 -96v4q0 82 68.5 180t158.5 98q68 0 68 -57q0 -63 -76 -146t-170 -106q8 -29 18.5 -40t10.5 -20t-7.5 -9t-17.5 4t-25.5 19t-23.5 40h-6q-94 0 -137 74 q-16 29 -17 69q0 119 86 215.5t189.5 140.5t203 44t159 -62.5t59.5 -159t-45.5 -194.5t-125 -184t-204.5 -141.5t-276.5 -55.5t-240.5 91t-89 228.5zM641 252q82 18 142.5 85t60.5 116q0 35 -45 34.5t-101.5 -71t-56.5 -164.5z" />
<glyph unicode="7" horiz-adv-x="927" d="M154 2q0 59 139 251.5t338 405.5h-152q-22 1 -22 13q14 35 55 35h164q250 260 454 405q-31 10 -126 47q-178 70 -297 70t-206 -63.5t-87 -141.5q0 -90 112 -90q57 0 105.5 30.5t68.5 63.5l21 31q8 16 17.5 16t9.5 -18q-2 -49 -69 -100.5t-142 -51.5q-174 0 -175 127 q0 84 105.5 154.5t288.5 70.5q123 0 295 -69q86 -35 125 -47q190 127 296.5 127t106.5 -60q0 -66 -76 -98.5t-158.5 -32.5t-164.5 21q-205 -147 -439 -391h179q18 -2 18 -11.5t-8 -19.5q-16 -16 -33 -17h-201q-258 -283 -424 -544q-35 -61 -56 -110.5t-36 -49.5 q-20 0 -26 47zM1225 1128q68 -18 137.5 -18t116.5 25.5t47 63.5t-56 38q-83 0 -245 -109z" />
<glyph unicode="8" horiz-adv-x="1024" d="M176 231q0 162 144.5 276t336.5 114q113 0 168.5 -45.5t55.5 -116.5q0 -41 -19 -80l47 -41q10 -14 10.5 -28.5t-6 -22.5t-10.5 -8l-10 14q-14 35 -45 55q-39 -68 -112.5 -111.5t-163 -43.5t-89.5 53t79 108.5t183 55.5q45 0 84 -15q8 23 9 49q0 66 -48.5 108t-141.5 42 t-165.5 -27.5t-118 -68.5t-75.5 -92q-55 -90 -55.5 -173t38.5 -139.5t101 -77.5q102 -37 182 -36q238 0 406.5 142t168.5 286.5t-196 334.5q-111 -25 -205 -24q-35 2 -35 22v7q2 6 11 6l49 -4q65 0 153 20q-158 131 -157.5 250t141.5 193.5t281.5 74.5t215 -37t74.5 -106 q0 -125 -136 -226.5t-329 -158.5q195 -188 195 -334q0 -59 -41 -136t-115.5 -154t-205 -130t-283.5 -53q-70 0 -141.5 18.5t-115.5 46t-79 83t-35 130.5zM532 261q0 -36 69 -36t129 39.5t89 100.5q-41 14 -102.5 14t-123 -41t-61.5 -77zM813 1027q0 -103 121 -210 q14 -12 37 -31q174 49 301 137t127 205q0 63 -62.5 96t-178.5 33t-230.5 -63.5t-114.5 -166.5z" />
<glyph unicode="9" horiz-adv-x="1105" d="M242 107.5q0 58.5 35.5 103.5t66.5 45t31 -20l-13 -17q-25 -8 -40 -31q-29 -37 -29 -89t20.5 -82.5t53.5 -41.5q51 -18 90 -18q137 0 276 80t246.5 202.5t194 265t132.5 273.5t46 219q0 137 -83 203t-195.5 66t-212 -41t-161 -103.5t-102.5 -138.5q-78 -135 -78 -229.5 t45 -150.5t142 -56q160 0 300 136t140 286q0 92 -88 92q-39 0 -86 -21q25 -31 24.5 -89t-54.5 -124.5t-126 -66.5q-47 0 -47 54t36 117.5t97 106.5q-33 12 -55.5 12.5t-30.5 -1.5q-10 4 -10 12q0 20 55.5 20t83.5 -18q57 27 121 27q119 0 119 -140q0 -170 -152.5 -300 t-337.5 -130q-174 0 -219 168q-10 37 -10 89t38 139.5t106.5 174.5t189.5 145t262 58t237.5 -74.5t96.5 -244.5q0 -219 -142.5 -464t-364.5 -412t-433 -167q-113 0 -164 58.5t-51 117zM809 836q0 -35 31 -35q18 0 43 16q74 51 73 129q0 45 -26 72q-121 -69 -121 -180v-2z " />
<glyph unicode=":" horiz-adv-x="385" d="M137 16q0 19 18.5 40.5t34 21.5t24.5 -9.5t9 -27.5t-21.5 -34.5t-35.5 -16.5q-29 0 -29 26zM276 307q0 19 18.5 40.5t34 21.5t24.5 -9.5t9 -28t-21.5 -34.5t-35.5 -16q-29 0 -29 26z" />
<glyph unicode=";" horiz-adv-x="385" d="M4 -111.5q0 -9.5 23 -9.5q68 4 126 54.5t58 115.5q0 10 -9 19.5t-24.5 9.5t-34 -21.5t-18.5 -40.5q0 -27 31 -26q-8 -39 -55.5 -64.5t-72 -26.5t-24.5 -10.5zM276 307q0 19 18.5 40.5t34 21.5t24.5 -9.5t9 -28t-21.5 -34.5t-35.5 -16q-29 0 -29 26z" />
<glyph unicode="&#x3c;" horiz-adv-x="593" d="M291 594q0 23 63 57q207 113 302.5 183.5t107.5 70.5q25 0 24 -18q0 -10 -36.5 -40t-405.5 -247l330 -260q10 -6 10 -12t-16 -9q-25 -4 -45.5 15.5t-108.5 83.5q-225 164 -225 176z" />
<glyph unicode="=" horiz-adv-x="802" d="M207 518q14 35 55 35h619q18 -2 18 -11.5t-10 -19.5q-14 -16 -29 -16h-631q-22 0 -22 12zM270 635q14 35 56 35h618q18 -2 18.5 -11.5t-8.5 -19.5q-16 -16 -32 -16h-629q-23 0 -23 12z" />
<glyph unicode="&#x3e;" horiz-adv-x="657" d="M360 338q0 10 37 40t406 247l-330 260q-10 6 -10 12t16 8q25 4 45.5 -15.5t110.5 -82.5q223 -164 223 -176q0 -23 -63 -58q-207 -113 -302.5 -183.5t-107.5 -70.5q-25 0 -25 19z" />
<glyph unicode="?" horiz-adv-x="788" d="M180 20q0 19 18.5 40.5t34 21.5t24.5 -9.5t9 -27.5t-21.5 -34.5t-35.5 -16.5q-29 0 -29 26zM338 1128q8 25 39 52q63 55 172 55q63 0 110 -31q125 59 259 60q57 0 122 -19q125 -39 125 -155q0 -88 -75.5 -175.5t-184 -158t-218 -138t-189.5 -143t-86 -145.5 q-2 -27 -21 -27q-49 0 -49 25q0 68 78 142.5t189.5 142t222 140t188.5 164t78 183.5q0 139 -183 139q-119 0 -231 -53q37 -33 37 -90q0 -96 -96.5 -191.5t-194.5 -95.5q-33 0 -51.5 19.5t-18.5 54.5q0 63 71 149t181 148q-39 23 -86 22.5t-90 -20t-59 -39.5l-17 -19 q-6 -8 -10 -8q-8 0 -12 12zM414 901q0 -47 51 -47q86 0 147.5 82t61.5 137t-37 88q-98 -55 -160.5 -132t-62.5 -128z" />
<glyph unicode="@" horiz-adv-x="991" d="M47 -27q0 125 69.5 231.5t173 170t213 99.5t202 36t160 -27.5t98.5 -70.5q51 -76 51 -134.5t-15.5 -105.5t-35.5 -82q-39 -66 -78 -106l-17 -15q-104 -94 -194 -94q-51 0 -77 29.5t-26 71.5t17 81q-4 0 -6 -2q-102 -68 -193.5 -67.5t-91.5 82.5q0 86 102.5 179t237.5 93 q72 0 119 -51q2 0 32 31q14 23 33 22.5t19 -18.5l-9 -19q-6 -10 -80.5 -100t-81.5 -100.5t-29 -52.5t-24 -56t-2 -33q0 -68 62 -67q96 0 196 118q111 133 111 256q0 88 -73.5 150.5t-211.5 62.5q-84 0 -187 -35.5t-200.5 -99t-162 -167t-64.5 -222.5q0 -68 44 -123t126 -55 q139 0 186 100q6 6 11.5 6t5.5 -10q0 -53 -66.5 -89t-157 -36t-138.5 72t-48 147zM367 86q0 -61 59 -61q80 0 178 82.5t115 142.5q0 25 -31 42t-70 17q-94 0 -172.5 -81t-78.5 -142z" />
<glyph unicode="A" horiz-adv-x="1869" d="M90 170q0 160 173 295t439 135q309 0 310 -174q0 -94 -91.5 -161.5t-190.5 -93.5t-175 -26q-160 0 -160 86q0 33 30 60.5t58 40.5l29 10q31 0 31 -20t-27 -27q-55 -12 -55 -53q0 -59 96 -60q180 0 281.5 68.5t101.5 161.5q0 61 -58.5 103t-187.5 42q-244 0 -403.5 -115.5 t-159.5 -255.5q0 -104 104.5 -173.5t295 -69.5t359.5 78.5t367 250.5q-133 82 -133 217q0 86 60 162q-141 45 -232.5 171t-91.5 248t76 194.5t229 72.5q205 0 365 -183t164 -458q141 150 434 463l252 271q51 51 64.5 51t20.5 -8.5t7 -25.5t-21.5 -33.5t-145.5 -214.5 t-311.5 -500t-301.5 -476q115 14 245 72q41 18 50.5 18t9.5 -10q0 -20 -33 -31q-127 -59 -291 -75q-174 -262 -203 -263q-20 0 -20 20.5t41 76.5l53 78l27 86q-174 6 -283 61q-219 -193 -397 -274.5t-383 -81.5t-311.5 76.5t-106.5 193.5zM909 1044q0 -113 83 -223t218 -143 q90 84 220 84q67 0 67 -36q0 -30 -51 -61.5t-117.5 -31.5t-118.5 10q-43 -53 -43 -123q0 -125 127 -213q160 141 355 342q0 154 -64 314q-35 92 -89 164.5t-147.5 121.5t-209.5 49q-229 0 -230 -254zM1239 672q41 -4 64 -4q125 0 124 43q1 16 -22 16q-104 0 -166 -55z M1323 289q104 -57 254 -66q62 227 70 379q-213 -215 -324 -313zM1597 186l7 9h-5q0 -6 -2 -9zM1608 221h14q92 129 108.5 157t157.5 249q416 651 416 655l-8 4q-504 -535 -604 -637q-6 -127 -84 -428z" />
<glyph unicode="B" horiz-adv-x="2074" d="M27 203q0 123 110.5 222t284.5 99q133 0 186 -65q178 133 334 135q115 -8 115 -51q0 -20 -21 -21q-10 0 -29.5 13.5t-76 13.5t-147.5 -33t-160 -80q12 -25 12 -62.5t-30 -80.5t-77 -43t-47 50t90 126q-43 74 -171 74t-219 -91.5t-91 -202t97.5 -185t276.5 -74.5t328.5 52 t280.5 155.5t230.5 208t220.5 255.5q-125 2 -125 50q0 31 64.5 56.5t162.5 25.5q100 129 160 202q168 213 309 332q-125 86 -375 86q-143 0 -274 -37q29 -51 29 -121q0 -14 -2 -22q8 2 26 2q131 0 131 -80q0 -66 -82 -158t-202.5 -161.5t-213 -69.5t-138.5 44t-46 116 q0 121 118 254t320 204q-82 119 -270 119q-205 0 -366 -92q-150 -86 -238 -188q-86 -96 -119 -156l-14 -25q-10 -16 -22.5 -16t-12.5 23q20 51 102 151t165 163.5t222.5 116t296.5 52.5q213 0 302 -131q147 45 323 45q244 0 381 -86q137 100 268 131q18 0 23 -14 q0 -12 -39 -25q-90 -27 -213 -121q84 -76 84 -184.5t-90 -221t-244 -184.5q156 -68 156 -205t-127 -277t-324 -218q174 -37 244 -37t182 27q16 0 16.5 -11.5t-8.5 -13.5q-18 -10 -98 -24.5t-169 -14.5t-261 41q-133 -37 -233.5 -37t-168 23.5t-67.5 75t158 51.5 q53 0 186 -32t172 -40q193 66 314.5 200t121.5 269t-147 201q-131 -51 -287 -58q-96 -123 -169 -206.5t-185.5 -185t-221 -163t-255 -104.5t-329.5 -43t-290.5 82t-107.5 205zM524 299q0 -14 11 -14q26 0 38.5 27.5t12.5 49t-4 41.5q-57 -53 -58 -104zM999 895q0 -61 37 -99 t107 -38q123 0 274.5 129t151.5 217q0 57 -84 57l-15 -2q-16 -84 -70 -142.5t-128 -58.5q-39 0 -39 33q0 43 61.5 106.5t141.5 86.5v8q0 68 -33 127q-188 -66 -296 -189.5t-108 -234.5zM1141 18.5q0 -30.5 61.5 -44t128 -13.5t150.5 19q-39 10 -111 30q-137 39 -183 39 t-46 -30.5zM1303 1012q49 0 84.5 40t46.5 101q-56 -18 -100 -62t-44 -61q0 -18 13 -18zM1483 686q0 -27 65 -37l60 76h-11q-114 0 -114 -39zM1608 647q125 4 229 43q-78 27 -172 33q-14 -20 -25.5 -34.5t-19.5 -26t-12 -15.5zM1686 748q119 -6 204 -35q140 63 225 170.5 t85 205t-68 164.5q-96 -82 -181 -181t-120 -141t-85 -106.5t-60 -76.5z" />
<glyph unicode="C" horiz-adv-x="1060" d="M135 221q0 209 195 490q-141 43 -142 168q0 88 86 171t158 83q41 0 41 -25t-18 -25l-52 4q-49 0 -104 -71.5t-55 -122.5q0 -115 108 -150q207 287 511 489t599 202q236 0 236 -142q0 -102 -117 -238t-297 -235.5t-340 -99.5q-104 0 -137 67q-206 -81 -385 -81h-4h-33 q-184 -270 -184 -469q0 -113 70.5 -177.5t217.5 -64.5q244 0 453 131q49 31 74 51l24 21q6 4 18.5 4t12.5 -13.5t-18 -25.5q-260 -205 -598 -205q-162 0 -241 70.5t-79 193.5zM408 737h18q180 0 373 80v17q0 70 96 143.5t164 73.5q45 0 45 -41q0 -45 -69.5 -101.5 t-180.5 -103.5q25 -49 113 -49q131 0 292.5 86t273.5 205.5t112 209.5q0 133 -251 133q-1 0 -1 1q-251 1 -523 -191t-462 -463zM848 838q84 41 135 83t51 65.5t-20 23.5q-43 0 -104.5 -56.5t-61.5 -113.5v-2z" />
<glyph unicode="D" horiz-adv-x="1839" d="M59 78q0 76 211 76q119 0 379 -76q168 76 340 238.5t298 325.5t297 352.5t325 297.5q-162 78 -426 78q-154 0 -316 -59q25 -55 25 -100.5t-2 -57.5q33 4 53 4q117 0 117 -98q0 -72 -65.5 -176.5t-165 -200.5t-231.5 -163.5t-240.5 -67.5t-157.5 44t-49 119 q0 164 191.5 380t469.5 327q-76 137 -266.5 137t-397.5 -137t-266 -256q-14 -25 -28.5 -25t-14.5 17q0 10 8 24q98 137 304 268.5t416 131.5t288 -144q174 61 350 62q274 0 447 -78q182 117 354 152q16 0 16 -12.5t-14 -14.5q-166 -35 -323 -139q221 -115 221 -346 q0 -156 -103.5 -330t-268.5 -318.5t-396.5 -240t-464.5 -95.5q-133 0 -355 58q-166 -55 -339 -55q-219 0 -220 98zM125 84q2 -82 157.5 -82t286.5 47q-256 74 -350 74t-94 -39zM518 631q0 -139 164 -139q141 0 289.5 104t235.5 234.5t87 214t-84 83.5q-16 0 -24 -2 q-16 -96 -76.5 -163.5t-144.5 -67.5q-55 0 -56 39q0 47 72 113.5t166 95.5q2 8 2 51t-25 100q-252 -106 -429 -310t-177 -353zM694 66q195 -53 310 -54q213 0 425.5 91.5t364.5 228.5t247 304t95 314q0 215 -194 324q-223 -168 -586 -639q-125 -160 -303.5 -325t-358.5 -244 zM967 957.5q0 -27.5 16 -27.5q61 0 105.5 54t56.5 134q-76 -20 -127 -76.5t-51 -84z" />
<glyph unicode="E" horiz-adv-x="1505" d="M39 534.5q0 147.5 80 294t238.5 250t353.5 103.5q76 0 154.5 -24.5t125.5 -49.5t135 -76q90 29 168 41q-24 41 -24 92q0 113 95 199t247.5 86t237.5 -53.5t85 -134.5t-104 -134q-25 2 -25 10.5t15 20.5q61 59 61 118.5t-84 106t-178 46.5q-139 0 -214 -76t-75 -174 q0 -51 23 -101q41 4 91 4t105.5 -18t55.5 -55q-6 -45 -76 -45q-150 0 -219 86q-68 -10 -152 -39q127 -74 244 -115t266 -41q223 0 366.5 127t143.5 264q0 72 -47 117t-139 45q-33 0 -33 16q0 10 47 11q104 0 164.5 -59.5t60.5 -149.5q0 -152 -162.5 -277t-461.5 -125 q-90 0 -184.5 28t-156 59.5t-151.5 84.5q-59 -25 -127 -61q61 -72 62 -170v-8q102 43 211 43q160 0 239.5 -67.5t79.5 -170t-56.5 -209t-152.5 -196.5t-237.5 -148.5t-284.5 -58.5t-230.5 69.5t-119.5 184.5q-43 -8 -105 -8q-176 0 -266 95t-90 242.5zM104 549 q0 -137 77 -225t225 -88h2q43 0 84 6q-6 37 -7 80q0 199 120 357.5t310 262.5q-66 55 -180 55q-33 0 -69 -6q-10 0 -11 13q1 28 62 28q154 0 244 -69q74 37 120 53q-231 137 -376 137q-264 -2 -432.5 -193.5t-168.5 -410.5zM557 332q0 -39 6 -76q92 23 176 78 q4 121 73.5 227.5t180.5 169.5v29q0 86 -47 149q-174 -111 -281.5 -268.5t-107.5 -308.5zM569 219q25 -102 99.5 -166.5t207 -64.5t255 53t203.5 134t127 176t46 191.5t-66.5 160t-185 63.5t-206.5 -41q-12 -106 -83 -216t-182 -187v-7q0 -18 8.5 -40.5t8.5 -32t-9.5 -16.5 t-17.5 -7q-35 0 -35 74q-86 -51 -170 -74zM788 371q162 135 197 319q-172 -114 -197 -319zM1368 1057q51 -68 137 -68q53 0 54 23q-1 39 -148 47q-29 0 -43 -2z" />
<glyph unicode="F" horiz-adv-x="1388" d="M51 247q0 132 124 244.5t314 112.5q82 0 125 -40t48 -101q76 31 157.5 31t141.5 -25q250 170 595 219q20 25 81 98.5t86.5 104.5t78.5 93.5t88 98t82 84.5q78 78 178 152q-257 25 -398 25h-6q-142 0 -333 -60q14 -41 14 -74.5t-2 -44.5q53 14 97 15q92 0 92 -61.5 t-78 -150.5t-200 -159t-205.5 -70t-122.5 26t-47.5 50.5t-8.5 50.5q0 283 400 428q-70 133 -291 133q-205 0 -367 -92q-150 -86 -239 -188q-84 -96 -117 -156l-14 -24q-10 -16 -22.5 -16.5t-12.5 22.5q20 51 102 151.5t165 164t222.5 115.5t296.5 52q248 0 326 -147 q230 73 455 74q3 0 6 -1q129 0 354 -18q150 92 307 113q20 0 21 -7v-6q0 -10 -8.5 -12t-12.5 -2q-119 -31 -227 -92q231 -18 355 -18q3 0 6 -1q121 1 231 21q112 20 164.5 41.5t56.5 21.5q31 0 31 -20q0 -16 -81 -43t-225.5 -48.5t-261 -21.5t-350.5 23 q-102 -70 -215 -182.5t-181.5 -195.5t-191.5 -239q72 8 131.5 8t63.5 -2q10 -2 10 -18t-20 -29q-88 -51 -88 -118q-1 -31 26 -31q8 0 8 -14v-7q0 -14 -25.5 -14t-47 12.5t-21.5 43t38 76.5t38 54.5t-42 8.5t-101 -7q-266 -330 -457 -475v-12q0 -178 -114.5 -330.5 t-278.5 -152.5q-90 0 -137.5 53t-47.5 143q0 33 6 66q-61 -4 -94 -4q-213 0 -321.5 84t-108.5 216zM111 258q0 -119 99 -197.5t296 -78.5q51 0 78 4q66 254 336 454q-51 18 -119 18q-1 0 -3 1q-67 0 -136 -23q-4 -74 -47.5 -132t-93.5 -58t-50 34.5t42 83t110 82.5 q-8 53 -45 89t-103 36q-160 0 -262 -97t-102 -216zM520 315.5q0 -20.5 30 -20.5t52.5 37t22.5 88q-47 -23 -76 -53.5t-29 -51zM639 -133q0 -55 34 -99t97 -44q137 0 232.5 133t97.5 293q-213 -152 -455 -189q-6 -39 -6 -94zM653 -4q224 39 443 211q-20 154 -140 217 q-238 -188 -303 -428zM997 453q117 -61 144 -209q168 143 387 409q-301 -39 -531 -200zM1012 893q0 -57 35.5 -88t82.5 -31q86 0 189.5 62.5t170 141.5t66.5 128q0 43 -59 43q-31 0 -78 -14q-16 -74 -62 -126.5t-92 -52.5t-46 31q0 35 44.5 84t114.5 78q2 10 2 42t-16 77 q-352 -133 -352 -375zM1264 1018q0 -12 22.5 -12t48 31.5t37.5 78.5q-45 -23 -76.5 -52.5t-31.5 -45.5z" />
<glyph unicode="G" horiz-adv-x="1095" d="M-498 -627q0 70 68 156t179.5 163t277.5 129t315.5 52t228.5 -20q131 150 340 409q-309 -172 -503 -172q-270 0 -271 242q0 215 205 516q-141 43 -141 168q0 88 86 171t157 83q41 0 41 -24.5t-18 -24.5l-51 4q-49 0 -104.5 -72t-55.5 -123q0 -115 109 -149 q211 293 519 498.5t615 205.5q250 0 250 -133q0 -100 -132 -241.5t-317.5 -244t-308.5 -102.5t-143 80q-229 -108 -413 -108h-3q-31 0 -47 2q-178 -268 -178 -469q0 -106 60.5 -168t187.5 -62q197 0 510 189q213 266 321.5 379.5t175 155.5t119.5 42q31 0 31 -35 q0 -66 -170 -224.5t-393 -301.5q-236 -301 -426 -506q109 -39 147 -119q166 74 360 74q117 0 173 -20q20 -6 20 -20.5t-16 -14.5q-4 0 -13 4q-63 27 -176 27q-178 0 -338 -78q4 -25 4 -39q0 -88 -71.5 -162t-155.5 -74q-53 0 -53 46t58.5 114t156.5 121q-33 76 -123 110 q-526 -559 -897 -559q-197 0 -197 125zM-436 -619q0 -96 153 -96q193 0 396.5 143.5t431.5 395.5q-77 22 -184 22h-9q-199 0 -388 -84t-294.5 -191.5t-105.5 -189.5zM408 870q37 -4 63 -4q152 0 373 107v6q0 80 70.5 150.5t177.5 70.5q38 0 38 -29q0 -37 -67.5 -94 t-171.5 -110q18 -68 112.5 -68t259 94t291.5 226.5t127 224.5q0 106 -192 106q-299 0 -593 -198.5t-488 -481.5zM557 -509q0 -30 47 -30t88 52t41 118q0 12 -4 33q-78 -45 -125 -94t-47 -79zM889 995q174 96 174 152q0 10 -12 10q-66 0 -113 -51t-49 -111zM1114 426 q178 123 303 246t125 170q0 14 -21.5 14t-59.5 -28.5t-101 -98.5q-76 -88 -246 -303z" />
<glyph unicode="H" horiz-adv-x="2027" d="M29 309.5q0 145.5 109.5 240.5t240.5 95q20 0 31 -2q125 -20 163 -84q80 53 173.5 89t141.5 38h20q34 0 54 -5q26 -7 39 -17q31 -18 41 -43q0 -20 -18 -21q-8 0 -20 14q-35 41 -101.5 41t-158 -32.5t-162.5 -81.5q10 -27 10 -69t-33 -83q-47 -55 -89 -55t-42 37 q0 80 119 168q-23 37 -66 58t-73 24q-324 -37 -324 -302q0 -119 108.5 -190.5t243.5 -71.5t265 40t226.5 94.5t209 156t182.5 174.5q123 133 215 246q-16 43 -16 122t41 171q-78 -29 -121 -41q4 -41 4 -66q0 -158 -53 -282q-6 -16 -17 -17q-12 6 -12 15q43 145 43 223 t-6 117q-190 -49 -402 -49q-315 0 -482 96t-167 227q0 109 116 188.5t310 79.5q266 0 444.5 -142t215.5 -357q74 20 145 47q45 90 112.5 147.5t127 57.5t59.5 -29q0 -33 -70.5 -87t-187.5 -106q-43 -96 -43 -196q0 -20 4 -62q229 274 315 369q350 389 535 389q10 0 13 -6 t3 -8q0 -23 -41 -31q-111 -41 -218 -129t-167 -154q-106 -106 -236 -270t-184 -225q68 -152 304 -152q59 0 127 13q102 127 148 185t148.5 177t166 179.5t162 147.5t175.5 128q195 108 345 108h3q217 0 218 -143q0 -125 -146.5 -266.5t-286.5 -141.5q-47 0 -71 13 q-174 -133 -401.5 -250t-424.5 -160q-227 -270 -335 -373q184 -18 184 -149q0 -94 -86 -171t-180.5 -110t-153.5 -33q-14 2 -14 17.5t12 15.5l14 -2q152 20 247 98t95 172q0 119 -145 138q-170 -154 -283 -154q-16 0 -29.5 11.5t-13.5 27.5q0 57 98.5 99t211.5 42h2 q109 104 309 357q-49 -8 -107 -9q-246 0 -331 140l-35 -39q-117 -129 -198 -211t-196.5 -176t-218.5 -150q-233 -125 -501 -125q-170 0 -276.5 75t-106.5 220.5zM424 1319q0 -123 160 -224.5t428 -101.5q184 0 381 49q-39 209 -211 342.5t-426 133.5q-162 0 -247 -56.5 t-85 -142.5zM477 391q0 -8 5 -13t10 -5q30 0 49.5 41t19.5 57t-6 47q-78 -61 -78 -127zM1436 102q0 -12 20 -12q86 0 209 113h-4q-84 0 -154.5 -31t-70.5 -70zM1636 1126q174 78 174 119q0 15 -32.5 15t-71.5 -37t-70 -97zM2101 637q184 47 395 158.5t369 232.5 q-18 20 -18 57q0 70 63.5 141.5t135.5 72.5h1q70 0 70 -39q0 -70 -186 -222q14 -8 43 -8q129 0 241.5 118t112.5 230q0 61 -43 97t-135 36t-200.5 -52t-202 -125.5t-213 -198.5t-203.5 -222q-162 -193 -230 -276zM2900 1110q0 -35 8 -49q139 113 139 160q0 23 -38.5 22.5 t-73.5 -49.5t-35 -84z" />
<glyph unicode="I" horiz-adv-x="1318" d="M37 200q0 132 124 244.5t314 112.5q94 0 141 -57q164 96 363 96q49 0 84 -17.5t43 -33.5l10 -17q0 -20 -18 -20q-8 0 -21 14q-30 41 -114 41q-182 -2 -328 -92q14 -31 14 -89t-44 -120.5t-103 -62.5q-82 0 -82 63q0 45 42 102.5t116 108.5q-37 51 -117 51 q-160 0 -262.5 -97t-102.5 -216t99.5 -198t272.5 -79t317.5 53.5t267.5 146.5t237.5 208t224 248t207.5 254q240 297 418 438q-47 4 -168 21q-252 35 -378 35h-4q-126 0 -210 -23q33 -53 33 -99.5t-2 -56.5q53 14 96 15q98 0 99 -76q0 -104 -153 -242.5t-304 -138.5 q-113 0 -169 47t-56 125q0 113 108.5 238.5t282.5 195.5q-84 98 -268 98q-139 0 -259 -41t-190 -98q-150 -123 -192 -217l-21 -41q-10 -16 -22.5 -16t-12.5 22q23 61 84.5 140t134 134.5t203.5 101.5t289 46q215 0 303 -113q129 43 235.5 43t193.5 -7t142.5 -15t141.5 -22.5 t112 -18.5q176 123 346 123q76 0 77 -45q0 -59 -127.5 -90t-197 -31t-92.5 2q-150 -117 -405 -434q-98 -123 -213 -260.5t-237.5 -257t-256.5 -215.5q-287 -211 -616 -211q-213 0 -321.5 84t-108.5 216zM473 289q0 -41 57 -41q35 0 57.5 37t22.5 80t-16 79 q-121 -88 -121 -155zM983 909q0 -72 46 -114.5t138 -42.5q125 0 253 122.5t128 212.5q0 55 -65 56q-31 0 -78 -15q-16 -74 -62.5 -126t-92.5 -52t-46 31q0 35 45 84t115 78q2 10 2 33q0 70 -35 124q-158 -53 -253 -168.5t-95 -222.5zM1249 1012q0 -12 22.5 -12t48.5 31.5 t38 78.5q-45 -23 -77 -52.5t-32 -45.5zM2243 1311q16 -2 67 -2t139 22.5t88.5 50t-32.5 27.5q-125 0 -262 -98z" />
<glyph unicode="J" horiz-adv-x="1105" d="M-299 -588q0 113 94 285t231.5 328.5t308.5 270.5t306 114q90 0 129 -56q143 90 315 127q461 592 717 801q-45 4 -166 21q-252 35 -377 35h-4q-125 -1 -208 -23q33 -52 33 -98q0 -45 -3 -58q53 14 97 15q98 0 98 -76q0 -104 -152.5 -242.5t-304.5 -138.5q-113 0 -169 47 t-56 125q0 113 108.5 238.5t282.5 195.5q-84 98 -268 98q-139 0 -259 -41t-192 -98q-147 -123 -192 -217l-19 -41q-10 -16 -22.5 -16t-12.5 22q23 61 84.5 140t134 134.5t203.5 101.5t289 46q215 0 303 -113q129 43 246 43t209 -10t224 -32.5t138 -22.5q184 139 326 139 q76 0 76 -45q0 -59 -119 -97t-186.5 -38t-92.5 2q-94 -78 -218 -215t-216 -253t-248 -314q47 6 95 6q141 0 141 -41q0 -14 -11.5 -14.5t-18.5 3l-19 9.5q-41 16 -101.5 16t-107.5 -8q-315 -408 -385 -486.5t-156 -180t-137 -149.5t-128 -122t-132 -109.5t-121 -76.5 q-115 -72 -235 -72q-152 0 -152 141zM-236 -578q0 -114 111 -114q88 0 198.5 65.5t218 165t243.5 254.5q199 227 501 623q16 23 25 33q-145 -37 -279 -125q6 -18 6 -37q0 -72 -53 -133.5t-129 -61.5q-49 0 -49 35t47 91t127 112q-29 47 -108 47q-162 0 -370 -181.5 t-348.5 -408.5t-140.5 -365zM596 137q0 -18 25 -18q47 0 85.5 51t38.5 106q0 14 -2 23q-68 -47 -107.5 -92t-39.5 -70zM649 909q0 -72 46 -114.5t139 -42.5q125 0 252.5 122.5t127.5 212.5q0 55 -65 56q-31 0 -78 -15q-16 -74 -62 -126t-92.5 -52t-46.5 31q0 35 45.5 84 t114.5 78q2 10 2 33q0 70 -35 124q-158 -53 -253 -168.5t-95 -222.5zM915 1012q0 -12 23 -12.5t48.5 31.5t37.5 79q-45 -23 -77 -52.5t-32 -45.5zM1892 1313q23 -4 73 -4t130 28.5t80 59.5q0 26 -33 26q-104 0 -250 -110z" />
<glyph unicode="K" horiz-adv-x="2361" d="M39 179q0 132 124 245t314 113q100 0 150 -54q150 92 354 92q14 0 14 -12q1 -18 -28 -18q-176 0 -322 -82q25 -39 25 -93.5t-37 -102.5t-92 -48q-76 0 -76 62q0 86 123 178q-49 45 -125 45q-160 0 -262.5 -97.5t-102.5 -216t99.5 -197.5t296.5 -79q246 0 455.5 135 t416.5 375q-80 31 -80 80q0 31 38 48t80 17t75 -8q49 61 189 246.5t232.5 293t184.5 185.5q-39 4 -139 17q-195 25 -322 25h-5q-128 0 -235 -40q31 -55 31 -97t-2 -52q53 14 96 14q98 0 99 -76q0 -104 -152.5 -242.5t-304.5 -138.5q-88 0 -134 45t-46 119q0 111 94 236 t258 198q-82 106 -274 107q-139 0 -259 -41t-192 -98q-147 -123 -192 -218l-19 -40q-10 -16 -22.5 -16.5t-12.5 22.5q23 61 84.5 140t134 134t203.5 101.5t289 46.5q219 0 307 -117q152 57 320 57q59 0 221 -20.5t221 -26.5q168 129 330 129q63 0 63 -33q0 -43 -90 -92 t-209 -49q-59 0 -88 2q-139 -125 -401 -475q-129 -170 -205 -262q68 -25 158 -78q260 82 637 418q147 131 301.5 258t326.5 210t336 83q20 0 21 -25q0 -8 -4 -8h-15q-172 0 -334.5 -82t-300 -206t-272.5 -254t-308 -248.5t-354 -168.5q74 -47 209 -149t227.5 -168t212 -120 t195.5 -54t185 35q2 2 4 2q20 0 20 -13q0 -23 -81 -37t-144 -14q-125 0 -257 58.5t-218 124t-214 174t-186 149.5q-109 -25 -178 -25q-1 1 -3 1q-70 0 -79 2q-219 -248 -449.5 -389.5t-498.5 -141.5q-213 0 -321.5 84t-108.5 216zM508 309q0 -41 62.5 -41t62.5 88 q0 41 -27 80q-98 -70 -98 -127zM1020 872q0 -63 38 -102t111 -39q125 0 253 123t128 213q0 55 -65 55q-31 0 -78 -14q-16 -74 -62.5 -126t-92.5 -52t-46 31q0 35 45 84t115 77q2 10 2 51t-31 97q-145 -63 -231 -179t-86 -219zM1251 991q0 -12 22.5 -12t48.5 31.5t38 79.5 q-45 -23 -77 -53t-32 -46zM1327 504q0 -35 62 -53l73 90q-33 4 -55.5 4t-51 -12.5t-28.5 -28.5zM1442 438q18 -4 73.5 -4t131.5 21q-74 51 -131 69zM2185 1321q31 -2 98.5 -2t123 29.5t55.5 54.5q0 18 -31 18q-119 0 -246 -100z" />
<glyph unicode="L" horiz-adv-x="1943" d="M-63 55q14 106 311 107q186 0 467 -43q184 96 339.5 248.5t338.5 382.5q-166 0 -166 131q0 84 75.5 164.5t165.5 80.5q18 0 29.5 -10t11.5 -21.5t-12 -11.5q-2 0 -11 7.5t-22 7.5q-78 0 -134 -61.5t-56 -133.5q0 -123 139 -127q244 313 359 428q274 274 552 275 q213 0 213 -140q0 -129 -154.5 -281.5t-289.5 -152.5q-86 0 -117 43q-260 -154 -497 -192q-170 -225 -333 -385t-370 -262q18 -2 123 -20.5t143.5 -24t120.5 -15.5q150 -18 293 -18q281 0 453 112q8 6 14 6.5t6 -12t-14 -22.5q-61 -51 -228 -93t-337 -42q-203 0 -441 49 q-33 8 -106.5 23.5t-102.5 21.5q-260 -106 -561 -107q-203 14 -202 88zM-6 72q2 -76 225 -76t426 90q-252 51 -452 51q-199 -12 -199 -65zM1497 782q205 33 467 191q-4 10 -4 31q0 70 62 140q64 70 128 70q1 0 1 1q63 0 63 -35q0 -80 -195 -205q29 -35 90 -35q123 0 245 132 t122 249q0 131 -172 131q-238 0 -436 -203q-98 -98 -177 -199.5t-130.5 -176t-53.5 -76.5q-6 -6 -10 -15zM2005 1024q0 -16 2 -23q158 104 158 160q0 19 -40 19h-1l-79 -52q-40 -52 -40 -104z" />
<glyph unicode="M" horiz-adv-x="2287" d="M51 217q0 127 95.5 220t239.5 93t198 -71q154 108 340 108l41 -2q33 -2 32 -24q-2 -6 -11 -6t-25.5 4t-42.5 4q-176 0 -322 -107q12 -27 12 -68.5t-36.5 -82.5t-84 -41t-47.5 32q0 68 115 160q-43 66 -172 66t-204 -78t-75 -191.5t87.5 -201.5t242.5 -88q266 0 545 204 q92 68 150.5 117t139.5 131t111 115l88 98q70 84 170.5 195.5t182.5 203t150.5 160t137.5 131.5q145 133 209 134q18 0 18.5 -15.5t-16.5 -23.5q-78 -49 -197.5 -240.5t-275 -466t-262.5 -422.5q31 20 191.5 180t343 337t415 362.5t400.5 263.5q29 12 39 12q23 0 22 -18 q0 -8 -14 -15q-141 -98 -400.5 -370.5t-477.5 -570.5t-218 -422q0 -96 80 -97q109 0 236 101q59 47 67 47q20 0 21 -15q0 -6 -6 -12q-221 -156 -346.5 -156t-125.5 117q0 88 112 267.5t267 365.5q371 444 582 616q23 20 45 41l21 19q-131 -63 -366 -263t-482 -444 q-420 -414 -641 -649q-12 -18 -27 -18q-12 8 -12 17t6 15.5t26 34.5q57 80 97 127q76 88 359.5 577.5t381.5 596.5q-205 -164 -530 -551q-297 -354 -578 -584q-141 -117 -314 -193.5t-344 -76.5t-267.5 92t-96.5 219zM315 993q41 59 113 127t148.5 117t198.5 90t251 41 q184 0 270 -103.5t86 -252.5v-19l78 68q6 113 72.5 210t163.5 97q31 0 30.5 -40t-60.5 -107.5t-171 -165.5v-11q0 -120 90 -120h2q66 0 105 34q16 12 23 12.5t7 -11t-8 -14.5t-19.5 -12t-23.5 -18q-32 -22 -89 -22h-5q-106 0 -117 131l-82 -72q-12 -113 -64 -195.5 t-118 -82.5q-43 0 -43 43q0 74 193 244q2 14 2 40q0 139 -87 234.5t-282 95.5q-96 0 -211 -37q-221 -68 -383 -258q-12 -12 -25 -28q-23 -33 -30 -33q-14 8 -15 18zM471 283.5q0 -17.5 14 -17.5q33 0 59.5 35t26.5 65.5t-6 45.5q-43 -37 -68.5 -74t-25.5 -54.5zM1198 731 q0 -16 10 -16q39 0 78 59.5t53 140.5q-141 -127 -141 -184zM1499 1094q166 148 166 209q0 12 -12 12q-51 0 -96.5 -68.5t-57.5 -152.5z" />
<glyph unicode="N" horiz-adv-x="1851" d="M47 201q0 129 112.5 236.5t291.5 107.5q113 0 153 -68q180 133 418 133q23 0 22.5 -16t-22.5 -16q-242 0 -408 -123q10 -31 11 -56q0 -74 -45 -141.5t-96.5 -67.5t-51.5 52q0 41 37 99t102 114q-41 55 -145 55q-143 0 -241.5 -95.5t-98.5 -207t91 -183t261 -71.5 t335 69.5t314.5 184.5t297 256t285.5 292.5t263 284.5q291 313 463 398q4 2 8 2q18 0 19 -25q0 -10 -23 -29q-61 -51 -100 -90q-84 -104 -173 -258.5t-134 -246.5q-82 -168 -179.5 -383t-97.5 -222.5t4 -7.5q20 18 144.5 170t274 312.5t340 331.5t408.5 281.5t410 110.5 q221 0 221 -133q0 -94 -106.5 -219t-265 -215t-291.5 -90q-70 0 -105.5 33t-35.5 84q0 100 105.5 194.5t262.5 94.5q23 0 29 -15q0 -10 -11.5 -18t-25.5 -8q-121 0 -221 -78t-100 -154q0 -90 156.5 -90t358 165t201.5 290q0 114 -197 114h-3q-154 0 -329 -80.5 t-319.5 -192.5t-317.5 -285t-279.5 -299t-249 -298t-174 -208.5t-47 -36.5t-15.5 14t29.5 71.5t66.5 127.5q39 72 125 269t135.5 302.5t83 166t78.5 142.5q78 137 182 260q-127 -109 -314 -310.5t-350 -372.5t-351.5 -339t-390 -266t-394 -98t-292 83t-99.5 212zM358 993 q41 59 113 127t148.5 117t198.5 90t251 41q184 0 270 -103.5t86 -252.5v-19l78 68q6 113 72.5 210t163.5 97q31 0 31 -40t-60.5 -107.5t-171.5 -165.5v-11q0 -120 90 -120h2q66 0 105 34q14 12 22 13t8 -11t-8 -15t-19.5 -12t-23.5 -18q-34 -22 -89 -22h-5q-106 0 -117 131 l-82 -72q-12 -113 -64 -195.5t-118 -82.5q-43 0 -43 43q0 74 193 244q2 14 2 40q0 139 -87 234.5t-282 95.5q-96 0 -211 -37q-221 -68 -383 -258q-12 -12 -25 -28q-23 -33 -30 -33q-14 8 -15 18zM481 274.5q0 -22.5 15 -22.5q30 0 62 46t32 81t-6 49q-49 -43 -76 -87 t-27 -66.5zM1241 731q0 -16 10 -16q39 0 78 59.5t53 140.5q-141 -127 -141 -184zM1542 1094q166 148 166 209q0 12 -12 12q-51 0 -96.5 -68.5t-57.5 -152.5z" />
<glyph unicode="O" horiz-adv-x="1216" d="M74 220q0 134 87 314.5t216 338t295 272.5t309 131q14 0 14 -11.5t-20 -13.5q-166 -20 -364.5 -196t-335 -409.5t-136.5 -409.5q0 -258 310 -259q172 0 378 134q-133 37 -133 200q0 70 25 142q-41 -10 -76 -11q-127 0 -127 111q0 88 82 224t202 260t273.5 214t282.5 90 q241 0 241 -215q0 -207 -200.5 -500.5t-474.5 -488.5h26q92 0 235.5 68t262.5 207q20 20 27.5 20t7.5 -11t-25 -36q-270 -283 -549 -283q-25 0 -35 2q-252 -163 -472 -163h-3q-166 0 -244.5 72.5t-78.5 206.5zM563 580q0 -102 125 -103q18 0 43 6q39 96 104.5 163t131.5 67 q33 0 33 -34t-70 -103.5t-160 -106.5q-29 -74 -29 -143q0 -150 133 -183q262 184 464 480t202 493q0 190 -207 191q-109 0 -248 -83t-251.5 -198t-191.5 -239.5t-79 -206.5zM782 504q59 29 111.5 74.5t52.5 68.5q0 12 -25.5 12t-65.5 -44t-73 -111z" />
<glyph unicode="P" horiz-adv-x="1464" d="M29 218q0 132 116.5 243.5t292.5 111.5q141 0 178 -98q195 121 408 121q27 -6 27 -21q0 -6 -11 -6q-223 0 -415 -123q2 -8 2 -28q0 -74 -45 -140.5t-104.5 -66.5t-59.5 45q0 39 46 94.5t122 106.5q-37 92 -169 92t-224.5 -101.5t-92.5 -222.5t93.5 -199.5t259 -78.5 t301 48t263.5 144.5t231.5 195.5t230.5 243q-68 4 -106 24.5t-38 47t42 45t98.5 18.5t113.5 -8q18 20 84 97t90.5 104.5t81 90t90.5 97.5q115 115 172 163q-133 92 -383 93q-188 0 -358 -62q31 -49 31 -79.5t-2 -39.5q8 2 26 2q131 0 131 -79q0 -66 -81.5 -158t-202.5 -162 t-209 -70t-129 37t-41 99q0 109 115.5 242.5t310.5 215.5q-100 115 -309 115q-141 0 -265.5 -44t-199.5 -107q-160 -131 -217 -236l-23 -45q-10 -16 -22.5 -16t-12.5 22q29 66 98.5 152t147.5 145t214 108.5t294 49.5q223 0 330 -129q194 72 425 72q2 -1 3 -1q233 0 370 -90 q244 195 471 215q18 0 23 -14q0 -18 -39 -25q-207 -25 -424 -200q94 -80 94 -197t-105.5 -237.5t-283.5 -190.5q98 -16 209 -16q20 0 21 -11q0 -16 -43 -16q-143 0 -246 23q-135 -43 -285 -45q-129 -147 -237.5 -252t-245.5 -207q-279 -203 -608 -203q-209 0 -314.5 85 t-105.5 217zM461 268q0 -23 35.5 -22.5t67.5 48.5t32 107q0 16 -2 25q-133 -99 -133 -158zM938 850q0 -113 130 -113t278.5 126t148.5 216q0 62 -88 62l-14 -2q-14 -86 -67.5 -143.5t-131.5 -57.5q-33 0 -33 38t60.5 102.5t142.5 84.5v11q0 47 -33 100q-180 -76 -286.5 -200 t-106.5 -224zM1212 1011.5q0 -20.5 13 -20.5q51 0 88 41t47 103q-60 -15 -104 -59t-44 -64.5zM1407 664q0 -16 26.5 -32t71.5 -24l64 74q-57 8 -90 8q-72 0 -72 -26zM1565 606q103 0 209 27l-150 39zM1645 696l192 -43q170 59 273.5 176t103.5 224.5t-76 181.5 q-84 -74 -134 -128t-76.5 -82t-74 -83t-67 -76.5t-73.5 -87.5t-68 -82z" />
<glyph unicode="Q" horiz-adv-x="1193" d="M-33 -12q0 25 47 62.5t125 72.5q-45 70 -45 170q0 174 120 390t325.5 398.5t427.5 245.5q8 2 18 2t10 -12q0 -8 -22 -14q-199 -53 -390.5 -228.5t-307 -387.5t-115.5 -380q0 -98 41 -160q141 49 284 64q146 115 203 197q10 14 27.5 14t17.5 -19q0 -12 -57.5 -70.5 t-132.5 -119.5q12 2 39 2q156 0 272 -53q285 176 514 492.5t229 525.5q0 186 -204 186q-141 0 -285.5 -73.5t-246 -179t-166 -219.5t-64.5 -196q0 -115 115 -115q1 0 2 1q116 0 232 86t182.5 189.5t66.5 157.5t-41 54q-45 0 -103 -72q-18 -25 -26 -24q-12 4 -12 12 q0 23 59 73t119.5 50t60.5 -57.5t-49 -141.5t-126 -164.5t-184.5 -138t-207.5 -57.5q-152 0 -152 133q0 90 73 213t187.5 234.5t278.5 189.5t326 78q229 0 229 -207q0 -219 -234.5 -540.5t-537.5 -506.5q121 -70 121 -188q0 -55 -30 -113.5t-68 -96.5t-69.5 -61.5 t-39.5 -25.5q-10 0 -10 12.5t12 20.5q74 45 115 114.5t41 129.5q0 119 -111 186q-221 -125 -414 -125q-102 0 -176 29q-147 -72 -220 -72t-73 33zM27 14q0 -18 53 -18t149 45q-51 29 -79 65q-123 -57 -123 -92zM213 131q29 -37 72 -59q84 49 170 114q-127 -14 -242 -55z M315 57q62 -24 156 -24q158 0 346 108q-106 49 -272 49q-23 0 -35 -2q-106 -80 -195 -131z" />
<glyph unicode="R" horiz-adv-x="2052" d="M6 198q0 132 117 243.5t293 111.5q141 0 178 -98q193 120 404 120h3q27 -6 27 -20q0 -6 -10 -6q-223 0 -416 -123q2 -8 2 -29q0 -74 -45 -140.5t-104.5 -66.5t-59.5 46q0 39 46 94t122 106q-37 92 -169 92t-224 -101t-92 -222t93 -200t305 -79t425 132t436 368 q-100 23 -100 74q0 25 34 42t85 17t92 -10q47 53 202.5 234.5t258 289t207.5 191.5q-129 86 -345.5 86t-386.5 -62q31 -49 31 -79.5t-2 -39.5q8 2 27 2q131 0 131 -79q0 -66 -82 -158t-203 -162t-209 -70t-129 37t-41 99q0 109 116 242.5t310 215.5q-100 115 -309 115 q-141 0 -265 -44t-202 -107q-158 -131 -213 -236l-25 -45q-10 -16 -22 -16t-12 22q29 66 98.5 152t147 145t214 108.5t293.5 49.5q223 0 330 -129q194 72 422 72q2 -1 3 -1q230 0 366 -86q227 173 438 191q18 0 22 -14q0 -18 -39 -25q-199 -27 -389 -172q113 -86 113 -227 q0 -188 -189.5 -369.5t-480.5 -239.5q53 -51 113.5 -138t111 -161.5t111.5 -146.5q135 -154 336 -154q66 0 103.5 14.5t60.5 24.5q53 25 64.5 25t11.5 -8q0 -14 -37 -36t-70 -32q-119 -33 -168 -33q-203 0 -346 168q-66 76 -117 155t-111.5 171t-111.5 143q-80 -12 -166 -12 h-24q-231 -248 -463 -386t-506 -138q-209 0 -314.5 85t-105.5 217zM438 248q0 -23 36 -23t67.5 48.5t31.5 107.5q0 16 -2 25q-133 -99 -133 -158zM956 850q0 -113 130.5 -113t278.5 126t148 216q0 62 -88 62l-14 -2q-14 -86 -67.5 -143.5t-131.5 -57.5q-33 0 -32.5 38 t60.5 102.5t142 84.5v11q0 47 -32 100q-180 -76 -287 -200t-107 -224zM1232 1011.5q0 -20.5 11 -20.5q51 0 88 41t47 103q-59 -15 -102.5 -59t-43.5 -64.5zM1305 496q0 -29 59 -39l66 69q-37 10 -63 10.5t-44 -13t-18 -27.5zM1421 449h41q66 0 99 4q-39 37 -84 57zM1497 532 q63 -25 117 -71q176 31 323.5 126t227.5 216t80 238.5t-97 199.5q-100 -82 -199.5 -187.5t-251 -285.5t-200.5 -236z" />
<glyph unicode="S" horiz-adv-x="1388" d="M66 239q0 128 99 221t269 93q113 0 172 -88q160 115 383 115q55 0 73.5 -13.5t18.5 -25t-16 -11.5q-6 0 -24.5 9.5t-73.5 9.5q-211 0 -349 -107q17 -38 17 -83t-36 -83t-103 -38q-33 0 -33 34q0 74 108 166q-53 84 -169.5 84t-195.5 -81t-79 -194.5t103.5 -199.5 t304.5 -86q326 0 606 215q94 74 162.5 139.5t152.5 163.5q86 104 179.5 228t96.5 128.5l7 10.5t8 10q-133 36 -162 145l-143 -49q16 -70 16 -143.5t-35 -190.5q-2 -14 -13 -26t-18.5 -12t-7.5 10l11 43q31 98 31 171t-17 140q-221 -55 -483 -55t-421 100.5t-159 227.5 q0 98 95.5 164.5t269.5 66.5q233 0 445 -122t278 -341q70 18 145 51v15q0 82 60.5 145.5t147.5 63.5t87 -39t-62.5 -92.5t-173.5 -104.5q29 -100 131 -139q100 125 180.5 208t180.5 164q201 162 444 162q197 0 197 -135t-165 -287.5t-339 -152.5q-86 0 -90 69 q-166 -69 -311 -69h-4q-41 0 -60 2q-248 -336 -383 -477q-424 -444 -930 -445q-207 0 -315 93.5t-108 221.5zM397 1239q0 -119 161 -219t396.5 -100t446.5 55q-45 139 -164 244q-224 198 -525 198h-3q-154 0 -233 -50t-79 -128zM510 295q0 -12 8 -12h2q76 0 76 77 q0 25 -12 54q-74 -72 -74 -119zM1632 1059q184 88 185 141q1 20 -55 20q-1 0 -2 1q-55 1 -91 -41q-37 -42 -37 -103v-18zM1821 870q14 -2 45 -2q154 0 313 80q12 70 73.5 132.5t126 62.5t64.5 -31t-61.5 -80t-157.5 -96q10 -57 88 -57q123 0 264.5 133t141.5 245 q0 123 -199 123q-201 0 -377 -153q-88 -78 -157.5 -157t-163.5 -200zM2226 973q141 80 141 119q0 12 -30.5 12t-67.5 -42t-43 -89z" />
<glyph unicode="T" horiz-adv-x="1421" d="M31 206q0 132 124 244.5t314 112.5q119 0 158 -84q174 127 334 127q51 0 102 -18q10 -4 10 -18.5t-18 -14.5q-8 0 -38 9t-61 9q-147 0 -321 -120q6 -23 6 -45q0 -76 -44 -139.5t-103.5 -63.5t-59.5 43q0 35 42 91t112 112q-37 79 -131 79h-2q-160 0 -262.5 -97 t-102.5 -216t99.5 -197.5t284.5 -78.5t351 72.5t293 186t263.5 264t246 293t244.5 288t256 231.5q-254 27 -409.5 27t-346.5 -60q14 -41 14 -74.5t-2 -44.5q53 14 97 15q92 0 92 -61.5t-78 -150.5t-199.5 -159t-205.5 -70t-123 26t-47.5 50.5t-8.5 50.5q0 283 400 428 q-70 133 -291 133q-205 0 -367 -92q-150 -86 -239 -188q-84 -96 -117 -156l-14 -24q-10 -16 -22.5 -16.5t-12.5 22.5q20 51 102 151.5t165 164t222.5 115.5t296.5 52q248 0 326 -147q230 73 455 73h6q137 0 372 -18q150 92 310 113q20 0 20 -6v-7q0 -10 -8 -12t-12 -2 q-14 -4 -29 -8q-104 -29 -201 -86q245 -17 353 -17h6q104 0 214 20q112 20 165 42t57 22q31 0 31 -20q0 -16 -81 -43t-225.5 -48.5t-269.5 -21.5t-323 21q-215 -147 -449 -443q-98 -125 -207.5 -259t-224.5 -249.5t-242 -209.5q-272 -203 -616 -203q-213 0 -321.5 84 t-108.5 216zM481 281q0 -27 39 -27t61.5 37t22.5 73.5t-6 61.5q-117 -92 -117 -145zM971 852q0 -57 35.5 -88t83.5 -31q86 0 189 62.5t170 141.5t67 128q0 43 -60 43q-31 0 -78 -14q-16 -74 -62 -126.5t-92 -52.5t-46 31q0 35 44.5 84t114.5 78q2 10 2 42t-16 77 q-352 -133 -352 -375zM1223 977q0 -12 22.5 -12t48 31.5t37.5 78.5q-45 -23 -76.5 -52.5t-31.5 -45.5z" />
<glyph unicode="U" horiz-adv-x="1409" d="M-375 995q0 10 8 25q90 129 319.5 256t446.5 127q166 0 232 -105q161 70 319 70q242 0 242 -174q0 -201 -139 -391q-96 -129 -293 -322q-76 -74 -137 -141q-141 -152 -142 -264q0 -31 22.5 -51.5t57.5 -20.5q158 0 590 350q141 252 370.5 512t311.5 260q31 0 31 -32 q0 -88 -199 -306.5t-465 -433.5q-94 -172 -94 -266q0 -135 108 -135q92 0 230 104q14 10 22.5 10.5t9.5 -13t-20 -27.5q-166 -109 -280 -109q-59 0 -93 46t-34 119t67 208q-422 -328 -610 -328q-35 0 -64.5 27.5t-29.5 68.5q0 141 256 398q106 106 213.5 218.5t182.5 246 t75 256.5q0 153 -210 153h-3q-141 0 -283 -59q23 -45 23 -83t-2 -46q37 14 81 14q123 0 123 -106q0 -92 -85 -220.5t-221 -226.5t-259 -98q-225 0 -225 172q0 141 150.5 322.5t365.5 283.5q-59 90 -209 90q-199 0 -429 -130t-288 -240q-14 -25 -28.5 -25t-14.5 16zM139 705 q0 -72 49.5 -115t149.5 -43q156 0 316.5 177t160.5 310q0 94 -102 94q-20 0 -49 -8q-13 -88 -59 -154.5t-90 -66.5t-44 40t46 99.5t116 91.5v19q0 63 -23 108q-199 -90 -335 -255.5t-136 -296.5zM514 959.5q0 -25.5 14 -25.5q33 0 64 52t39 122q-51 -27 -84 -75t-33 -73.5z M1243 432q221 190 379 365.5t158 242.5q-1 17 -15 17q-39 0 -216 -208t-306 -417z" />
<glyph unicode="V" horiz-adv-x="866" d="M-541 1233q0 98 96.5 161.5t307.5 63.5t405.5 -133t278.5 -340q164 61 309 141q90 180 179 278.5t192 98.5q14 0 25.5 -12t11.5 -25q0 -66 -99.5 -161t-261.5 -189q-59 -123 -169.5 -393t-200 -455.5t-166.5 -263.5l-5 -6h9q115 51 291 223t428.5 451.5t382.5 406.5 q-43 -14 -130 -35q-16 0 -16 11q0 20 43 28q90 18 146 39q342 328 509 328q59 0 60 -27q0 -47 -149.5 -140t-358.5 -169q-109 -106 -451 -465.5t-540.5 -539t-280.5 -179.5q-4 0 -14 6.5t-10 13.5t47 60q90 113 175 293t182 422t149 352q-133 -70 -275 -121q41 -111 41 -229 q0 -20 -2 -43l-2 -22q-2 -20 -14.5 -20.5t-12.5 22.5q0 145 -49 280q-252 -86 -489.5 -86t-404.5 119t-167 256zM-487 1243q0 -127 157.5 -239.5t378.5 -112.5t461 82q-88 211 -278.5 334t-409.5 123q-156 0 -232.5 -52.5t-76.5 -134.5zM928 1167q123 76 195.5 149t72.5 124 q0 14 -18 14q-102 0 -250 -287zM1626 1163q147 59 258 129t111 101q0 16 -37 16q-76 0 -332 -246z" />
<glyph unicode="W" horiz-adv-x="1728" d="M-352 1002.5q0 13.5 45 64.5t129 118.5t174 108.5q205 92 398.5 92t260.5 -106q154 63 273 63t195.5 -51t76.5 -160.5t-70.5 -239.5t-172 -242.5t-203.5 -219.5q-242 -254 -242 -367q0 -37 26.5 -56t63.5 -19q133 0 481 280q94 197 262 391.5t250 194.5q39 0 39 -31 q0 -66 -151.5 -230.5t-354.5 -328.5q-51 -119 -51 -186q0 -98 101 -98q139 0 399 260q203 203 435.5 464t328.5 363l-125 -39q-4 -2 -15.5 -2t-11.5 9t39 19.5t144 45.5q353 368 511 368h1q43 0 43 -38q-23 -164 -484 -328q-66 -72 -211 -233.5t-239.5 -264t-231.5 -241 t-234 -219.5t-201.5 -140t-176.5 -59q-123 0 -123 116q0 59 33 148q-340 -260 -508 -260q-113 0 -113 90q0 117 246 379q102 111 205.5 225.5t175.5 237.5t72 218t-52.5 156.5t-167 61.5t-251.5 -55q20 -41 20 -82t-6 -68q45 12 70 12q111 0 111 -88q1 -89 -103 -224 q-102 -134 -260 -238.5t-291 -104.5q-158 0 -158 135q0 147 170 351t404 311q-61 90 -250 90q-311 0 -557 -209q-94 -80 -135 -143q-9 -15 -21 -15t-12 13.5zM102 635q0 -129 148 -129q104 0 239.5 97t227.5 222t92 203q0 72 -86 72q-18 0 -47 -8q-21 -82 -68 -146.5 t-88 -64.5t-41 35.5t50.5 92t115.5 89.5q8 27 8 68.5t-20 80.5q-217 -98 -374 -286.5t-157 -325.5zM530 945.5q0 -19.5 15.5 -19.5t46.5 45t47 102q-45 -26 -77 -67t-32 -60.5zM1163 334q170 143 289 273t119 177q0 20 -27 21q-47 0 -171 -152.5t-210 -318.5zM2476 1137 q377 141 377 266q0 27 -27 27q-78 0 -350 -293z" />
<glyph unicode="X" horiz-adv-x="1452" d="M-303 1036q0 10 8 25q90 129 319.5 256t446.5 127q168 0 231 -107q176 88 306 88q262 0 262 -284q0 -80 -33 -166t-110.5 -229.5t-100.5 -190.5q70 59 299 263t341 295t243 155.5t210 88t96 23.5t17 -6q0 -12 -18 -18q-272 -66 -545 -289q-94 -80 -324.5 -288 t-357.5 -316q-61 -154 -61 -283q0 -78 47 -140.5t145 -62.5q162 0 357 166q33 27 39 32t15 5t9 -9t-16 -26q-222 -205 -434 -205h-2q-212 0 -212 201q0 127 58 279q-580 -477 -952 -477q-74 0 -140.5 18.5t-66.5 42.5q0 12 12 12q39 -49 223.5 -49t422 142.5t538.5 396.5 q20 47 101 204.5t114 253t33 201t-60.5 165t-172.5 59.5t-269 -76q23 -44 23 -81q0 -38 -3 -48q37 14 82 14q123 0 123 -106q0 -92 -85 -220.5t-221 -226.5t-259 -98q-225 0 -225 172q0 145 154.5 318t365.5 284q-63 94 -213 94q-199 0 -429.5 -130t-287.5 -241 q-14 -25 -28.5 -24.5t-14.5 16.5zM211 745q0 -72 49 -114.5t150 -42.5q156 0 316.5 177t160.5 310q0 94 -103 94q-20 0 -49 -8q-12 -88 -58 -154.5t-90 -66.5t-44 40t46 99.5t116 91.5v19q0 61 -23 108q-190 -100 -330.5 -255.5t-140.5 -297.5zM586 1000.5q0 -25.5 14 -25.5 q33 0 63.5 52t38.5 122q-51 -27 -83.5 -75t-32.5 -73.5z" />
<glyph unicode="Y" horiz-adv-x="1220" d="M-365 -668q0 88 103.5 192.5t292 183.5t395.5 79q121 0 201 -20q139 160 305 368q-262 -172 -402 -172q-35 0 -66.5 27.5t-31.5 68.5q0 139 258 394q106 104 214 215.5t183.5 246t75.5 263.5q0 153 -210 153h-3q-141 0 -282 -59q23 -44 23 -81q0 -38 -3 -46q53 12 82 12 q123 0 123 -106q0 -92 -85 -220.5t-221 -226.5t-259 -98q-225 0 -226 172q0 141 150.5 322.5t365.5 283.5q-59 90 -208 90q-199 0 -429.5 -130t-287.5 -240q-14 -25 -28.5 -25t-14.5 16q0 10 8 25q90 129 319.5 256t446.5 127q166 0 231 -105q162 70 320 70q244 0 244 -174 q0 -137 -74 -278.5t-178.5 -255t-209 -217t-178 -200t-73.5 -167.5q0 -31 22.5 -51.5t57.5 -20.5q119 0 397 199q39 51 110.5 143t110.5 143.5t101.5 130t100.5 123.5t90 103.5t88 91.5t75 66q70 59 129 59q31 0 31 -33q0 -100 -235.5 -347t-518.5 -454q-213 -280 -391 -477 q127 -45 168 -135q184 131 456 131q92 0 172 -29q12 -6 12.5 -19t-18.5 -13q-2 0 -19.5 7t-35.5 13q-59 18 -125 19q-262 0 -432 -136q8 -25 8 -76t-40 -105t-87 -54t-47 45q0 90 121 190q-43 88 -158 134q-477 -520 -792 -521q-111 0 -166.5 36t-55.5 93zM-287 -655 q0 -102 176 -103q268 0 713 498q-80 22 -186 22q-174 0 -343 -73.5t-264.5 -170t-95.5 -173.5zM164 705q0 -72 49 -115t149 -43q156 0 317 177t161 310q0 94 -103 94q-20 0 -49 -8q-12 -88 -58 -154.5t-93.5 -66.5t-47.5 44t47.5 101.5t120.5 88.5v16q0 63 -22 108 q-199 -90 -335 -255.5t-136 -296.5zM539 959.5q0 -25.5 14 -25.5q33 0 63.5 52t38.5 122q-51 -27 -83.5 -75t-32.5 -73.5zM731 -575q0 -23 26.5 -23t48 29.5t21.5 63.5t-10 69q-86 -84 -86 -139zM1130 315q238 188 421.5 386t183.5 276q0 16 -14.5 16t-35 -10t-46 -33.5 t-51 -49.5t-61.5 -70t-65.5 -80.5t-76 -97t-78.5 -103.5q-119 -156 -177 -234z" />
<glyph unicode="Z" horiz-adv-x="1458" d="M-10 942l8 27q70 193 253 321.5t437 128.5q176 0 268 -88q197 86 478 86q117 0 361.5 -39t334.5 -41q180 100 364 101q80 0 80 -27q0 -23 -53 -48.5t-162.5 -47t-240.5 -21.5q-176 -115 -387 -383q-221 -279 -400 -471q-102 -109 -238.5 -209t-281.5 -161q61 -25 179 -79 t190.5 -85t177 -57.5t194.5 -26.5q301 0 486 121q8 6 14 6t6 -12.5t-14 -22.5q-209 -135 -565 -135q-84 0 -196 39t-285 118.5t-246 110.5q-219 -80 -459 -80q-111 0 -174.5 24.5t-63.5 61.5q0 43 92.5 77t258 34t366.5 -78q152 68 298.5 188.5t267 259t233.5 277.5 q283 346 489 485q-170 6 -371.5 44t-340.5 38q-211 0 -367 -78q39 -51 45 -124q66 36 137 36h4q104 0 105 -77q0 -100 -146.5 -226.5t-308.5 -126.5q-70 0 -111.5 52.5t-41.5 137.5t62 177t187 160q-79 73 -221 73h-4q-238 0 -414 -111.5t-243 -305.5q-2 -4 -4 -11.5 t-2 -9.5q-8 -14 -21.5 -14t-13.5 12zM125 51q0 -55 206 -55q2 0 3 -1q204 0 379 66q-201 78 -317.5 78t-193.5 -27.5t-77 -60.5zM725 972.5q0 -69.5 35 -108.5t98 -39q125 0 240.5 102.5t115.5 186.5q0 63 -81 64q-47 0 -105 -33q-2 -68 -33.5 -120t-70.5 -52t-39 30.5 t28.5 71.5t75.5 76q-8 78 -47 127q-104 -64 -160.5 -150t-56.5 -155.5zM924 1036q0 -12 14 -12q43 0 51 94q-65 -51 -65 -82zM2195 1337q183 4 287 41q41 14 41 23.5t-37 9.5q-147 0 -291 -74z" />
<glyph unicode="[" horiz-adv-x="526" d="M12 -430l690 1968q2 12 11.5 20.5t17.5 8.5h119q27 0 27 -9.5t-13.5 -17.5t-25.5 -8h-101l-680 -1946h107q20 0 20 -10t-11 -18.5t-21 -8.5h-125q-14 0 -15 21z" />
<glyph unicode="\" horiz-adv-x="274" d="M-725 -570.5q0 13.5 31 13.5h10q96 0 201 78q59 45 106 82t119 115.5t114 124.5t124 149q115 143 241 305h-121q-18 0 -18 12q0 18 35 19h129q258 319 440 488t330 169q90 1 90 -65q0 -33 -43 -54q-53 0 -53 23q0 12 17 27.5t17 25.5t-54 10t-134 -47t-178 -147 q-164 -164 -377 -428h133q25 0 25 -13q0 -16 -37 -20h-148q-92 -115 -127.5 -160t-122.5 -151.5t-132.5 -153.5t-122 -129t-128 -121t-114.5 -84q-115 -82 -225 -82q-27 0 -27 13.5z" />
<glyph unicode="]" horiz-adv-x="847" d="M180 -439.5q0 9.5 13.5 17.5t25.5 8h100l680 1946h-106q-20 0 -20.5 10t11 18.5t21.5 8.5h125q14 0 14 -21l-690 -1968q-2 -12 -11 -20.5t-17 -8.5h-119q-27 0 -27 9.5z" />
<glyph unicode="^" d="M182.5 167q-0.5 9 44.5 17.5t79 46t49.5 37.5t20.5 -11t7 -28q6 -39 61 -63q6 -2 6.5 -6t-7 -10.5t-15.5 -6.5q-45 0 -82 70q-81 -55 -149 -55q-14 0 -14.5 9z" />
<glyph unicode="_" horiz-adv-x="890" d="M145 -66l2 9q18 20 41 20h627q14 -2 14 -10.5t-10 -18.5l-24 -10h-631q-18 0 -19 10z" />
<glyph unicode="`" d="M168 549q0 18 19.5 18t41.5 -22q59 -66 160 -90q27 -7 27 -13q0 -10 -15 -10q-53 0 -143 42t-90 75z" />
<glyph unicode="a" d="M39 70q0 86 102.5 179t237.5 93q72 0 119 -51q2 0 32 31q14 23 33 22.5t19 -18.5l-9 -19q-6 -10 -80.5 -100t-86 -106.5t-11.5 -49.5q0 -23 29 -22q59 0 168 98q6 8 13 8t7 -10q0 -25 -83 -78t-148 -53q-45 0 -45 47q0 16 -5 16t-7 -2q-101 -68 -192 -68l-2 1 q-92 0 -91 82zM109 86q0 -61 59 -61q80 0 178 82.5t115 142.5q0 25 -31 42t-70 17q-94 0 -172.5 -81t-78.5 -142z" />
<glyph unicode="b" horiz-adv-x="509" d="M-29 7q0 13 23 38q317 367 418 506q178 207 322.5 320.5t262.5 113.5q90 0 90 -65q0 -31 -43 -54q-53 0 -53 23q0 12 17.5 27.5t17.5 25.5t-43 10q-100 0 -228 -107.5t-298 -305.5q-4 -2 -181 -217q66 38 146 38h4q125 0 125 -96q0 -86 -104.5 -181t-221 -95t-159.5 80 q-53 -74 -74 -74t-21 13zM88 92q36 -67 153 -67h3q84 0 167 73.5t83 141.5q0 77 -118 77h-3q-48 0 -142 -51z" />
<glyph unicode="c" horiz-adv-x="440" d="M145.5 257q106.5 93 222 93t115.5 -76q0 -47 -47 -83.5t-85 -36.5t-55 15t-17 28.5t15 31t25 19.5q18 0 19 -17q0 -4 -4 -9t-4 -27q0 -16 23.5 -16.5t49 23t25.5 56.5q0 70 -78 70t-162 -83t-84 -157q0 -82 117 -82q166 0 283 121q6 8 13 8t7 -11t-32.5 -44t-115 -68 t-186.5 -35q-151 0 -151 98q0 89 106.5 182z" />
<glyph unicode="d" horiz-adv-x="497" d="M45 78q0 94 87 184t222 90q37 0 67 -14t42 -31l10 -14q0 -25 -20 -25q-12 0 -19 17q-42 34 -95 34h-3q-96 0 -168 -77.5t-72 -149.5t70 -72q123 0 236.5 129.5t187.5 317.5q-96 29 -164 115t-68 180t54.5 190.5t146.5 96.5q68 0 114 -68t46 -184.5t-70 -309.5 q16 -4 49 -4q137 0 244 113q27 27 36 27t9 -13.5t-16 -29.5q-121 -125 -301 -125q-23 0 -33 2q-82 -201 -214 -337t-288 -136q-90 0 -90 94zM401 797q-1 -91 55 -176q56 -86 148 -121q63 184 64 315q0 195 -125 195q-53 0 -88 -47q-54 -73 -54 -166z" />
<glyph unicode="e" horiz-adv-x="382" d="M47 92q0 84 85 170t183 86q72 0 72 -63q0 -123 -274 -213q16 -47 90 -47q125 0 237 102q6 8 13.5 8t7.5 -13t-37 -44t-104.5 -59.5t-133.5 -28.5q-139 0 -139 102zM106 92q229 88 230 176q0 45 -56.5 45t-115 -69.5t-58.5 -137.5v-14z" />
<glyph unicode="f" horiz-adv-x="274" d="M-809 -508q0 98 150.5 213t328.5 115q84 0 137 -27q92 102 414 504h-121q-18 0 -18 12q0 18 35 19h129q258 319 440 488t330 169h3q87 0 87 -65q0 -33 -43 -54q-53 0 -53 23q0 12 17 27.5t17 25.5t-54 10t-134 -47t-178 -147q-164 -164 -377 -428h133q25 0 25 -13 q0 -16 -37 -20h-148q-328 -406 -436 -522q47 -37 56 -99q76 31 128 31t97 -20.5t45 -51.5q0 -12 -6 -14h-4q-4 0 -11.5 9.5t-19.5 21.5q-29 29 -96.5 29t-132.5 -27q-2 -70 -43 -119t-85.5 -49t-44.5 36t41 74.5t103 67.5q-8 59 -45 90q-319 -338 -518 -338q-111 0 -111 76z M-748 -504q1 -53 64 -53q174 0 473 330q-49 22 -132 22h-7q-145 0 -271.5 -107.5t-126.5 -191.5zM-233 -463q0 -8 6 -8q39 2 65.5 36t26.5 73v4q-98 -45 -98 -105z" />
<glyph unicode="g" horiz-adv-x="466" d="M-253 -265q185 120 405 122l149 192q-78 -47 -158 -47q-116 0 -116 90v2q0 86 95 174t222 88t145 -77q23 25 31 43q14 23 31.5 22.5t17.5 -12.5v-4q0 -27 -366 -473q90 -12 139 -64.5t49 -116t-45 -107.5t-115.5 -44t-70.5 18q0 8 8 8q29 -6 45 -6q68 0 104.5 34t36.5 88 t-46 101.5t-128 59.5q-106 -121 -172.5 -187.5t-161 -126t-176.5 -59.5q-108 0 -108 65q0 97 185 217zM-373 -475q1 -47 60 -47q154 0 442 352h-2q-197 0 -348.5 -109.5t-151.5 -195.5zM86 102q0 -65 72 -65h2q68 0 159 55l31 19l111 139q-12 74 -116.5 74t-181.5 -76 t-77 -146z" />
<glyph unicode="h" horiz-adv-x="501" d="M-10 15.5q0 17.5 16 29.5q211 256 416 483q428 469 543 469q12 0 24 -10t12 -24q0 -59 -168.5 -202t-355.5 -235q-82 -92 -194 -223q96 59 161 59q31 0 50.5 -14t27.5 -43q0 -47 -80 -134t-80 -120q0 -23 29 -22q59 0 168 98q6 8 13.5 8t7.5 -10q0 -25 -83 -78t-149 -53 q-45 0 -45 45t78 132t78 115t-53 28h-4q-56 -1 -169 -68q-172 -197 -184 -209t-20 -21q-17 -18 -25 -18q-14 0 -14 17.5zM520 575q156 84 287 202t131 163q0 14 -16 14q-66 0 -402 -379z" />
<glyph unicode="i" horiz-adv-x="206" d="M6 41q0 -47 45 -47q66 0 149 53t83 78q0 10 -7.5 10t-13.5 -8q-109 -98 -168 -98q-28 -1 -28 22q0 33 53 90l153 174q12 12 12.5 20.5t-7 14.5t-18.5 6t-19.5 -7t-32 -35.5t-64.5 -77t-54 -64.5t-29.5 -35.5t-26.5 -32.5q-27 -37 -27 -63zM354 489q0 19 18.5 40.5 t34 21.5t24.5 -9.5t9 -27.5t-21.5 -34.5t-35.5 -16.5q-29 0 -29 26z" />
<glyph unicode="j" horiz-adv-x="202" d="M-786 -489q0 94 134 192t347 98q51 0 72 -4q86 94 221 255t164.5 190.5t56.5 64.5q51 68 69.5 68t18.5 -17l-10 -20q-66 -74 -226.5 -264.5t-248.5 -286.5q100 -29 106 -111q47 12 96 13q88 0 105 -84q0 -16 -15 -17q-6 0 -14 15.5t-13 23.5t-16 19q-23 23 -58 23 q-1 0 -1 -1q-37 0 -84 -10q-4 -68 -59.5 -129t-114.5 -61q-35 0 -35 30q0 37 47 87t121 79q-4 72 -86 103q-305 -330 -491 -330q-86 0 -86 74zM-721 -473q0 -55 59 -55q125 0 408 305q-36 4 -65 4q-176 0 -289 -87t-113 -167zM-250 -469q0 -20 28.5 -20t61.5 41.5t37 91.5 q-55 -23 -91 -55.5t-36 -57.5zM332 489q0 19 18.5 40.5t33.5 21.5t24.5 -9.5t9.5 -27.5t-21.5 -34.5t-36.5 -16.5q-29 0 -28 26z" />
<glyph unicode="k" horiz-adv-x="520" d="M-35 18q0 15 12 27q145 184 358.5 439t309.5 376q18 18 18.5 26.5t-4 8.5t-15.5 -7t-64.5 -23.5t-108.5 -16.5t-55 24q0 6 5 11.5t8 5.5t24.5 -9.5t49 -9.5t106.5 29t157 92q20 16 31 17q20 0 20 -17l-10 -20q-8 -8 -244.5 -288t-339.5 -407q143 74 218 74t75 -67 q0 -39 -36 -61.5t-78 -30t-77.5 -33t-35.5 -70.5q0 -63 55 -63q125 0 238 102q6 8 13 8t7 -13t-37 -44t-104.5 -59.5t-107.5 -28.5t-58.5 5t-40 26.5t-21.5 65.5t33 75t74 39q104 18 104 71q0 37 -47 37q-61 0 -204 -71q-103 -132 -143 -184q-39 -51 -62 -51q-22 1 -23 15z " />
<glyph unicode="l" horiz-adv-x="237" d="M123 242.5q100 142.5 214 283t232.5 282.5t125.5 150.5t28.5 8.5t21.5 -13v-6q0 -12 -10 -18q-90 -86 -374.5 -438.5t-284.5 -402.5t49 -50q16 0 53 10q66 27 96.5 56.5t37.5 29.5t7 -12t-36.5 -44t-92 -56.5t-100.5 -24.5q-67 0 -67 61q0 41 100 183.5z" />
<glyph unicode="m" horiz-adv-x="675" d="M-39 2q0 16 6 23.5t23.5 30t43 56t40 52t133.5 176.5q12 16 30.5 16t18.5 -20.5t-14 -34.5l2 -2q61 41 119.5 41t58.5 -43q0 -18 -8 -31q133 78 200 78q31 0 48.5 -12.5t23.5 -38.5q0 -47 -80 -134t-80 -120q0 -23 29 -23q57 0 180 111q6 8 13.5 8t7.5 -10q0 -27 -89 -85 t-155 -58q-45 0 -45 47q0 41 78 128t78 117q0 29 -50 28h-3q-54 -1 -189 -83q-141 -197 -148.5 -206t-23.5 -9t-16 16.5t18 34.5q27 37 51.5 69t38.5 51.5t27.5 35.5t19.5 25.5t11.5 15.5t6.5 11t2 9t1 11q0 23 -28 22.5t-78 -25t-70.5 -40t-93 -110.5t-95.5 -128 q-14 -16 -28.5 -16t-14.5 16z" />
<glyph unicode="n" horiz-adv-x="481" d="M-39 14q2 6 29.5 41t36.5 43l166 207q61 70 73 70q25 0 25 -21q-6 -10 -24.5 -30.5t-26.5 -34.5q115 73 186 73h2q31 0 49.5 -14t24.5 -43q0 -47 -80 -134t-80 -120q0 -23 29 -22q59 0 168 98q6 8 13 8t7 -10q0 -25 -83 -78t-148 -53q-45 0 -45 45t77.5 132t77.5 115 t-47 28h-3q-50 -1 -179 -70q-29 -27 -124 -137.5t-101 -112.5q-23 0 -23 20z" />
<glyph unicode="o" horiz-adv-x="436" d="M8 80q0 82 87 174t177 94q18 39 62.5 39t70 -25.5t25.5 -65.5t-8 -65q59 0 133 29t88 43l10 -10q0 -4 -16 -18.5t-88 -41t-135 -28.5q-33 -86 -115 -150.5t-170 -64.5q-121 0 -121 90zM78 96q0 -76 80 -76q53 0 122.5 54.5t94.5 130.5q-100 10 -107 110 q-70 -2 -130 -76.5t-60 -142.5zM315 336q0 -84 68 -100q2 10 2 41.5t-16.5 53t-35 21.5t-18.5 -16z" />
<glyph unicode="p" horiz-adv-x="411" d="M-844 -516q0 131 183.5 240.5t349.5 109.5q57 0 100 -12q170 190 386 464.5t238.5 303t41 28.5t18.5 -18q0 -10 -10 -25q-207 -248 -207 -253q8 8 55 20t72 12q63 0 63 -53t-87 -141t-87 -109.5t29 -21.5q59 0 168 98q6 8 13 8t7 -10q0 -25 -82.5 -78t-148.5 -53 q-45 0 -45 47q0 37 91 125t91 118.5t-37 30.5h-7q-59 0 -118 -32l-18 -11q-16 -18 -152.5 -186t-234.5 -279q86 -41 86 -133v-4q57 14 112 14q2 1 3 1q54 0 94 -23q41 -24 41 -59q0 -6 -5 -16.5t-17.5 -10.5t-19.5 16.5t-20 30.5q-33 39 -90 39t-98 -12q-10 -70 -64.5 -122 t-128.5 -52q-31 0 -30 24q0 33 54 83t134 79q0 86 -72 123q-348 -379 -532 -379q-119 0 -119 78zM-788 -500q0 -65 71 -65h2q150 0 484 366q-31 9 -78 9q-168 0 -323.5 -97.5t-155.5 -212.5zM-250 -472q0 -17 12 -17q43 0 77 38.5t40 90.5q-57 -23 -93 -59t-36 -53z" />
<glyph unicode="q" horiz-adv-x="483" d="M-303 -324l14 23q201 162 365 162q31 0 61 -6q29 31 76 91t72 87q-70 -23 -119 -23q-133 0 -133 110.5t98 180.5t216 70t151 -78l39 49q14 18 31.5 18t17.5 -12v-4q0 -16 -10.5 -26.5t-67.5 -79.5q-162 -195 -338 -394q70 -29 70 -86q0 -119 -140.5 -234.5t-253.5 -115.5 q-51 0 -51 35q0 29 130 171t188 212q-21 11 -52 11q-52 0 -131 -31q-127 -50 -200 -128q-12 -14 -19 -14q-14 0 -14 12zM-154 -539.5q0 -19.5 47.5 -19.5t169 95t121.5 196q0 51 -43 80q-295 -332 -295 -351.5zM90 125q0 -82 113 -82q59 0 112 39l19 12q131 135 131 164 q-12 80 -117.5 80t-181.5 -68.5t-76 -144.5z" />
<glyph unicode="r" horiz-adv-x="364" d="M-39 0q0 10 14 33l129 162q14 18 53.5 69t46.5 61.5t28.5 10.5t21.5 -8.5t-4 -12.5l-29 -41q-6 -8 -14 -16q18 4 147 74q4 2 14.5 2t10.5 -5t-3 -10.5t-22 -27.5q-37 -45 -37 -68q1 -41 48 -41q18 0 47 17q10 0 10 -7.5t-5 -11.5t-38 -14t-53 -10q-68 0 -68 43 q0 16 9 34.5t9 24.5t-4 6q-41 -14 -118 -71l-146 -183q-16 -20 -31.5 -20t-15.5 10z" />
<glyph unicode="s" horiz-adv-x="440" d="M33 80q0 61 49 100t107.5 39t58.5 -51q0 -23 -15.5 -45.5t-33 -22.5t-17.5 13.5t13.5 26t13.5 24.5q0 35 -33 35t-62.5 -30t-29.5 -70t20.5 -66.5t64.5 -26.5t75.5 38t48 92t36 109.5t59.5 93.5t87 38t73.5 -15.5t26.5 -40t-19 -47t-41.5 -22.5t-25.5 10q0 16 23 29 q12 4 12 28q0 33 -45 33t-75.5 -58t-46 -127t-66.5 -127t-137 -58q-53 0 -84 24.5t-33 48.5z" />
<glyph unicode="t" horiz-adv-x="212" d="M258 426q-88 0 -120 1t-32 12.5t35 15.5h142q152 184 178 212.5t47.5 28.5t21.5 -12v-6q0 -12 -33.5 -42t-162.5 -183h170q25 0 24 -13q0 -16 -49 -16h-170q-233 -279 -233 -340q0 -45 49 -45q16 0 53 10q66 27 96.5 56.5t37.5 29.5t7 -12t-36.5 -44t-92 -56.5 t-100.5 -24.5q-68 0 -68 68q0 70 236 360z" />
<glyph unicode="u" horiz-adv-x="466" d="M-10 39q0 41 57 117t115 136q52 52 55 53v-1q10 10 24.5 10t14.5 -13t-12.5 -25.5t-46 -50.5t-53 -60.5t-46.5 -52.5q-49 -63 -49 -93q0 -23 33 -22.5t92 39.5t102 80l43 39q86 76 117 120q18 23 37 23t19 -14q0 -12 -54 -68q-106 -113 -114 -131q-20 -47 -21 -64 q0 -33 49 -33h1q50 0 159 99q6 8 13 8t7 -10q0 -25 -82.5 -78t-148.5 -53q-45 0 -45 47q0 33 23 70v4t-3 0q-137 -117 -227 -117q-59 0 -59 41z" />
<glyph unicode="v" horiz-adv-x="389" d="M12 36q0 50 86 177t86.5 163t18.5 36q23 0 22 -34t-79 -157t-78 -158.5t28 -35.5q63 0 131 51t115 123q-55 33 -55 86t26.5 86t67.5 33q55 0 55 -55.5t-39 -127.5q16 -4 52 -4t73 19.5t52.5 38t25.5 18.5t10 -6q0 -10 -19.5 -34t-69.5 -47.5t-90 -23.5t-56 4 q-57 -86 -141 -144t-175 -58q-47 0 -47 50zM367 240q31 54 31 91v1q0 37 -38 37q-29 0 -29 -48q0 -52 36 -81z" />
<glyph unicode="w" horiz-adv-x="657" d="M-6 29q0 72 160 264q20 25 49.5 56.5t35 37.5t19.5 6t14 -13t-21.5 -37t-62.5 -73t-88 -118.5t-47 -88.5q0 -37 33 -36q55 0 154 61q8 74 66.5 142.5t129.5 68.5q29 0 29 -20q0 -29 -54.5 -85.5t-129.5 -109.5q4 -57 62 -57t137 61.5t134 140.5q-47 33 -47 88.5t25.5 88 t70 32.5t44.5 -56t-48 -136q20 -4 35 -4q80 0 170 61l10 -10q0 -6 -4 -10q-104 -70 -194 -70q-14 0 -35 4q-63 -90 -156.5 -156.5t-164 -66.5t-80.5 63q-118 -72 -182 -72v1q-64 0 -64 43zM283 117q129 94 129 133q0 10 -17 10q-37 0 -70.5 -46t-41.5 -97zM608 325 q0 -42 25 -65q37 63 37 102t-23 39q-14 0 -26.5 -17t-12.5 -59z" />
<glyph unicode="x" horiz-adv-x="409" d="M-40.5 -28.5q-0.5 8.5 11.5 16.5l174 123q18 100 86 208q25 39 31 43q6 10 19.5 10.5t13.5 -12t-6 -18.5q-74 -73 -88 -192q250 178 280 178q16 0 17 -9q0 -4 -35 -23.5t-264 -178.5q0 -90 82 -90q59 0 170 100q6 8 13 8t7 -10q0 -25 -83 -78t-148 -53q-96 0 -97 84 l-163 -115q-20 0 -20.5 8.5z" />
<glyph unicode="y" horiz-adv-x="415" d="M-518 -489q0 123 161.5 213t329.5 90q47 0 93 -11q68 74 163 193t115 141q-18 -18 -79.5 -57t-88.5 -53q-68 -35 -119 -35t-51 41q0 29 34 81t71 91q133 150 150 150q18 0 18 -14q0 -13 -15 -28l-59 -63q-133 -143 -133 -187q0 -29 28 -28q51 0 160 82t164 140t73.5 58 t18.5 -12l-6 -16q-35 -35 -173 -215.5t-231 -284.5q63 -33 66 -96q73 25 122 25h2q50 -1 98 -17t48 -41q0 -18 -12 -18q-4 0 -14 12q-31 37 -108 37t-138 -21q-6 -63 -55 -116.5t-96.5 -53.5t-47.5 25q0 35 48.5 79t119.5 76q-6 55 -55 82q-294 -333 -497 -333h-1 q-104 0 -104 84zM-467 -481q0 -29 19.5 -47.5t52.5 -18.5q147 0 438 326q-31 8 -78 8q-145 0 -288.5 -82t-143.5 -186zM14 -453q0 -12 31 -12t62.5 38t33.5 85q-55 -25 -91 -58t-36 -53z" />
<glyph unicode="z" horiz-adv-x="628" d="M0 14q0 47 88 58q55 0 158 -39q63 35 167.5 135t133.5 123q-74 12 -170 53t-137 41t-64.5 -18.5t-23.5 -51t33.5 -64.5t73.5 -32t66.5 6t34 6t7.5 -5t-7 -9q-82 -16 -122.5 -16t-83.5 27.5t-43 77.5t43 77t98 27t160.5 -43t160.5 -56q77 55 139 55q1 0 2 1q60 0 60 -29 q0 -23 -47 -38t-82 -15t-51 2q-27 -23 -82 -82q-127 -137 -227 -189q49 -20 181 -84.5t224 -98.5t193.5 -34t179.5 47q18 12 28.5 12.5t10.5 -16t-29 -28.5q-127 -50 -223 -50h-3q-95 0 -193 37q-100 37 -230.5 110t-167.5 91q-88 -35 -143.5 -35t-84 14.5t-28.5 32.5z M51 31q1 -35 59 -35q1 0 2 -1q57 0 107 23q-76 31 -118 31t-50 -18zM616 305q15 -2 46 -2q61 6 61 23.5t-14 17.5q-43 0 -93 -39z" />
<glyph unicode="{" horiz-adv-x="628" d="M27 -278.5q0 81.5 45 164.5t108.5 156t126.5 146q154 182 154 336q0 106 -31 183q-23 -2 -70 -2t-79.5 19t-32.5 47t21.5 47.5t54.5 19.5q76 0 125 -97q123 14 198.5 79t104 156t44 196.5t34 209t54.5 187.5t122 136t223 52q63 0 101 -28.5t38 -67.5t-43 -67.5 t-125 -28.5q-31 0 -31 19.5t56 19.5q109 0 108 51q0 25 -31.5 43t-82.5 18q-123 0 -200 -50t-109.5 -133t-50 -183.5t-36 -205t-50.5 -194.5t-109.5 -155.5t-200.5 -83.5q29 -70 29 -167.5t-43 -187.5t-105.5 -167.5t-126.5 -153.5q-147 -180 -147 -314q0 -70 53 -165 t133 -95q33 0 57.5 20.5t24.5 56.5t-35 79q-29 31 -29 44t14.5 13t26.5 -12q61 -70 61.5 -127t-33.5 -90t-83 -33q-102 0 -167.5 114t-65.5 195.5zM305 768q0 -12 17.5 -21.5t47 -9.5t44.5 2q-37 59 -73 59.5t-36 -30.5z" />
<glyph unicode="|" horiz-adv-x="546" d="M115 -415.5q0 12.5 4 22.5l674 1925q12 35 36 35q10 0 10.5 -7.5t-1.5 -11.5l-691 -1968q-12 -8 -22 -8t-10 12.5z" />
<glyph unicode="}" horiz-adv-x="913" d="M-141 -489.5q0 38.5 43 67.5t125 29q31 0 30.5 -19.5t-55.5 -19.5q-109 0 -108 -51q0 -25 31.5 -43.5t82.5 -18.5q123 0 200 50.5t109.5 133t50 183t35 205t50 194.5t109.5 154.5t200 83.5q-27 76 -27 171t43 185t105.5 168t124.5 154q150 180 149 313q0 70 -53 165 t-133 95q-33 0 -57.5 -20.5t-24.5 -56.5t35 -79q29 -31 28.5 -44t-14.5 -13t-27 12q-61 70 -61 127.5t34 90t83 32.5q102 0 167.5 -113.5t65.5 -195.5t-45 -165t-108.5 -155.5t-126.5 -146.5q-154 -182 -154 -336q0 -113 31 -184q41 4 78.5 4t70.5 -19.5t33 -47t-21.5 -47 t-54.5 -19.5q-78 0 -127 94q-123 -14 -197.5 -78.5t-104.5 -155t-45 -195.5t-32.5 -208.5t-53.5 -187.5t-122 -136.5t-223 -52.5q-63 0 -101 29t-38 67.5zM811 432q37 -59 74 -59t37 30q0 13 -17.5 22t-47.5 9t-46 -2z" />
<glyph unicode="~" horiz-adv-x="585" d="M182 168q0 29 30 44t54.5 15t89 -25.5t95 -25.5t50 14.5t28 14.5t8.5 -12q0 -23 -34 -38.5t-58.5 -15.5t-91 27t-91 27t-44 -16.5t-28 -16.5t-8.5 8z" />
<glyph unicode="&#xa1;" horiz-adv-x="555" d="M-283 -594q27 14 87.5 69.5t125.5 131.5q174 197 414 559q72 104 88 137q27 63 35 64q20 0 20 -21q0 -8 -2 -14q-76 -139 -227.5 -352t-265.5 -357l-113 -141q-88 -107 -123 -107q-39 4 -39 31zM535 585.5q0 18.5 21.5 35t35.5 16.5q29 0 29 -27q0 -18 -18.5 -39.5 t-34 -21.5t-24.5 9t-9 27.5z" />
<glyph unicode="&#xa2;" horiz-adv-x="663" d="M212 220q1 11 9 26.5t10 19.5l95 144q-106 14 -107 96q0 88 106.5 181t227.5 93h14l131 195q4 6 11 6q14 0 14 -19.5t-6 -27.5l-109 -162q55 -20 55.5 -67.5t-47 -84t-85 -36.5t-55 15t-17.5 28.5t15 31t26 19.5q18 0 18 -16q0 -4 -4 -9.5t-4 -27.5q0 -16 23.5 -16.5 t49 23t25.5 56.5q0 70 -77.5 70t-161.5 -83t-84 -157q0 -82 116 -82q166 0 283 121q6 8 13.5 8t7.5 -11t-33 -44t-115 -67.5t-186 -34.5h-2l-123 -191q-6 -8 -15 -8h-8q-12 0 -11 11z" />
<glyph unicode="&#xa3;" horiz-adv-x="2084" d="M-127 55q12 106 311 107q186 0 467 -43q197 100 393 301h-276q-23 0 -23 12q14 35 56 35h289q41 45 59 68h-289q-22 0 -22 12q14 35 55 35h297q94 111 139 168q-166 0 -166 131q0 84 76 164.5t166 80.5q18 0 29.5 -10t11.5 -21.5t-12 -11.5q-2 0 -11.5 7.5t-21.5 7.5 q-78 0 -134.5 -61.5t-56.5 -133.5q0 -123 140 -127q244 313 358 428q274 274 553 275q213 0 213 -140q0 -129 -154.5 -281.5t-289.5 -152.5q-86 0 -117 43q-260 -154 -498 -192q-127 -162 -137 -174h227q18 -2 18.5 -11.5t-7.5 -19.5q-16 -16 -33 -16h-246l-61 -68h237 q18 -2 18.5 -11.5t-10.5 -19.5q-14 -16 -28 -16h-263q-195 -201 -417 -311q18 -2 122.5 -20.5t143.5 -24t123 -15.5q147 -18 291 -18q281 0 452 112q10 6 15.5 6.5t5.5 -12t-15 -22.5q-61 -51 -229 -93t-336 -42q-203 0 -438 49q-35 8 -108.5 23.5t-102.5 21.5 q-260 -106 -561 -107q-203 14 -203 88zM-70 72q2 -76 225.5 -76t426.5 90q-252 51 -453 51q-199 -12 -199 -65zM1434 782q205 33 467 191q-4 10 -5 31q0 70 62.5 140t127 70.5t64.5 -34.5q0 -80 -194 -205q29 -35 90 -35q123 0 245 132t122 249q0 131 -172 131 q-238 0 -437 -203q-98 -98 -177 -199.5t-130 -176t-53 -76.5q-6 -6 -10 -15zM1942 1024q0 -16 2 -23q158 104 157 160q0 18 -40 18.5t-79.5 -51t-39.5 -104.5z" />
<glyph unicode="&#xa4;" horiz-adv-x="761" d="M303 329.5q0 14.5 14 28.5l140 105q-23 41 -23 90q0 106 90 197l-102 135q4 37 16 37q10 0 21.5 -17.5t13.5 -19.5l80 -111q88 68 183 68t145 -70l149 119q33 0 33 -13.5t-35 -37.5l-133 -95q16 -37 16 -82t-29.5 -107t-82.5 -107l98 -138q4 -4 4 -8q0 -12 -17.5 -12 t-31.5 14l-86 121q-68 -45 -152 -45t-133 49l-162 -113q-4 -2 -10 -2t-6 14.5zM481 563q0 -61 39 -102t108.5 -41t152.5 63.5t83 178.5q0 63 -39 104t-117.5 41t-152.5 -75t-74 -169z" />
<glyph unicode="&#xa5;" horiz-adv-x="1150" d="M-653 -668q0 88 103.5 192.5t291.5 183.5t395 79q121 0 201 -20q29 29 143 167h-321q-23 0 -23 13q14 35 56 35h327l53 67h-321q-23 0 -23 12q14 35 56 35h325l127 162q-135 -68 -219 -68q-98 0 -98 101q0 109 162 377q61 98 112 239.5t51 270.5q0 154 -213 153 q-43 0 -43 18.5t68 18.5q244 0 244 -174q0 -125 -48 -257t-106 -224q-154 -250 -153 -406q0 -31 22.5 -51t56.5 -20q76 0 191 59q453 598 606 713q74 55 129 55q31 0 31 -33q0 -127 -217 -345t-469 -370l-170 -219h223q18 -2 18 -11t-10 -19q-14 -16 -28 -17h-240l-55 -67 h223q18 -2 18 -11.5t-8 -19.5q-16 -16 -33 -17h-239q-76 -90 -158 -182q127 -45 168 -135q184 131 457 131q92 0 172 -29q12 -6 12 -19t-18 -13q-2 0 -19.5 7t-38.5 13q-57 18 -123 19q-262 0 -432 -136q8 -25 8 -76t-39.5 -105t-87 -54t-47.5 45q0 90 121 190 q-43 88 -158 134q-477 -520 -792 -521q-111 0 -166 36t-55 93zM-575 -655q0 -103 176 -103q268 0 712 498q-80 23 -186 22q-174 0 -343 -73.5t-264 -170t-95 -173.5zM442 -575q0 -23 27 -23t48.5 29.5t21.5 63.5t-11 69q-86 -84 -86 -139zM877 360q207 135 388 329t181 288 q0 16 -14 16q-80 0 -465 -514q-59 -78 -90 -119z" />
<glyph unicode="&#xa6;" horiz-adv-x="546" d="M115 -415.5q0 12.5 4 22.5l280 803h39l-291 -830q-12 -8 -22 -8t-10 12.5zM506 713l287 819q12 35 36 35q10 0 10.5 -7.5t-1.5 -11.5l-293 -835h-39z" />
<glyph unicode="&#xa7;" horiz-adv-x="679" d="M252 315q0 61 49 100.5t107.5 39.5t58.5 -52q0 -23 -15.5 -45t-33 -22t-17.5 13t15 28q12 8 12 22q0 35 -33 35t-62.5 -29.5t-29.5 -69.5t20.5 -66.5t64.5 -26.5t76 37.5t48 92t35.5 110t59.5 93t104 37.5q14 0 43 -8q10 41 30.5 92.5t28.5 62.5t22.5 28.5t28.5 25.5 q39 20 77 20.5t64.5 -15t26.5 -40t-19.5 -47t-42 -22.5t-24.5 10q0 18 17.5 25.5t17.5 31.5q0 33 -44 33t-76 -58.5t-47 -127t-66.5 -127t-137.5 -58.5h-22q-53 -170 -125 -205q-39 -16 -91.5 -16t-83 24.5t-34.5 49.5zM596 465q6 -2 22 -2q82 0 121 106q-8 18 -41.5 18.5 t-57.5 -31.5t-44 -91z" />
<glyph unicode="&#xa8;" horiz-adv-x="595" d="M199 471q0 18 18.5 39.5t33.5 21.5t24.5 -9t9.5 -27.5t-21.5 -35t-36.5 -16.5q-29 0 -28 27zM348 453q0 18 18.5 39.5t34 21.5t24.5 -9t9 -27.5t-21.5 -35t-35.5 -16.5q-29 0 -29 27z" />
<glyph unicode="&#xa9;" horiz-adv-x="1024" d="M41 262.5q0 149.5 99.5 284.5t253 214t321.5 79t277.5 -95t109.5 -245q0 -84 -44 -181.5t-123 -187.5t-213 -150.5t-300 -60.5t-273.5 96.5t-107.5 246zM102 272q0 -137 93.5 -227t240.5 -90t297 78q82 41 149.5 100.5t111.5 153.5t44 219t-93 215t-253 90 q-227 0 -408.5 -165t-181.5 -374zM328 291q0 88 106.5 181t222 93t115.5 -76q0 -47 -47 -83.5t-85 -36.5t-55.5 15t-17.5 28.5t15.5 31t25.5 19.5q18 0 19 -17q0 -4 -4.5 -10t-4.5 -26q0 -16 24 -16.5t49.5 23t25.5 56.5q0 70 -78 70t-162 -83t-84 -157q0 -82 117 -82 q166 0 283 121q6 8 13 8t7 -11t-32.5 -44t-115 -67.5t-186.5 -34.5q-152 0 -151 98z" />
<glyph unicode="&#xaa;" d="M262 809q0 86 102.5 179t237.5 93q76 0 119 -51q2 0 33 31q14 23 32.5 22.5t18.5 -18.5l-8 -18q-6 -10 -81 -100.5t-86.5 -107t-11.5 -48.5q0 -23 29 -23q59 0 168 98q6 8 13.5 8t7.5 -10q0 -25 -83 -78t-149 -53q-45 0 -45 47q0 16 -5 16.5t-7 -1.5q-102 -68 -193.5 -68 t-91.5 82zM332 825.5q0 -61.5 59 -61.5q80 0 178.5 83t114.5 142q0 25 -30.5 42.5t-69.5 17.5q-94 0 -173 -81t-79 -142.5z" />
<glyph unicode="&#xab;" horiz-adv-x="589" d="M90 121q0 23 64 57q127 70 214 134.5t99 64.5q25 0 25 -19q0 -10 -40 -42.5t-307 -188.5l193 -156q10 -6 10 -12t-16 -8q-25 -4 -46.5 15.5t-74.5 58.5q-121 84 -121 96zM276 121q0 23 64 57q127 70 214 134.5t99 64.5q25 0 25 -19q0 -10 -40 -42.5t-306 -188.5l192 -156 q11 -6 11 -12t-17 -8q-25 -4 -46 15.5t-75 58.5q-121 84 -121 96z" />
<glyph unicode="&#xac;" horiz-adv-x="739" d="M207 578q14 35 55 34h619q18 -2 18 -14q0 -2 -151 -258q-10 -14 -19 -14q-14 0 -14 28.5t8 36.5l102 174h-596q-22 1 -22 13z" />
<glyph unicode="&#xad;" horiz-adv-x="1130" d="M207 180q14 35 55 35h782q18 -2 18.5 -11t-9.5 -20q-14 -16 -29 -16h-795q-22 0 -22 12z" />
<glyph unicode="&#xae;" horiz-adv-x="1024" d="M41 262.5q0 149.5 99.5 284.5t253 214t321.5 79t277.5 -95t109.5 -245q0 -84 -44 -181.5t-123 -187.5t-213 -150.5t-300 -60.5t-273.5 96.5t-107.5 246zM102 272q0 -137 93.5 -227t240.5 -90t297 78q82 41 149.5 100.5t111.5 153.5t44 219t-93 215t-253 90 q-227 0 -408.5 -165t-181.5 -374zM356 233.5q0 10.5 15 32.5l129 162q14 18 53 69.5t46 61.5t28.5 10t21.5 -8t-4 -12l-29 -41q-6 -8 -14 -16q18 4 148 73q4 2 14 2t10 -5t-3 -10t-21 -28q-37 -45 -37 -67q0 -41 47 -41q18 0 47 16q10 0 10 -7t-5 -11t-38 -14.5t-53 -10.5 q-68 0 -68 43q0 16 9.5 34.5t9.5 25t-4 6.5q-41 -14 -119 -72q-16 -20 -53 -68q-86 -106 -93 -114q-10 -20 -28.5 -20.5t-18.5 10z" />
<glyph unicode="&#xaf;" d="M250 418q8 25 29 24h329q10 -2 10 -11t-22 -21h-334q-12 0 -12 8z" />
<glyph unicode="&#xb0;" horiz-adv-x="595" d="M412 985q10 51 63 111.5t138 60.5t85 -76q-6 -63 -68 -116.5t-134 -53.5q-31 0 -57.5 20.5t-26.5 53.5zM455 993q0 -45 54 -45t96 39t50 88q0 45 -59 45t-100 -49t-41 -78z" />
<glyph unicode="&#xb1;" horiz-adv-x="854" d="M164 324q14 35 55 34h619q18 -2 18 -11t-8 -19q-16 -16 -33 -17h-629q-22 1 -22 13zM322 657q14 35 55 35h258l121 201q8 10 16 10t13.5 -9t5.5 -17v-9l-9 -22l-92 -154h305q18 -2 18.5 -11t-9.5 -19q-14 -16 -29 -17h-311l-111 -186q-10 -14 -18 -15q-14 0 -14.5 29 t7.5 37l80 135h-264q-22 0 -22 12z" />
<glyph unicode="&#xb2;" horiz-adv-x="710" d="M381 590l6 22q55 74 272 211l72 45q264 158 264 269q0 74 -90 73q-12 0 -33 -4q12 -23 13 -53q0 -74 -59.5 -142.5t-136.5 -68.5t-77 64q0 76 64.5 133t150.5 80q-20 16 -38.5 16t-40 -3t-21.5 1q0 23 51 22.5t82 -30.5q25 4 59.5 4t69.5 -25.5t35 -75t-45 -105.5 t-87 -87t-126 -82t-92 -57q-231 -154 -232 -174q0 -12 17 -13h4q68 10 291 11q96 0 144 36.5t48 88t-49 51.5q-20 0 -33 -4q4 -16 4 -43t-29.5 -54.5t-62.5 -27.5t-33 34q0 27 27 54.5t66 44.5q-14 18 -29.5 19t-15.5 6t14 5h4q31 -2 47 -24q25 4 51.5 4t49 -20.5 t22.5 -51.5q0 -53 -59.5 -100t-159.5 -47l-201 2q-81 -1 -151 -19l-15 -2q-12 0 -12 17zM647 1001q0 -39 31 -38q66 0 120 66.5t54 129.5q0 25 -10 41q-76 -20 -135.5 -75.5t-59.5 -123.5zM772 707q0 -18 17.5 -18.5t38 22t20.5 41t-4 34.5q-72 -28 -72 -79z" />
<glyph unicode="&#xb3;" horiz-adv-x="630" d="M385 707.5q0 62.5 49 114.5t129 52q109 1 121 -81q33 -12 33 -20.5t-6 -8.5l-27 12q-4 -39 -35 -67.5t-78 -28.5t-47 35q0 29 34 56.5t87 27.5h6q-16 55 -81.5 55t-103.5 -43t-38 -96t33 -90t92 -37q123 0 202 81t79 173q0 51 -33 90q-51 -18 -128 -18.5t-77 38.5 q0 14 21.5 26.5t79 12.5t112.5 -30q55 31 90 78.5t35 90.5q0 86 -121 87q-84 0 -125 -29t-41 -57.5t15.5 -43t43 -14.5t49 12.5t33.5 36.5q6 8 12.5 8t6.5 -8t-1 -13t-8 -16.5t-20 -19.5q-31 -23 -82 -22q-84 0 -84 59q0 47 53.5 86t139.5 39t128 -30.5t42 -79t-39 -98.5 t-105 -81q49 -43 50 -106q0 -98 -95.5 -185.5t-232.5 -87.5q-84 0 -126 39t-42 101.5zM549 713q0 -16 31.5 -16.5t53 24t21.5 55.5v4h-4q-39 0 -70.5 -18t-31.5 -49zM637 953.5q0 -23.5 51 -23.5t94 18q-35 29 -90 29t-55 -23.5z" />
<glyph unicode="&#xb4;" d="M166 422q0 6 27 12q100 25 159 90q23 23 42.5 23t19.5 -19q0 -33 -90.5 -74.5t-143.5 -41.5q-14 0 -14 10z" />
<glyph unicode="&#xb5;" horiz-adv-x="466" d="M-377 -287l10 21q61 0 99 43q121 133 232.5 276.5t135 171t43.5 47.5l53.5 53.5t25.5 24.5t19.5 4t14.5 -13t-12.5 -25.5t-46 -50.5t-53 -60.5t-46.5 -52.5q-49 -63 -49 -93q0 -23 33 -22.5t92 39.5t102 80l43 39q86 76 117 120q18 23 37 23t19 -14q0 -12 -54 -68 q-106 -113 -114 -131q-20 -47 -21 -64q0 -33 50 -32.5t159 98.5q6 8 13 8t7 -10q0 -25 -82.5 -78t-148.5 -53q-45 0 -45 47q0 33 23 70v4t-3 0q-137 -117 -227 -117q-47 0 -57 29q-88 -111 -238 -271q-45 -45 -108 -45q-14 0 -23 2z" />
<glyph unicode="&#xb6;" horiz-adv-x="675" d="M-506 -328q0 33 43 54q53 0 53 -23q0 -12 -17 -27.5t-17 -25.5t51 -10t125.5 43t142.5 103t165 170t165.5 193.5t182.5 224t177 218.5q-74 2 -110.5 37t-36.5 90q0 92 82 178t194 86q117 0 148 -125q94 -35 122.5 -35t48 14.5t28 14.5t8.5 -12q0 -23 -34 -38.5 t-51.5 -15.5t-41.5 5q-90 -74 -427 -485.5t-540 -674.5q-14 -14 -27.5 -14t-13.5 11.5t9 20.5t470 574t496 580l-62 24q-102 -111 -251.5 -295t-269.5 -330.5t-253 -289.5q-281 -305 -469 -305q-90 -1 -90 65z" />
<glyph unicode="&#xb7;" horiz-adv-x="405" d="M240 156q0 18 18 39.5t33.5 21.5t25 -9t9.5 -27.5t-21.5 -35t-36.5 -16.5q-29 0 -28 27z" />
<glyph unicode="&#xb8;" horiz-adv-x="305" d="M74 -108.5q0 14.5 14 14.5q25 -6 41 -6q70 0 70 37q0 4 -10.5 9t-10.5 10t10 38h23l-6 -31q29 -8 28.5 -30.5t-27 -39t-79.5 -16.5t-53 14.5z" />
<glyph unicode="&#xb9;" horiz-adv-x="360" d="M307 573v9q39 70 151.5 213t207.5 252l94 108q6 6 6 13.5t-18.5 7.5t-80 -15.5t-96.5 -34.5q8 -14 8.5 -43.5t-29.5 -60.5t-58 -31q-57 0 -58 39q0 57 96 105q-14 14 -41 14l-30 -6q-10 0 -10 6q0 16 43 16t63 -18q78 33 149.5 45t93 18.5t40 6.5t18.5 -5.5t-4 -9.5 q-223 -233 -453 -553q-35 -53 -42 -69.5t-28.5 -16.5t-21.5 10zM465 1028q0 -18 23.5 -18t44 25.5t20.5 47t-6 33.5q-82 -41 -82 -88z" />
<glyph unicode="&#xba;" horiz-adv-x="436" d="M307 813q0 82 87 174t177 94q18 39 62.5 39t70 -25.5t25.5 -65.5t-8 -64q59 0 133 28.5t88 42.5l10 -10q0 -4 -16 -18.5t-88 -41t-135 -28.5q-33 -86 -115 -150.5t-170 -64.5q-121 0 -121 90zM377 829q0 -76 80 -75q53 0 122.5 54t94.5 130q-100 10 -107 111 q-70 -2 -130 -77t-60 -143zM614 1069q0 -84 68 -100q2 10 2 41.5t-16.5 53t-35 21.5t-18.5 -16z" />
<glyph unicode="&#xbb;" horiz-adv-x="659" d="M90 -31q0 10 40 43t306 189l-192 155q-11 6 -11 12.5t17 8.5q25 4 46 -15.5t75 -58.5q121 -84 121 -96q0 -23 -64 -57q-127 -70 -214 -134.5t-99 -64.5q-25 0 -25 18zM276 -31q0 10 40 43t307 189l-193 155q-10 6 -10 12.5t16 8.5q25 4 46.5 -15.5t74.5 -58.5 q121 -84 121 -96q0 -23 -64 -57q-127 -70 -214 -134.5t-99 -64.5q-25 0 -25 18z" />
<glyph unicode="&#xbc;" horiz-adv-x="1122" d="M96 -137q0 10 6.5 15t216.5 263q564 695 992 1207q4 4 20.5 6t18.5 -4q0 -6 -60.5 -79t-384.5 -472q-686 -840 -786 -940h-13q-6 0 -10 4zM440 573v9q39 70 152 213t207 252l94 108q6 6 6 13.5t-17.5 7.5t-80 -15.5t-96.5 -34.5q8 -14 8 -43.5t-30 -60.5t-60 -31 q-55 0 -56 39q0 57 97 105q-14 14 -41 14l-31 -6q-10 0 -10 6q0 16 43 16t63 -18q78 33 149.5 45t93 18.5t40 6.5t18.5 -5.5t-4 -9.5q-223 -233 -453 -553q-35 -53 -42 -69.5t-28.5 -16.5t-21.5 10zM598 1028q0 -18 23.5 -18t44 25.5t20.5 47t-6 33.5q-82 -41 -82 -88z M606 193q0 6 15 20q102 102 240 197.5t224 138.5l89 45q76 37 150.5 37t74.5 -60q0 -51 -51.5 -86.5t-108.5 -35.5t-57 34q0 29 31.5 44.5t51 15.5t19.5 -7.5t-6 -8.5l-18 -3q-45 -12 -46 -41q0 -18 37 -18t83 28.5t46 75.5q0 25 -21.5 34t-51.5 3q-57 -8 -95 -25.5 t-90.5 -44t-183.5 -114.5t-227 -186q-10 -12 -11 -21q0 -14 158 -14h55q92 115 148 168l22 20q47 16 47 2q0 -2 -6 -12q-72 -70 -161 -178q59 2 122 10q8 39 37 67.5t68 28.5t39 -24q0 -70 -133 -95v-4q0 -41 34 -47q2 -2 2.5 -7t-15 -5t-30 15.5t-14.5 41.5v2 q-78 -8 -133 -10q-76 -92 -125 -176q-6 -12 -16 -12l-29 14l2 12q70 104 119 162h-70l-186 4q-29 0 -29 15zM1108 215q51 10 72.5 22.5t21.5 32t-16 19.5q-59 0 -78 -74z" />
<glyph unicode="&#xbd;" horiz-adv-x="1122" d="M96 -137q0 10 6.5 15t216.5 263q564 695 992 1207q4 4 20.5 6t18.5 -4q0 -6 -60.5 -79t-384.5 -472q-686 -840 -786 -940h-13q-6 0 -10 4zM440 573v9q39 70 152 213t207 252l94 108q6 6 6 13.5t-17.5 7.5t-80 -15.5t-96.5 -34.5q8 -14 8 -43.5t-30 -60.5t-60 -31 q-55 0 -56 39q0 57 97 105q-14 14 -41 14l-31 -6q-10 0 -10 6q0 16 43 16t63 -18q78 33 149.5 45t93 18.5t40 6.5t18.5 -5.5t-4 -9.5q-223 -233 -453 -553q-35 -53 -42 -69.5t-28.5 -16.5t-21.5 10zM590 12l6 23q55 74 272 211l72 45q264 158 264 268q0 74 -90 74 q-12 0 -33 -4q12 -20 13 -54q0 -74 -59.5 -142t-136.5 -68t-77 63q0 76 64.5 133t150.5 80q-20 16 -38.5 16t-40 -3t-21.5 1q0 23 51 23t82 -31q25 4 59.5 4t69.5 -25.5t35 -74.5t-45 -105.5t-87 -87t-126 -82t-92 -57.5q-231 -154 -232 -174q0 -12 17 -12h4q68 10 291 10 q96 0 144 37t48 88t-49 51q-20 0 -33 -4q4 -16 4 -43t-29.5 -54.5t-62.5 -27.5t-33 35q0 27 27 54.5t65 43.5q-14 18 -29.5 19.5t-15.5 6.5t15 5h4q31 -2 47 -25q25 4 51.5 4t49 -20t22.5 -51q0 -53 -59.5 -100.5t-159.5 -47.5l-201 2q-82 0 -152 -18l-14 -2q-12 0 -12 16z M598 1028q0 -18 23.5 -18t44 25.5t20.5 47t-6 33.5q-82 -41 -82 -88zM856 424q0 -39 31 -39q66 0 120 66.5t54 130.5q0 25 -10 41q-76 -20 -135.5 -75.5t-59.5 -123.5zM981 129q0 -18 17.5 -18t38 22.5t20.5 41t-4 34.5q-72 -29 -72 -80z" />
<glyph unicode="&#xbe;" horiz-adv-x="1122" d="M96 -137q0 10 6.5 15t216.5 263q564 695 992 1207q4 4 20.5 6t18.5 -4q0 -6 -60.5 -79t-384.5 -472q-686 -840 -786 -940h-13q-6 0 -10 4zM258 707.5q0 62.5 49 114.5t129 52q109 1 121 -81q33 -12 33 -20.5t-6 -8.5l-27 12q-4 -39 -34.5 -67.5t-78 -28.5t-47.5 35 q0 29 34 56.5t87 27.5h6q-16 55 -81.5 55t-103.5 -43t-38 -96t33 -90t92 -37q123 0 202 81t79 173q0 51 -33 90q-51 -18 -128 -18.5t-77 38.5q0 14 21.5 26.5t79 12.5t112.5 -30q55 31 90 78.5t35 90.5q0 86 -121 87q-84 0 -125 -29t-41 -57.5t15.5 -43t43 -14.5t49 12.5 t34.5 36.5q6 8 12 8t6 -8t-1 -13t-8 -16.5t-20 -19.5q-31 -23 -82 -22q-84 0 -84 59q0 47 53.5 86t139.5 39t128 -30.5t42 -79t-39 -98.5t-104 -81q49 -43 49 -106q0 -98 -95.5 -185.5t-232.5 -87.5q-84 0 -126 39t-42 101.5zM422 713q0 -16 31.5 -16.5t53 24t21.5 55.5v4 h-4q-39 0 -70.5 -18t-31.5 -49zM510 953.5q0 -23.5 51 -23.5t94 18q-35 29 -90 29t-55 -23.5zM606 193q0 6 15 20q102 102 240 197.5t224 138.5l89 45q76 37 150.5 37t74.5 -60q0 -51 -51.5 -86.5t-108.5 -35.5t-57 34q0 29 31.5 44.5t51 15.5t19.5 -7.5t-6 -8.5l-18 -3 q-45 -12 -46 -41q0 -18 37 -18t83 28.5t46 75.5q0 39 -51 39t-103 -22.5t-104.5 -49t-183.5 -114.5t-227 -186q-10 -12 -11 -21q0 -14 158 -14h55q92 115 148 168l22 20q47 16 47 2q0 -2 -6 -12q-72 -70 -161 -178q59 2 122 10q8 39 37 67.5t68 28.5t39 -24q0 -70 -133 -95 v-4q0 -41 34 -47q2 -2 2.5 -7t-15 -5t-30 15.5t-14.5 41.5v2q-78 -8 -133 -10q-76 -92 -125 -176q-6 -12 -16 -12l-29 14l2 12q70 104 119 162h-70l-186 4q-29 0 -29 15zM1108 215q51 10 72.5 22.5t21.5 32t-16 19.5q-59 0 -78 -74z" />
<glyph unicode="&#xbf;" horiz-adv-x="788" d="M-82 -457q0 88 76 175t184.5 158t218 138.5t189.5 143t86 145.5q2 27 20 27q49 0 49 -25q0 -68 -77.5 -142.5t-189.5 -142t-222.5 -140.5t-188 -164t-77.5 -183q0 -139 182 -139q119 0 229 53q-35 35 -35 90q0 96 96.5 191.5t194.5 95.5q33 0 51.5 -19.5t18.5 -54.5 q0 -63 -70.5 -149t-181.5 -148q37 -23 85 -22.5t91 20t60 37.5l16 20q6 8 10 9q8 0 12 -13q-8 -25 -38 -51q-63 -55 -150.5 -55t-134.5 31q-123 -59 -256 -60q-57 0 -123 21q-125 37 -125 153zM410 -441.5q0 -56.5 34 -86.5q98 55 162 132t64 128q0 47 -52 47 q-86 0 -147 -82t-61 -138.5zM817 587.5q0 18.5 21.5 35t35.5 16.5q29 0 29 -27q0 -18 -18.5 -39.5t-33.5 -21.5t-24.5 9t-9.5 27.5z" />
<glyph unicode="&#xc0;" horiz-adv-x="1869" d="M90 170q0 -117 106.5 -193.5t311.5 -76.5t383 81.5t397 274.5q109 -55 283 -61l-27 -86l-53 -78q-41 -57 -41 -77t20 -20q29 0 203 263q154 16 256 61l35 14q33 10 33 31q0 10 -9.5 10t-50.5 -18q-131 -57 -245 -72q115 174 302 476t311 500t144 214q23 16 23 33 q0 35 -25 35q-16 0 -67 -51l-252 -271q-293 -313 -434 -463q-4 274 -164 457.5t-365 183.5q-154 0 -229.5 -72.5t-75.5 -194.5t91 -248t233 -171q-59 -76 -60 -162q0 -135 133 -217q-199 -172 -367.5 -250.5t-359 -78.5t-295 69.5t-104.5 173.5q0 139 160 255t403 116 q129 0 187.5 -42t58.5 -103q0 -92 -101.5 -161t-281.5 -69q-96 0 -96 60q0 23 13 35t28 14q41 10 41 30.5t-31 20.5q-45 -14 -81 -46t-36 -65q0 -86 160 -86q123 0 272 64q78 31 131.5 88t53.5 129q0 174 -310 174q-266 0 -439 -135t-173 -295zM909 1044q0 254 230 254 q117 0 210 -49t147 -121.5t89 -164.5q63 -160 64 -314q-195 -201 -355 -342q-127 88 -127 213q0 70 43 123q51 -10 118 -10t118 31.5t51 60.5q0 37 -67 37q-129 0 -220 -84q-135 33 -218 143.5t-83 222.5zM1239 672q62 55 166 55q23 0 22 -16q0 -43 -124 -43q-23 0 -64 4z M1323 289q111 98 324 313q-8 -152 -70 -379q-150 8 -254 66zM1597 186q2 3 2 9h5zM1608 221q78 301 84 428q100 102 604 637q8 0 8 -4t-137 -219t-278.5 -436t-158 -249t-108.5 -157h-14zM2349 1704q0 18 19.5 18t41.5 -22q59 -66 160 -90q27 -7 27 -13q0 -10 -14 -10 q-53 0 -143.5 42t-90.5 75z" />
<glyph unicode="&#xc1;" horiz-adv-x="1869" d="M90 170q0 160 173 295t439 135q309 0 310 -174q0 -94 -91.5 -161.5t-190.5 -93.5t-175 -26q-160 0 -160 86q0 33 30 60.5t58 40.5l29 10q31 0 31 -20t-27 -27q-55 -12 -55 -53q0 -59 96 -60q180 0 281.5 68.5t101.5 161.5q0 61 -58.5 103t-187.5 42q-244 0 -403.5 -115.5 t-159.5 -255.5q0 -104 104.5 -173.5t295 -69.5t359.5 78.5t367 250.5q-133 82 -133 217q0 86 60 162q-141 45 -232.5 171t-91.5 248t76 194.5t229 72.5q205 0 365 -183t164 -458q141 150 434 463l252 271q51 51 64.5 51t20.5 -8.5t7 -25.5t-21.5 -33.5t-145.5 -214.5 t-311.5 -500t-301.5 -476q115 14 245 72q41 18 50.5 18t9.5 -10q0 -20 -33 -31q-127 -59 -291 -75q-174 -262 -203 -263q-20 0 -20 20.5t41 76.5l53 78l27 86q-174 6 -283 61q-219 -193 -397 -274.5t-383 -81.5t-311.5 76.5t-106.5 193.5zM909 1044q0 -113 83 -223t218 -143 q90 84 220 84q68 0 67 -37q0 -29 -51 -60.5t-117.5 -31.5t-118.5 10q-43 -53 -43 -123q0 -125 127 -213q160 141 355 342q0 154 -64 314q-35 92 -89 164.5t-147.5 121.5t-209.5 49q-229 0 -230 -254zM1239 672q41 -4 64 -4q125 0 124 43q1 16 -22 16q-104 0 -166 -55z M1323 289q104 -57 254 -66q62 227 70 379q-213 -215 -324 -313zM1597 186l7 9h-5q0 -6 -2 -9zM1608 221h14q92 129 108.5 157t157.5 249q416 651 416 655l-8 4q-504 -535 -604 -637q-6 -127 -84 -428zM2419 1585q0 6 26 12q100 25 160 91q23 23 42 22.5t19 -18.5 q0 -33 -90 -75t-143 -42q-14 0 -14 10z" />
<glyph unicode="&#xc2;" horiz-adv-x="1869" d="M90 170q0 160 173 295t439 135q309 0 310 -174q0 -94 -91.5 -161.5t-190.5 -93.5t-175 -26q-160 0 -160 86q0 33 30 60.5t58 40.5l29 10q31 0 31 -20t-27 -27q-55 -12 -55 -53q0 -59 96 -60q180 0 281.5 68.5t101.5 161.5q0 61 -58.5 103t-187.5 42q-244 0 -403.5 -115.5 t-159.5 -255.5q0 -104 104.5 -173.5t295 -69.5t359.5 78.5t367 250.5q-133 82 -133 217q0 86 60 162q-141 45 -232.5 171t-91.5 248t76 194.5t229 72.5q205 0 365 -183t164 -458q141 150 434 463l252 271q51 51 64.5 51t20.5 -8.5t7 -25.5t-21.5 -33.5t-145.5 -214.5 t-311.5 -500t-301.5 -476q115 14 245 72q41 18 50.5 18t9.5 -10q0 -20 -33 -31q-127 -59 -291 -75q-174 -262 -203 -263q-20 0 -20 20.5t41 76.5l53 78l27 86q-174 6 -283 61q-219 -193 -397 -274.5t-383 -81.5t-311.5 76.5t-106.5 193.5zM909 1044q0 -113 83 -223t218 -143 q90 84 220 84q68 0 67 -37q0 -29 -51 -60.5t-117.5 -31.5t-118.5 10q-43 -53 -43 -123q0 -125 127 -213q160 141 355 342q0 154 -64 314q-35 92 -89 164.5t-147.5 121.5t-209.5 49q-229 0 -230 -254zM1239 672q41 -4 64 -4q125 0 124 43q1 16 -22 16q-104 0 -166 -55z M1323 289q104 -57 254 -66q62 227 70 379q-213 -215 -324 -313zM1597 186l7 9h-5q0 -6 -2 -9zM1608 221h14q92 129 108.5 157t157.5 249q416 651 416 655l-8 4q-504 -535 -604 -637q-6 -127 -84 -428zM2353 1580q0 9 45 17.5t79 46t49.5 37.5t20.5 -11t7 -28q6 -39 61 -63 q6 -2 6 -6t-7 -10.5t-15 -6.5q-45 0 -82 70q-82 -55 -150 -55q-14 0 -14 9z" />
<glyph unicode="&#xc3;" horiz-adv-x="1869" d="M90 170q0 160 173 295t439 135q309 0 310 -174q0 -94 -91.5 -161.5t-190.5 -93.5t-175 -26q-160 0 -160 86q0 33 30 60.5t58 40.5l29 10q31 0 31 -20t-27 -27q-55 -12 -55 -53q0 -59 96 -60q180 0 281.5 68.5t101.5 161.5q0 61 -58.5 103t-187.5 42q-244 0 -403.5 -115.5 t-159.5 -255.5q0 -104 104.5 -173.5t295 -69.5t359.5 78.5t367 250.5q-133 82 -133 217q0 86 60 162q-141 45 -232.5 171t-91.5 248t76 194.5t229 72.5q205 0 365 -183t164 -458q141 150 434 463l252 271q51 51 64.5 51t20.5 -8.5t7 -25.5t-21.5 -33.5t-145.5 -214.5 t-311.5 -500t-301.5 -476q115 14 245 72q41 18 50.5 18t9.5 -10q0 -20 -33 -31q-127 -59 -291 -75q-174 -262 -203 -263q-20 0 -20 20.5t41 76.5l53 78l27 86q-174 6 -283 61q-219 -193 -397 -274.5t-383 -81.5t-311.5 76.5t-106.5 193.5zM909 1044q0 -113 83 -223t218 -143 q90 84 220 84q68 0 67 -37q0 -29 -51 -60.5t-117.5 -31.5t-118.5 10q-43 -53 -43 -123q0 -125 127 -213q160 141 355 342q0 154 -64 314q-35 92 -89 164.5t-147.5 121.5t-209.5 49q-229 0 -230 -254zM1239 672q41 -4 64 -4q125 0 124 43q1 16 -22 16q-104 0 -166 -55z M1323 289q104 -57 254 -66q62 227 70 379q-213 -215 -324 -313zM1597 186l7 9h-5q0 -6 -2 -9zM1608 221h14q92 129 108.5 157t157.5 249q416 651 416 655l-8 4q-504 -535 -604 -637q-6 -127 -84 -428zM2310 1595q0 29 30 44.5t55.5 15.5t89 -25.5t94 -25.5t50 14t27.5 14 t8 -12q0 -23 -33.5 -38t-58 -15t-91 26.5t-91.5 26.5t-44 -16.5t-27.5 -16.5t-8.5 8z" />
<glyph unicode="&#xc4;" horiz-adv-x="1869" d="M90 170q0 -117 106.5 -193.5t311.5 -76.5t383 81.5t397 274.5q109 -55 283 -61l-27 -86l-53 -78q-41 -57 -41 -77t20 -20q29 0 203 263q154 16 256 61l35 14q33 10 33 31q0 10 -9.5 10t-50.5 -18q-131 -57 -245 -72q115 174 302 476t311 500t144 214q23 16 23 33 q0 35 -25 35q-16 0 -67 -51l-252 -271q-293 -313 -434 -463q-4 274 -164 457.5t-365 183.5q-154 0 -229.5 -72.5t-75.5 -194.5t91 -248t233 -171q-59 -76 -60 -162q0 -135 133 -217q-199 -172 -367.5 -250.5t-359 -78.5t-295 69.5t-104.5 173.5q0 139 160 255t403 116 q129 0 187.5 -42t58.5 -103q0 -92 -101.5 -161t-281.5 -69q-96 0 -96 60q0 23 13 35t28 14q41 10 41 30.5t-31 20.5q-45 -14 -81 -46t-36 -65q0 -86 160 -86q123 0 272 64q78 31 131.5 88t53.5 129q0 174 -310 174q-266 0 -439 -135t-173 -295zM909 1044q0 254 230 254 q117 0 210 -49t147 -121.5t89 -164.5q63 -160 64 -314q-195 -201 -355 -342q-127 88 -127 213q0 70 43 123q51 -10 118 -10t118 31.5t51 60.5q0 37 -67 37q-129 0 -220 -84q-135 33 -218 143.5t-83 222.5zM1239 672q62 55 166 55q23 0 22 -16q0 -43 -124 -43q-23 0 -64 4z M1323 289q111 98 324 313q-8 -152 -70 -379q-150 8 -254 66zM1597 186q2 3 2 9h5zM1608 221q78 301 84 428q100 102 604 637q8 0 8 -4t-137 -219t-278.5 -436t-158 -249t-108.5 -157h-14zM2400 1591q0 19 18.5 40.5t34 21.5t24.5 -9.5t9 -28t-21.5 -34.5t-35.5 -16 q-29 0 -29 26zM2550 1573q0 18 18.5 39.5t33.5 21.5t24.5 -9t9.5 -27.5t-21.5 -35t-36.5 -16.5q-29 0 -28 27z" />
<glyph unicode="&#xc5;" horiz-adv-x="1869" d="M90 170q0 160 173 295t439 135q309 0 310 -174q0 -94 -91.5 -161.5t-190.5 -93.5t-175 -26q-160 0 -160 86q0 33 30 60.5t58 40.5l29 10q31 0 31 -20t-27 -27q-55 -12 -55 -53q0 -59 96 -60q180 0 281.5 68.5t101.5 161.5q0 61 -58.5 103t-187.5 42q-244 0 -403.5 -115.5 t-159.5 -255.5q0 -104 104.5 -173.5t295 -69.5t359.5 78.5t367 250.5q-133 82 -133 217q0 86 60 162q-141 45 -232.5 171t-91.5 248t76 194.5t229 72.5q205 0 365 -183t164 -458q141 150 434 463l252 271q51 51 64.5 51t20.5 -8.5t7 -25.5t-21.5 -33.5t-145.5 -214.5 t-311.5 -500t-301.5 -476q115 14 245 72q41 18 50.5 18t9.5 -10q0 -20 -33 -31q-127 -59 -291 -75q-174 -262 -203 -263q-20 0 -20 20.5t41 76.5l53 78l27 86q-174 6 -283 61q-219 -193 -397 -274.5t-383 -81.5t-311.5 76.5t-106.5 193.5zM909 1044q0 -113 83 -223t218 -143 q90 84 220 84q68 0 67 -37q0 -29 -51 -60.5t-117.5 -31.5t-118.5 10q-43 -53 -43 -123q0 -125 127 -213q160 141 355 342q0 154 -64 314q-35 92 -89 164.5t-147.5 121.5t-209.5 49q-229 0 -230 -254zM1239 672q41 -4 64 -4q125 0 124 43q1 16 -22 16q-104 0 -166 -55z M1323 289q104 -57 254 -66q62 227 70 379q-213 -215 -324 -313zM1597 186l7 9h-5q0 -6 -2 -9zM1608 221h14q92 129 108.5 157t157.5 249q416 651 416 655l-8 4q-504 -535 -604 -637q-6 -127 -84 -428zM2462 1575q2 23 28.5 53.5t66.5 30.5t40 -37q-2 -31 -32 -56.5 t-66.5 -25.5t-36.5 35zM2490 1583q0 -18 21.5 -18t38 15.5t18.5 35.5q0 18 -23.5 18t-39 -19.5t-15.5 -31.5z" />
<glyph unicode="&#xc6;" horiz-adv-x="2809" d="M90 170q0 160 173 295t439 135q309 0 310 -174q0 -94 -91.5 -161.5t-190.5 -93.5t-175 -26q-160 0 -160 86q0 33 30 60.5t58 40.5l29 10q31 0 31 -20t-27 -27q-55 -12 -55 -53q0 -59 96 -60q180 0 281.5 68.5t101.5 161.5q0 61 -58.5 103t-187.5 42q-244 0 -403.5 -115.5 t-159.5 -255.5q0 -104 104.5 -173.5t295 -69.5t359.5 78.5t367 250.5q-133 82 -133 217q0 86 60 162q-141 45 -232.5 171t-91.5 248t76 194.5t229 72.5q205 0 365 -183t164 -458q141 150 434 463l252 271q51 51 64.5 51t20.5 -8.5t7 -25.5t-20.5 -32.5t-372.5 -578.5 q240 190 536 237q-25 43 -24 96q0 109 95 195t247.5 86t237.5 -53.5t85 -134t-104 -134.5q-25 2 -25 10.5t15 20.5q61 59 61 118.5t-84 106t-178 46.5q-139 0 -214 -76t-75 -176q0 -53 23 -99q41 4 91 4t105.5 -18t55.5 -55q-6 -45 -76 -45q-150 0 -219 86 q-297 -45 -525.5 -266.5t-228.5 -452.5l4 -60l103 41q12 0 12 -10q0 -20 -33 -31q-33 -14 -78 -30q23 -113 96.5 -183.5t210 -70.5t259 53t203.5 134t127 176t46 191.5t-66.5 160t-197.5 63.5q-193 0 -324 -130t-135 -321q0 -18 8.5 -40.5t8.5 -32t-10.5 -16.5t-16.5 -7 q-35 0 -35 96q0 195 151.5 340.5t371.5 145.5q160 0 239.5 -67.5t79.5 -170t-56.5 -209t-152.5 -196.5t-237.5 -148.5t-287 -58.5t-234.5 75.5t-117 194.5q-68 -16 -144 -24q-174 -262 -203 -263q-20 0 -20 20.5t41 76.5l53 78l27 86q-174 6 -283 61q-219 -193 -397 -274.5 t-383 -81.5t-311.5 76.5t-106.5 193.5zM909 1044q0 -113 83 -223t218 -143q90 84 220 84q68 0 67 -37q0 -29 -51 -60.5t-117.5 -31.5t-118.5 10q-43 -53 -43 -123q0 -125 127 -213q160 141 355 342q0 154 -64 314q-35 92 -89 164.5t-147.5 121.5t-209.5 49q-229 0 -230 -254 zM1239 672q41 -4 64 -4q125 0 124 43q1 16 -22 16q-104 0 -166 -55zM1323 289q104 -57 254 -66q62 227 70 379q-213 -215 -324 -313zM1597 186l7 9h-5q0 -6 -2 -9zM1608 221h14q92 129 108.5 157t157.5 249q416 651 416 655l-8 4q-504 -535 -604 -637q-6 -127 -84 -428z M1692 223q72 10 120 27q-6 33 -5.5 78t8.5 86zM2689 1057q51 -68 137 -68q53 0 53 23q0 39 -147 47z" />
<glyph unicode="&#xc7;" horiz-adv-x="1060" d="M135 221q0 209 195 490q-141 43 -142 168q0 88 86 171t158 83q41 0 41 -25t-18 -25l-52 4q-49 0 -104 -71.5t-55 -122.5q0 -115 108 -150q207 287 511 489t599 202q236 0 236 -142q0 -102 -117 -238t-297 -235.5t-340 -99.5q-104 0 -137 67q-209 -82 -389 -81h-33 q-184 -270 -184 -469q0 -113 70.5 -177.5t217.5 -64.5q244 0 453 131q49 31 74 51l24 21q6 4 18.5 4t12.5 -13.5t-18 -25.5q-248 -195 -564 -205l-4 -35q35 -16 35 -44t-32.5 -50.5t-98 -22.5t-65.5 23q0 16 16 16q25 -8 53 -8q84 0 84 49q0 8 -13 12.5t-13 12.5t12 47 q-168 0 -248 70.5t-80 193.5zM408 737h18q180 0 373 80v17q0 70 96 143.5t164 73.5q45 0 45 -41q0 -45 -69.5 -101.5t-180.5 -103.5q25 -49 113 -49q131 0 292.5 86t273.5 205.5t112 209.5q0 133 -251 133.5t-523.5 -191t-462.5 -462.5zM848 838q84 41 135 83t51 65.5 t-20 23.5q-43 0 -104.5 -56.5t-61.5 -113.5v-2z" />
<glyph unicode="&#xc8;" horiz-adv-x="1505" d="M39 534.5q0 -147.5 90 -242.5t266 -95q61 0 105 8q33 -115 120 -184.5t230 -69.5t284.5 58.5t237.5 148.5t152.5 196.5t56.5 209t-80 170t-239 67.5q-109 0 -211 -43v8q0 98 -62 170q68 37 127 61q90 -53 151.5 -84.5t156 -59.5t184.5 -28q299 0 461.5 125t162.5 277 q0 90 -60.5 149.5t-164.5 59.5q-47 0 -47 -11q0 -16 33 -16q92 0 139 -45t47 -117q0 -137 -143.5 -264t-366.5 -127q-150 0 -266.5 41t-243.5 115q84 29 152 39q70 -86 219 -86q70 0 76 45q0 37 -55.5 55t-105.5 18t-91 -4q-23 49 -23 101q0 98 75 174t214 76 q94 0 178 -46.5t84 -105.5t-61 -119q-14 -12 -15 -16q0 -11 25 -15q104 53 104 134t-85 134.5t-237.5 53.5t-247.5 -86t-95 -195q0 -53 24 -96q-78 -12 -168 -41q-88 51 -135 76t-126 49.5t-154 24.5q-195 0 -353.5 -103.5t-238.5 -250t-80 -294zM104 549q0 219 168 410.5 t433 193.5q117 0 251 -68q49 -25 125 -69q-47 -16 -120 -53q-90 69 -244 69q-61 0 -62 -28q0 -12 11 -13q37 6 69 6q115 0 180 -55q-190 -104 -310 -263t-120 -357q0 -43 7 -80q-39 -6 -84 -6h-2q-147 0 -224.5 88t-77.5 225zM557 332q0 152 107.5 309.5t281.5 267.5 q47 -63 47 -149v-29q-111 -63 -180.5 -169.5t-73.5 -227.5q-84 -55 -176 -78q-6 37 -6 76zM569 219q84 23 170 74q0 -74 35 -74q8 0 17.5 7t9.5 16.5t-8.5 32t-8.5 40.5v7q111 78 181.5 187t83.5 216q88 41 206.5 41t185 -63.5t66.5 -160t-46 -191.5t-127 -176t-203.5 -134 t-255 -53t-207 64.5t-99.5 166.5zM788 371q25 205 197 319q-35 -184 -197 -319zM1368 1057q14 2 43 2q147 -8 148 -47q0 -23 -54 -23q-86 0 -137 68zM1675 1688q0 18 19.5 18t42.5 -23q59 -66 159 -90q27 -6 27 -12q0 -10 -14 -10q-53 0 -143.5 42t-90.5 75z" />
<glyph unicode="&#xc9;" horiz-adv-x="1505" d="M39 534.5q0 147.5 80 294t238.5 250t353.5 103.5q76 0 154.5 -24.5t125.5 -49.5t135 -76q90 29 168 41q-25 43 -24 96q0 109 95 195t247.5 86t237.5 -53.5t85 -134.5t-104 -134q-25 2 -25 10.5t15 20.5q61 59 61 118.5t-84 106t-178 46.5q-139 0 -214 -76t-75 -174 q0 -51 23 -101q41 4 91 4t105.5 -18t55.5 -55q-6 -45 -76 -45q-150 0 -219 86q-68 -10 -152 -39q127 -74 244 -115t266 -41q223 0 366.5 127t143.5 264q0 72 -47 117t-139 45q-33 0 -33 16q0 10 47 11q104 0 164.5 -59.5t60.5 -149.5q0 -152 -162.5 -277t-461.5 -125 q-90 0 -184.5 28t-156 59.5t-151.5 84.5q-59 -25 -127 -61q61 -72 62 -170v-8q102 43 211 43q160 0 239.5 -67.5t79.5 -170t-56.5 -209t-152.5 -196.5t-237.5 -148.5t-284.5 -58.5t-230.5 69.5t-119.5 184.5q-43 -8 -105 -8q-176 0 -266 95t-90 242.5zM104 549 q0 -137 77 -225t225 -88h2q43 0 84 6q-6 37 -7 80q0 199 120 357.5t310 262.5q-66 55 -180 55q-33 0 -69 -6q-10 0 -11 13q1 28 62 28q154 0 244 -69q74 37 120 53q-231 137 -376 137q-264 -2 -432.5 -193.5t-168.5 -410.5zM557 332q0 -39 6 -76q92 23 176 78 q4 121 73.5 227.5t180.5 169.5v29q0 86 -47 149q-174 -111 -281.5 -268.5t-107.5 -308.5zM569 219q25 -102 99.5 -166.5t207 -64.5t255 53t203.5 134t127 176t46 191.5t-66.5 160t-185 63.5t-206.5 -41q-12 -106 -83 -216t-182 -187v-7q0 -18 8.5 -40.5t8.5 -32t-9.5 -16.5 t-17.5 -7q-35 0 -35 74q-86 -51 -170 -74zM788 371q162 135 197 319q-172 -114 -197 -319zM1368 1057q51 -68 137 -68q53 0 54 23q-1 39 -148 47q-29 0 -43 -2zM1817 1573q0 6 26 12q100 25 160 90q23 23 42 23t19 -19q0 -33 -90 -74.5t-143 -41.5q-14 0 -14 10z" />
<glyph unicode="&#xca;" horiz-adv-x="1505" d="M39 534.5q0 147.5 80 294t238.5 250t353.5 103.5q76 0 154.5 -24.5t125.5 -49.5t135 -76q90 29 168 41q-25 43 -24 96q0 109 95 195t247.5 86t237.5 -53.5t85 -134.5t-104 -134q-25 2 -25 10.5t15 20.5q61 59 61 118.5t-84 106t-178 46.5q-139 0 -214 -76t-75 -174 q0 -51 23 -101q41 4 91 4t105.5 -18t55.5 -55q-6 -45 -76 -45q-150 0 -219 86q-68 -10 -152 -39q127 -74 244 -115t266 -41q223 0 366.5 127t143.5 264q0 72 -47 117t-139 45q-33 0 -33 16q0 10 47 11q104 0 164.5 -59.5t60.5 -149.5q0 -152 -162.5 -277t-461.5 -125 q-90 0 -184.5 28t-156 59.5t-151.5 84.5q-59 -25 -127 -61q61 -72 62 -170v-8q102 43 211 43q160 0 239.5 -67.5t79.5 -170t-56.5 -209t-152.5 -196.5t-237.5 -148.5t-284.5 -58.5t-230.5 69.5t-119.5 184.5q-43 -8 -105 -8q-176 0 -266 95t-90 242.5zM104 549 q0 -137 77 -225t225 -88h2q43 0 84 6q-6 37 -7 80q0 199 120 357.5t310 262.5q-66 55 -180 55q-33 0 -69 -6q-10 0 -11 13q1 28 62 28q154 0 244 -69q74 37 120 53q-231 137 -376 137q-264 -2 -432.5 -193.5t-168.5 -410.5zM557 332q0 -39 6 -76q92 23 176 78 q4 121 73.5 227.5t180.5 169.5v29q0 86 -47 149q-174 -111 -281.5 -268.5t-107.5 -308.5zM569 219q25 -102 99.5 -166.5t207 -64.5t255 53t203.5 134t127 176t46 191.5t-66.5 160t-185 63.5t-206.5 -41q-12 -106 -83 -216t-182 -187v-7q0 -18 8.5 -40.5t8.5 -32t-9.5 -16.5 t-17.5 -7q-35 0 -35 74q-86 -51 -170 -74zM788 371q162 135 197 319q-172 -114 -197 -319zM1368 1057q51 -68 137 -68q53 0 54 23q-1 39 -148 47q-29 0 -43 -2zM1640.5 1598.5q-0.5 9.5 45 17.5t79 46t49 38t20.5 -11.5t7 -25.5q6 -41 62 -66q6 -4 6 -7t-7.5 -9t-15.5 -6 q-45 0 -82 70q-81 -56 -149 -56q-14 0 -14.5 9.5z" />
<glyph unicode="&#xcb;" horiz-adv-x="1505" d="M39 534.5q0 -147.5 90 -242.5t266 -95q61 0 105 8q33 -115 120 -184.5t230 -69.5t284.5 58.5t237.5 148.5t152.5 196.5t56.5 209t-80 170t-239 67.5q-109 0 -211 -43v8q0 98 -62 170q68 37 127 61q90 -53 151.5 -84.5t156 -59.5t184.5 -28q299 0 461.5 125t162.5 277 q0 90 -60.5 149.5t-164.5 59.5q-47 0 -47 -11q0 -16 33 -16q92 0 139 -45t47 -117q0 -137 -143.5 -264t-366.5 -127q-150 0 -266.5 41t-243.5 115q84 29 152 39q70 -86 219 -86q70 0 76 45q0 37 -55.5 55t-105.5 18t-91 -4q-23 49 -23 101q0 98 75 174t214 76 q94 0 178 -46.5t84 -105.5t-61 -119q-14 -12 -15 -16q0 -11 25 -15q104 53 104 134t-85 134.5t-237.5 53.5t-247.5 -86t-95 -195q0 -53 24 -96q-78 -12 -168 -41q-88 51 -135 76t-126 49.5t-154 24.5q-195 0 -353.5 -103.5t-238.5 -250t-80 -294zM104 549q0 219 168 410.5 t433 193.5q117 0 251 -68q49 -25 125 -69q-47 -16 -120 -53q-90 69 -244 69q-61 0 -62 -28q0 -12 11 -13q37 6 69 6q115 0 180 -55q-190 -104 -310 -263t-120 -357q0 -43 7 -80q-39 -6 -84 -6h-2q-147 0 -224.5 88t-77.5 225zM557 332q0 152 107.5 309.5t281.5 267.5 q47 -63 47 -149v-29q-111 -63 -180.5 -169.5t-73.5 -227.5q-84 -55 -176 -78q-6 37 -6 76zM569 219q84 23 170 74q0 -74 35 -74q8 0 17.5 7t9.5 16.5t-8.5 32t-8.5 40.5v7q111 78 181.5 187t83.5 216q88 41 206.5 41t185 -63.5t66.5 -160t-46 -191.5t-127 -176t-203.5 -134 t-255 -53t-207 64.5t-99.5 166.5zM788 371q25 205 197 319q-35 -184 -197 -319zM1368 1057q14 2 43 2q147 -8 148 -47q0 -23 -54 -23q-86 0 -137 68zM1698 1608q0 18 18.5 39.5t33.5 21.5t24.5 -9t9.5 -27.5t-21.5 -35t-36.5 -16.5q-29 0 -28 27zM1847 1589q0 19 18.5 40.5 t34 21.5t24.5 -9.5t9 -28t-21.5 -34.5t-35.5 -16q-29 0 -29 26z" />
<glyph unicode="&#xcc;" horiz-adv-x="1318" d="M37 200q0 -132 108.5 -216t298 -84t348 56t292 153.5t256 217t237.5 257t213 260.5q256 317 405 434q23 -2 92.5 -2t196.5 30.5t127 90.5q0 45 -76 45q-170 0 -346 -123q-27 4 -112.5 18.5t-141.5 22.5q-152 23 -297 22.5t-274 -43.5q-88 113 -303 113q-229 0 -387 -84 q-150 -80 -221 -172q-76 -98 -93 -143l-10 -23q0 -23 12.5 -22.5t22.5 16.5q18 49 81.5 128t132.5 131t188.5 95t259.5 43q184 0 268 -98q-174 -70 -282.5 -196t-108.5 -238q0 -78 56 -125t169 -47q152 0 304.5 138t152.5 243q0 76 -99 76q-43 0 -96 -15q2 10 2 56.5 t-33 99.5q84 23 174.5 22.5t193.5 -9.5t224 -25.5t168 -20.5q-178 -141 -418 -438q-98 -121 -207.5 -254t-224 -248t-237.5 -207q-264 -201 -561 -201q-197 0 -296.5 79t-99.5 198t102.5 216t262.5 97q80 0 117 -51q-74 -51 -116 -108.5t-42 -102.5q0 -63 82 -63 q59 0 103 62.5t44 120.5t-14 89q146 90 328 92q76 0 98 -26q35 -43 51 -21q4 4 4 12q-6 25 -47 46.5t-90 21.5q-199 0 -363 -96q-47 57 -141 57q-190 0 -314 -112.5t-124 -244.5zM473 289q0 67 121 155q16 -37 16 -79.5t-22.5 -79.5t-57.5 -37q-57 0 -57 41zM983 909 q0 106 95.5 222t252.5 169q35 -55 35 -124q0 -23 -2 -33q-70 -29 -115 -78t-45 -84q0 -31 46 -31t92.5 52.5t62.5 125.5q47 14 78 15q66 0 65 -56q0 -90 -128 -212.5t-253 -122.5q-92 0 -138 43t-46 114zM1249 1012q0 16 32 45.5t77 52.5q-12 -47 -38 -79t-48.5 -32 t-22.5 13zM2064 1712q0 18 19.5 18.5t42.5 -22.5q59 -66 160 -90q26 -6 26 -12q0 -10 -14 -11q-53 0 -143.5 42t-90.5 75zM2243 1311q137 98 262 98q33 0 32.5 -27.5t-88.5 -50t-155 -22.5h-6q-29 0 -45 2z" />
<glyph unicode="&#xcd;" horiz-adv-x="1318" d="M37 200q0 132 124 244.5t314 112.5q94 0 141 -57q164 96 363 96q49 0 84 -17.5t43 -33.5l10 -17q0 -20 -18 -20q-8 0 -21 14q-30 41 -114 41q-182 -2 -328 -92q14 -31 14 -89t-44 -120.5t-103 -62.5q-82 0 -82 63q0 45 42 102.5t116 108.5q-37 51 -117 51 q-160 0 -262.5 -97t-102.5 -216t99.5 -198t272.5 -79t317.5 53.5t267.5 146.5t237.5 208t224 248t207.5 254q240 297 418 438q-47 4 -168 21q-256 35 -382 34.5t-210 -22.5q33 -53 33 -99.5t-2 -56.5q53 14 96 15q98 0 99 -76q0 -104 -153 -242.5t-304 -138.5 q-113 0 -169 47t-56 125q0 113 108.5 238.5t282.5 195.5q-84 98 -268 98q-139 0 -259 -41t-190 -98q-150 -123 -192 -217l-21 -41q-10 -16 -22.5 -16t-12.5 22q23 61 84.5 140t134 134.5t203.5 101.5t289 46q215 0 303 -113q129 43 235.5 43t193.5 -7t142.5 -15t141.5 -22.5 t112 -18.5q176 123 346 123q76 0 76 -45q0 -59 -127 -90t-196.5 -31t-92.5 2q-150 -117 -405 -434q-98 -123 -213 -260.5t-237.5 -257t-256.5 -215.5q-287 -211 -616 -211q-213 0 -321.5 84t-108.5 216zM473 289q0 -41 57 -41q35 0 57.5 37t22.5 80t-16 79 q-121 -88 -121 -155zM983 909q0 -72 46 -114.5t138 -42.5q125 0 253 122.5t128 212.5q0 55 -65 56q-31 0 -78 -15q-16 -74 -62.5 -126t-92.5 -52t-46 31q0 35 45 84t115 78q2 10 2 33q0 70 -35 124q-158 -53 -253 -168.5t-95 -222.5zM1249 1012q0 -12 22.5 -12.5t48.5 31.5 t38 79q-45 -23 -77 -52.5t-32 -45.5zM2214 1573q0 6 27 12q100 25 159 90q23 23 42.5 23t19.5 -19q0 -33 -90.5 -74.5t-143.5 -41.5q-14 0 -14 10zM2243 1311q16 -2 45 -2h6q68 0 155.5 22.5t88 50t-32.5 27.5q-125 0 -262 -98z" />
<glyph unicode="&#xce;" horiz-adv-x="1318" d="M37 200q0 132 124 244.5t314 112.5q94 0 141 -57q164 96 363 96q49 0 84 -17.5t43 -33.5l10 -17q0 -20 -18 -20q-8 0 -21 14q-30 41 -114 41q-182 -2 -328 -92q14 -31 14 -89t-44 -120.5t-103 -62.5q-82 0 -82 63q0 45 42 102.5t116 108.5q-37 51 -117 51 q-160 0 -262.5 -97t-102.5 -216t99.5 -198t272.5 -79t317.5 53.5t267.5 146.5t237.5 208t224 248t207.5 254q240 297 418 438q-47 4 -168 21q-256 35 -382 34.5t-210 -22.5q33 -53 33 -99.5t-2 -56.5q53 14 96 15q98 0 99 -76q0 -104 -153 -242.5t-304 -138.5 q-113 0 -169 47t-56 125q0 113 108.5 238.5t282.5 195.5q-84 98 -268 98q-139 0 -259 -41t-190 -98q-150 -123 -192 -217l-21 -41q-10 -16 -22.5 -16t-12.5 22q23 61 84.5 140t134 134.5t203.5 101.5t289 46q215 0 303 -113q129 43 235.5 43t193.5 -7t142.5 -15t141.5 -22.5 t112 -18.5q176 123 346 123q76 0 76 -45q0 -59 -127 -90t-196.5 -31t-92.5 2q-150 -117 -405 -434q-98 -123 -213 -260.5t-237.5 -257t-256.5 -215.5q-287 -211 -616 -211q-213 0 -321.5 84t-108.5 216zM473 289q0 -41 57 -41q35 0 57.5 37t22.5 80t-16 79 q-121 -88 -121 -155zM983 909q0 -72 46 -114.5t138 -42.5q125 0 253 122.5t128 212.5q0 55 -65 56q-31 0 -78 -15q-16 -74 -62.5 -126t-92.5 -52t-46 31q0 35 45 84t115 78q2 10 2 33q0 70 -35 124q-158 -53 -253 -168.5t-95 -222.5zM1249 1012q0 -12 22.5 -12.5t48.5 31.5 t38 79q-45 -23 -77 -52.5t-32 -45.5zM2034 1592.5q0 9.5 45 17.5t78.5 46t49 38t20.5 -11.5t7 -27.5q6 -39 62 -64q6 -2 6 -6t-7 -10t-16 -6q-45 0 -81 69q-82 -55 -150 -55q-14 0 -14 9.5zM2243 1311q16 -2 45 -2h6q68 0 155.5 22.5t88 50t-32.5 27.5q-125 0 -262 -98z" />
<glyph unicode="&#xcf;" horiz-adv-x="1318" d="M37 200q0 -132 108.5 -216t298 -84t348 56t292 153.5t256 217t237.5 257t213 260.5q256 317 405 434q23 -2 92.5 -2t196.5 30.5t127 90.5q0 45 -76 45q-170 0 -346 -123q-27 4 -112.5 18.5t-141.5 22.5q-152 23 -297 22.5t-274 -43.5q-88 113 -303 113q-229 0 -387 -84 q-150 -80 -221 -172q-76 -98 -93 -143l-10 -23q0 -23 12.5 -22.5t22.5 16.5q18 49 81.5 128t132.5 131t188.5 95t259.5 43q184 0 268 -98q-174 -70 -282.5 -196t-108.5 -238q0 -78 56 -125t169 -47q152 0 304.5 138t152.5 243q0 76 -99 76q-43 0 -96 -15q2 10 2 56.5 t-33 99.5q84 23 174.5 22.5t193.5 -9.5t224 -25.5t168 -20.5q-178 -141 -418 -438q-98 -121 -207.5 -254t-224 -248t-237.5 -207q-264 -201 -561 -201q-197 0 -296.5 79t-99.5 198t102.5 216t262.5 97q80 0 117 -51q-74 -51 -116 -108.5t-42 -102.5q0 -63 82 -63 q59 0 103 62.5t44 120.5t-14 89q146 90 328 92q76 0 98 -26q35 -43 51 -21q4 4 4 12q-6 25 -47 46.5t-90 21.5q-199 0 -363 -96q-47 57 -141 57q-190 0 -314 -112.5t-124 -244.5zM473 289q0 67 121 155q16 -37 16 -79.5t-22.5 -79.5t-57.5 -37q-57 0 -57 41zM983 909 q0 106 95.5 222t252.5 169q35 -55 35 -124q0 -23 -2 -33q-70 -29 -115 -78t-45 -84q0 -31 46 -31t92.5 52.5t62.5 125.5q47 14 78 15q66 0 65 -56q0 -90 -128 -212.5t-253 -122.5q-92 0 -138 43t-46 114zM1249 1012q0 16 32 45.5t77 52.5q-12 -47 -38 -79t-48.5 -32 t-22.5 13zM2019 1610q0 18 18.5 39.5t34 21.5t24.5 -9t9 -27.5t-21.5 -35t-35.5 -16.5q-29 0 -29 27zM2169 1591q0 19 18.5 40.5t33.5 21.5t24.5 -9.5t9.5 -28t-21.5 -34.5t-35.5 -16q-29 0 -29 26zM2243 1311q137 98 262 98q33 0 32.5 -27.5t-88.5 -50t-155 -22.5h-6 q-29 0 -45 2z" />
<glyph unicode="&#xd0;" horiz-adv-x="1839" d="M59 78q0 76 211 76q104 0 303 -56q57 -16 76 -20q186 84 383 280h-192q-23 1 -23 13q14 35 55 35h207q94 98 251 290.5t297 344t282 251.5q-162 78 -426 78q-154 0 -316 -59q25 -55 25 -121q0 -6 -1 -18.5t-1 -18.5q33 4 53 4q117 0 117 -98q0 -72 -65.5 -176.5 t-165 -200.5t-231.5 -163.5t-240.5 -67.5t-157.5 44t-49 119q0 164 191.5 380t469.5 327q-76 137 -266.5 137t-397 -137t-266.5 -256q-14 -25 -28.5 -25t-14.5 17q0 10 8 24q98 137 304 268.5t416 131.5t288 -144q174 61 350 62q274 0 447 -78q182 117 354 152 q16 0 16 -12.5t-14 -14.5q-166 -35 -323 -139q221 -115 221 -346q0 -156 -103.5 -330t-268.5 -318.5t-396.5 -240t-464.5 -95.5q-133 0 -355 58q-166 -55 -339 -55q-219 0 -220 98zM125 84q2 -82 157.5 -82t286.5 47q-256 74 -350 74t-94 -39zM518 631q0 -139 164 -139 q141 0 289.5 104t235.5 234.5t87 214t-84 83.5q-16 0 -24 -2q-16 -96 -76.5 -163.5t-144.5 -67.5q-55 0 -56 39q0 47 72 113.5t166 95.5q2 8 2 51t-25 100q-252 -106 -429 -310t-177 -353zM694 66q195 -53 310 -54q213 0 425.5 91.5t364.5 228.5t247 304t95 314 q0 215 -194 324q-127 -94 -259.5 -243.5t-281 -334t-250.5 -290.5h129q18 -2 18 -11.5t-8 -19.5q-16 -16 -33 -17h-153q-207 -205 -410 -292zM967 957.5q0 -27.5 16 -27.5q61 0 105.5 54t56.5 134q-76 -20 -127 -76.5t-51 -84z" />
<glyph unicode="&#xd1;" horiz-adv-x="1851" d="M47 201q0 129 112.5 236.5t291.5 107.5q113 0 153 -68q180 133 418 133q23 0 22.5 -16t-22.5 -16q-242 0 -408 -123q10 -31 11 -56q0 -74 -45 -141.5t-96.5 -67.5t-51.5 52q0 41 37 99t102 114q-41 55 -145 55q-143 0 -241.5 -95.5t-98.5 -207t91 -183t261 -71.5 t335 69.5t314.5 184.5t297 256t285.5 292.5t263 284.5q291 313 463 398q4 2 8 2q18 0 19 -25q0 -10 -23 -29q-61 -51 -100 -90q-84 -104 -173 -258.5t-134 -246.5q-82 -168 -179.5 -383t-97.5 -222.5t4 -7.5q20 18 144.5 170t274 312.5t340 331.5t408.5 281.5t410 110.5 q221 0 221 -133q0 -94 -106.5 -219t-265 -215t-291.5 -90q-70 0 -105.5 33t-35.5 84q0 100 105.5 194.5t262.5 94.5q23 0 29 -15q0 -10 -11.5 -18t-25.5 -8q-121 0 -221 -78t-100 -154q0 -90 156.5 -90t358 165t201.5 290q0 115 -200 114q-154 0 -329 -80.5t-319.5 -192.5 t-317.5 -285t-279.5 -299t-249 -298t-174 -208.5t-47 -36.5t-15.5 14t29.5 71.5t66.5 127.5q39 72 125 269t135.5 302.5t83 166t78.5 142.5q78 137 182 260q-127 -109 -314 -310.5t-350 -372.5t-351.5 -339t-390 -266t-394 -98t-292 83t-99.5 212zM358 993q41 59 113 127 t148.5 117t198.5 90t251 41q184 0 270 -103.5t86 -252.5v-19l78 68q6 113 72.5 210t163.5 97q31 0 30.5 -40t-60.5 -107.5t-171 -165.5v-11q0 -121 92 -120q66 0 105 34q14 12 22 12.5t8 -11t-8 -14.5t-19.5 -12t-23.5 -18q-35 -23 -94 -22q-106 0 -117 131l-82 -72 q-12 -113 -64 -195.5t-118 -82.5q-43 0 -43 43q0 74 193 244q2 14 2 40q0 139 -87 234.5t-282 95.5q-96 0 -211 -37q-221 -68 -383 -258q-12 -12 -25 -28q-23 -33 -30 -33q-14 8 -15 18zM481 274.5q0 -22.5 15 -22.5q30 0 62 46t32 81t-6 49q-49 -43 -76 -87t-27 -66.5z M1241 731q0 -16 10 -16q39 0 78 59.5t53 140.5q-141 -127 -141 -184zM1542 1094q166 148 166 209q0 12 -12 12q-51 0 -96.5 -68.5t-57.5 -152.5zM2707 1577q0 29 30 44t54.5 15t89 -25.5t95 -25.5t50 14.5t28 14.5t8.5 -12q0 -23 -34 -38.5t-58.5 -15.5t-91 27t-91 27 t-44 -16.5t-28 -16.5t-8.5 8z" />
<glyph unicode="&#xd2;" horiz-adv-x="1193" d="M74 220q0 134 87 314.5t216 338t295 272.5t309 131q14 0 14 -11.5t-20 -13.5q-166 -20 -364.5 -196t-335 -409.5t-136.5 -409.5q0 -258 310 -259q172 0 378 134q-133 37 -133 200q0 70 25 142q-41 -10 -76 -11q-127 0 -127 111q0 88 82 224t202 260t273.5 214t282.5 90 q242 0 241 -217q0 -205 -200.5 -498.5t-474.5 -488.5h26q92 0 235.5 68t262.5 207q20 20 27.5 20t7.5 -11t-25 -36q-270 -283 -549 -283q-25 0 -35 2q-254 -164 -475 -163q-166 0 -244.5 72.5t-78.5 206.5zM563 580q0 -102 125 -103q18 0 43 6q39 96 104.5 163t131.5 67 q33 0 32.5 -34t-70 -103.5t-159.5 -106.5q-29 -74 -29 -143q0 -150 133 -183q262 184 464 480t202 493q0 190 -207 191q-109 0 -248 -83t-251.5 -198t-191.5 -239.5t-79 -206.5zM782 504q59 29 111.5 74.5t52.5 68.5q0 12 -25.5 12t-65.5 -44t-73 -111zM1325 1565 q0 18 19.5 18t41.5 -22q59 -66 160 -91q27 -6 27 -12q0 -10 -14 -10q-53 0 -143.5 42t-90.5 75z" />
<glyph unicode="&#xd3;" horiz-adv-x="1230" d="M74 220q0 134 87 314.5t216 338t295 272.5t309 131q14 0 14 -11.5t-20 -13.5q-166 -20 -364.5 -196t-335 -409.5t-136.5 -409.5q0 -258 310 -259q172 0 378 134q-133 37 -133 200q0 70 25 142q-41 -10 -76 -11q-127 0 -127 111q0 88 82 224t202 260t273.5 214t282.5 90 q242 0 241 -217q0 -205 -200.5 -498.5t-474.5 -488.5h26q92 0 235.5 68t262.5 207q20 20 27.5 20t7.5 -11t-25 -36q-270 -283 -549 -283q-25 0 -35 2q-254 -164 -475 -163q-166 0 -244.5 72.5t-78.5 206.5zM563 580q0 -102 125 -103q18 0 43 6q39 96 104.5 163t131.5 67 q33 0 32.5 -34t-70 -103.5t-159.5 -106.5q-29 -74 -29 -143q0 -150 133 -183q262 184 464 480t202 493q0 190 -207 191q-109 0 -248 -83t-251.5 -198t-191.5 -239.5t-79 -206.5zM782 504q59 29 111.5 74.5t52.5 68.5q0 12 -25.5 12t-65.5 -44t-73 -111zM1409 1444q0 6 27 12 q100 25 159 90q23 23 42.5 23t19.5 -19q0 -33 -90 -74.5t-144 -41.5q-14 0 -14 10z" />
<glyph unicode="&#xd4;" horiz-adv-x="1232" d="M74 220q0 134 87 314.5t216 338t295 272.5t309 131q14 0 14 -11.5t-20 -13.5q-166 -20 -364.5 -196t-335 -409.5t-136.5 -409.5q0 -258 310 -259q172 0 378 134q-133 37 -133 200q0 70 25 142q-41 -10 -76 -11q-127 0 -127 111q0 88 82 224t202 260t273.5 214t282.5 90 q242 0 241 -217q0 -205 -200.5 -498.5t-474.5 -488.5h26q92 0 235.5 68t262.5 207q20 20 27.5 20t7.5 -11t-25 -36q-270 -283 -549 -283q-25 0 -35 2q-254 -164 -475 -163q-166 0 -244.5 72.5t-78.5 206.5zM563 580q0 -102 125 -103q18 0 43 6q39 96 104.5 163t131.5 67 q33 0 32.5 -34t-70 -103.5t-159.5 -106.5q-29 -74 -29 -143q0 -150 133 -183q262 184 464 480t202 493q0 190 -207 191q-109 0 -248 -83t-251.5 -198t-191.5 -239.5t-79 -206.5zM782 504q59 29 111.5 74.5t52.5 68.5q0 12 -25.5 12t-65.5 -44t-73 -111zM1307 1463.5 q0 9.5 45 17.5t78.5 46t49 38t20.5 -11.5t7 -25.5q6 -41 62 -66q6 -4 6 -7t-7 -9t-16 -6q-45 0 -82 69q-81 -55 -149 -55q-14 0 -14 9.5z" />
<glyph unicode="&#xd5;" horiz-adv-x="1239" d="M74 220q0 134 87 314.5t216 338t295 272.5t309 131q14 0 14 -11.5t-20 -13.5q-166 -20 -364.5 -196t-335 -409.5t-136.5 -409.5q0 -258 310 -259q172 0 378 134q-133 37 -133 200q0 70 25 142q-41 -10 -76 -11q-127 0 -127 111q0 88 82 224t202 260t273.5 214t282.5 90 q242 0 241 -217q0 -205 -200.5 -498.5t-474.5 -488.5h26q92 0 235.5 68t262.5 207q20 20 27.5 20t7.5 -11t-25 -36q-270 -283 -549 -283q-25 0 -35 2q-254 -164 -475 -163q-166 0 -244.5 72.5t-78.5 206.5zM563 580q0 -102 125 -103q18 0 43 6q39 96 104.5 163t131.5 67 q33 0 32.5 -34t-70 -103.5t-159.5 -106.5q-29 -74 -29 -143q0 -150 133 -183q262 184 464 480t202 493q0 190 -207 191q-109 0 -248 -83t-251.5 -198t-191.5 -239.5t-79 -206.5zM782 504q59 29 111.5 74.5t52.5 68.5q0 12 -25.5 12t-65.5 -44t-73 -111zM1260 1473 q0 28 29.5 43.5t54 15.5t90 -25.5t95.5 -25.5t49 14t27.5 14t8.5 -12q0 -23 -34 -38t-58.5 -15t-91 26.5t-91 26.5t-44 -16.5t-27.5 -16.5t-8 9z" />
<glyph unicode="&#xd6;" horiz-adv-x="1193" d="M74 220q0 134 87 314.5t216 338t295 272.5t309 131q14 0 14 -11.5t-20 -13.5q-166 -20 -364.5 -196t-335 -409.5t-136.5 -409.5q0 -258 310 -259q172 0 378 134q-133 37 -133 200q0 70 25 142q-41 -10 -76 -11q-127 0 -127 111q0 88 82 224t202 260t273.5 214t282.5 90 q242 0 241 -217q0 -205 -200.5 -498.5t-474.5 -488.5h26q92 0 235.5 68t262.5 207q20 20 27.5 20t7.5 -11t-25 -36q-270 -283 -549 -283q-25 0 -35 2q-254 -164 -475 -163q-166 0 -244.5 72.5t-78.5 206.5zM563 580q0 -102 125 -103q18 0 43 6q39 96 104.5 163t131.5 67 q33 0 32.5 -34t-70 -103.5t-159.5 -106.5q-29 -74 -29 -143q0 -150 133 -183q262 184 464 480t202 493q0 190 -207 191q-109 0 -248 -83t-251.5 -198t-191.5 -239.5t-79 -206.5zM782 504q59 29 111.5 74.5t52.5 68.5q0 12 -25.5 12t-65.5 -44t-73 -111zM1319 1491 q0 18 18.5 39.5t33.5 21.5t24.5 -9t9.5 -27.5t-21.5 -35t-35.5 -16.5q-29 0 -29 27zM1468 1473q0 18 18.5 39.5t34 21.5t24.5 -9t9 -27.5t-21.5 -35t-35.5 -16.5q-29 0 -29 27z" />
<glyph unicode="&#xd7;" horiz-adv-x="761" d="M307 331.5q0 16.5 10 26.5l314 234l-182 239q4 37 18 37q10 0 21.5 -17t13.5 -20l162 -215l286 215q37 0 37 -13t-35 -38l-264 -194l191 -250q4 -4 4 -8q0 -12 -17.5 -12.5t-31.5 14.5l-179 231l-331 -244q-4 -2 -10.5 -2t-6.5 16.5z" />
<glyph unicode="&#xd8;" horiz-adv-x="1243" d="M-14 -60.5q0 7.5 7 13.5t23 18q53 43 117 101q-33 59 -33 143q0 139 87 319.5t216 338t295 272.5t310 131h6q8 0 8 -8v-4q0 -10 -21 -13q-166 -20 -364.5 -196t-334.5 -409.5t-136 -409.5q0 -70 20 -117q189 160 392 334q-31 35 -35 100q0 88 82 224t201.5 260t273 214 t277.5 90t186 -57q156 129 167 134t23 5t12 -8t-31.5 -29.5t-150.5 -121.5q41 -57 41 -140q0 -145 -111.5 -350t-280.5 -389t-390 -314t-418 -130t-274 104q-55 -45 -144 -113q-20 0 -20 7.5zM203 88q72 -111 255 -111t382.5 127t356.5 305.5t263.5 375t106.5 331.5 q0 66 -27 111q-123 -104 -443.5 -379t-457.5 -391q25 -20 81 -20.5t143 36.5t139.5 68.5t59.5 39t18.5 7.5t11 -11.5t-8.5 -17.5q-246 -160 -383 -160q-61 0 -98 27zM591.5 591q-0.5 -73 22.5 -108q633 539 908 766q-53 57 -162 57.5t-248 -81.5t-251.5 -197t-190.5 -239.5 t-78.5 -197.5z" />
<glyph unicode="&#xd9;" horiz-adv-x="1409" d="M-375 995q0 -16 14.5 -16t28.5 25q57 111 287.5 240.5t429.5 129.5q150 0 209 -90q-215 -102 -365.5 -283.5t-150.5 -322.5q0 -172 225 -172q123 0 259 98t221 226t85 221q0 106 -123 106q-45 0 -81 -14q2 6 2 45t-23 84q141 59 283 59q213 0 213 -153q0 -123 -75 -256.5 t-182.5 -246t-213.5 -218.5q-256 -256 -256 -398q0 -41 29.5 -68.5t64.5 -27.5q188 0 610 328q-68 -135 -67.5 -208t34 -119t93.5 -46q115 0 280 109q20 14 19.5 27.5t-9 13.5t-22.5 -11q-137 -104 -230 -104q-109 0 -108 135q0 94 94 266q266 215 465 433.5t199 306.5 q0 33 -31 32q-82 0 -311.5 -260t-370.5 -512q-432 -350 -590 -350q-35 0 -57.5 20.5t-22.5 65.5t39 113.5t101.5 136.5t139.5 141.5t152.5 154.5t139.5 167q139 190 139 391q0 174 -242 174q-158 0 -319 -70q-66 104 -232 105q-217 0 -446 -127t-320 -256q-8 -14 -8 -25z M139 705q0 131 136.5 296.5t334.5 255.5q23 -45 23 -108v-19q-70 -32 -116 -91.5t-46 -99.5t44 -40t90 66.5t59 154.5q29 8 49 8q102 0 102 -94q0 -133 -160.5 -310t-316.5 -177q-100 0 -149.5 43t-49.5 115zM514 959.5q0 25.5 33 73.5t84 75q-8 -70 -39 -122t-64 -52 q-14 0 -14 25.5zM1243 432q129 209 306 417t216 208q14 0 15 -17q0 -68 -158 -242.5t-379 -365.5zM1419 1464q0 18 19.5 18.5t42.5 -22.5q59 -66 159 -90q27 -6 27 -12q0 -10 -14 -10q-53 0 -143.5 42t-90.5 74z" />
<glyph unicode="&#xda;" horiz-adv-x="1409" d="M-375 995q0 10 8 25q90 129 319.5 256t446.5 127q166 0 232 -105q161 70 319 70q242 0 242 -174q0 -201 -139 -391q-96 -129 -293 -322q-76 -74 -137 -141q-141 -152 -142 -264q0 -31 22.5 -51.5t57.5 -20.5q158 0 590 350q141 252 370.5 512t311.5 260q31 0 31 -32 q0 -88 -199 -306.5t-465 -433.5q-94 -172 -94 -266q0 -135 108 -135q92 0 230 104q14 10 22.5 10.5t9.5 -13t-20 -27.5q-166 -109 -280 -109q-59 0 -93 46t-34 119t67 208q-422 -328 -610 -328q-35 0 -64.5 27.5t-29.5 68.5q0 141 256 398q106 106 213.5 218.5t182.5 246 t75 256.5q0 154 -213 153q-141 0 -283 -59q23 -45 23 -83t-2 -46q37 14 81 14q123 0 123 -106q0 -92 -85 -220.5t-221 -226.5t-259 -98q-225 0 -225 172q0 141 150.5 322.5t365.5 283.5q-59 90 -209 90q-199 0 -429 -130t-288 -240q-14 -25 -28.5 -25t-14.5 16zM139 705 q0 -72 49.5 -115t149.5 -43q156 0 316.5 177t160.5 310q0 94 -102 94q-20 0 -49 -8q-13 -88 -59 -154.5t-90 -66.5t-44 40t46 99.5t116 91.5v19q0 63 -23 108q-199 -90 -335 -255.5t-136 -296.5zM514 959.5q0 -25.5 14 -25.5q33 0 64 52t39 122q-51 -27 -84 -75t-33 -73.5z M1243 432q221 190 379 365.5t158 242.5q-1 17 -15 17q-39 0 -216 -208t-306 -417zM1542 1329q0 6 27 12q100 25 160 91q23 23 42 22.5t19 -18.5q0 -33 -90 -75t-144 -42q-14 0 -14 10z" />
<glyph unicode="&#xdb;" horiz-adv-x="1409" d="M-375 995q0 10 8 25q90 129 319.5 256t446.5 127q166 0 232 -105q161 70 319 70q242 0 242 -174q0 -201 -139 -391q-96 -129 -293 -322q-76 -74 -137 -141q-141 -152 -142 -264q0 -31 22.5 -51.5t57.5 -20.5q158 0 590 350q141 252 370.5 512t311.5 260q31 0 31 -32 q0 -88 -199 -306.5t-465 -433.5q-94 -172 -94 -266q0 -135 108 -135q92 0 230 104q14 10 22.5 10.5t9.5 -13t-20 -27.5q-166 -109 -280 -109q-59 0 -93 46t-34 119t67 208q-422 -328 -610 -328q-35 0 -64.5 27.5t-29.5 68.5q0 141 256 398q106 106 213.5 218.5t182.5 246 t75 256.5q0 154 -213 153q-141 0 -283 -59q23 -45 23 -83t-2 -46q37 14 81 14q123 0 123 -106q0 -92 -85 -220.5t-221 -226.5t-259 -98q-225 0 -225 172q0 141 150.5 322.5t365.5 283.5q-59 90 -209 90q-199 0 -429 -130t-288 -240q-14 -25 -28.5 -25t-14.5 16zM139 705 q0 -72 49.5 -115t149.5 -43q156 0 316.5 177t160.5 310q0 94 -102 94q-20 0 -49 -8q-13 -88 -59 -154.5t-90 -66.5t-44 40t46 99.5t116 91.5v19q0 63 -23 108q-199 -90 -335 -255.5t-136 -296.5zM514 959.5q0 -25.5 14 -25.5q33 0 64 52t39 122q-51 -27 -84 -75t-33 -73.5z M1243 432q221 190 379 365.5t158 242.5q-1 17 -15 17q-39 0 -216 -208t-306 -417zM1440 1355q0 9 45 17t78.5 46t49 38t20.5 -11t7 -28q6 -39 62 -63q6 -2 6 -6.5t-7 -10.5t-15 -6q-45 0 -82 70q-82 -55 -150 -55q-14 0 -14 9z" />
<glyph unicode="&#xdc;" horiz-adv-x="1409" d="M-375 995q0 -16 14.5 -16t28.5 25q57 111 287.5 240.5t429.5 129.5q150 0 209 -90q-215 -102 -365.5 -283.5t-150.5 -322.5q0 -172 225 -172q123 0 259 98t221 226t85 221q0 106 -123 106q-45 0 -81 -14q2 8 2 46t-23 83q141 59 283 59q213 0 213 -153q0 -123 -75 -256.5 t-182.5 -246t-213.5 -218.5q-256 -256 -256 -398q0 -41 29.5 -68.5t64.5 -27.5q188 0 610 328q-68 -135 -67.5 -208t34 -119t93.5 -46q115 0 280 109q20 14 19.5 27.5t-9 13.5t-22.5 -11q-137 -104 -230 -104q-109 0 -108 135q0 94 94 266q266 215 465 433.5t199 306.5 q0 33 -31 32q-82 0 -311.5 -260t-370.5 -512q-432 -350 -590 -350q-35 0 -57.5 20.5t-22.5 65.5t39 113.5t101.5 136.5t139.5 141.5t152.5 154.5t139.5 167q139 190 139 391q0 174 -242 174q-158 0 -319 -70q-66 104 -232 105q-217 0 -446 -127t-320 -256q-8 -14 -8 -25z M139 705q0 131 136.5 296.5t334.5 255.5q23 -45 23 -108v-19q-70 -32 -116 -91.5t-46 -99.5t44 -40t90 66.5t59 154.5q29 8 49 8q102 0 102 -94q0 -133 -160.5 -310t-316.5 -177q-100 0 -149.5 43t-49.5 115zM514 959.5q0 25.5 33 73.5t84 75q-8 -70 -39 -122t-64 -52 q-14 0 -14 25.5zM1243 432q129 209 306 417t216 208q14 0 15 -17q0 -68 -158 -242.5t-379 -365.5zM1470 1378q0 19 18.5 40.5t34 21.5t24.5 -9.5t9 -28t-21.5 -34.5t-35.5 -16q-29 0 -29 26zM1620 1360q0 18 18.5 39.5t34 21.5t24.5 -9t9 -27.5t-21.5 -35t-35.5 -16.5 q-29 0 -29 27z" />
<glyph unicode="&#xdd;" horiz-adv-x="1220" d="M-365 -668q0 88 103.5 192.5t292 183.5t395.5 79q121 0 201 -20q139 160 305 368q-262 -172 -402 -172q-35 0 -66.5 27.5t-31.5 68.5q0 139 258 394q106 104 214 215.5t183.5 246t75.5 263.5q0 154 -213 153q-141 0 -282 -59q23 -45 22 -107l-2 -20q53 12 82 12 q123 0 123 -106q0 -92 -85 -220.5t-221 -226.5t-259 -98q-225 0 -226 172q0 141 150.5 322.5t365.5 283.5q-59 90 -208 90q-199 0 -429.5 -130t-287.5 -240q-14 -25 -28.5 -25t-14.5 16q0 10 8 25q90 129 319.5 256t446.5 127q166 0 231 -105q162 70 320 70q244 0 244 -174 q0 -137 -74 -278.5t-178.5 -255t-209 -217t-178 -200t-73.5 -167.5q0 -31 22.5 -51.5t57.5 -20.5q119 0 397 199q39 51 110.5 143t110.5 143.5t101.5 130t100.5 123.5t90 103.5t88 91.5t75 66q70 59 129 59q31 0 31 -33q0 -100 -235.5 -347t-518.5 -454q-213 -280 -391 -477 q127 -45 168 -135q184 131 456 131q92 0 172 -29q12 -6 12.5 -19t-18.5 -13q-2 0 -19.5 7t-35.5 13q-59 18 -125 19q-262 0 -432 -136q8 -25 8 -76t-40 -105t-87 -54t-47 45q0 90 121 190q-43 88 -158 134q-477 -520 -792 -521q-111 0 -166.5 36t-55.5 93zM-287 -655 q0 -102 176 -103q268 0 713 498q-80 22 -186 22q-174 0 -343 -73.5t-264.5 -170t-95.5 -173.5zM164 705q0 -72 49 -115t149 -43q156 0 317 177t161 310q0 94 -103 94q-20 0 -49 -8q-12 -88 -58 -154.5t-93.5 -66.5t-47.5 44t47.5 101.5t120.5 88.5v16q0 63 -22 108 q-199 -90 -335 -255.5t-136 -296.5zM539 959.5q0 -25.5 14 -25.5q33 0 63.5 52t38.5 122q-51 -27 -83.5 -75t-32.5 -73.5zM731 -575q0 -23 26.5 -23t48 29.5t21.5 63.5t-10 69q-86 -84 -86 -139zM1130 315q238 188 421.5 386t183.5 276q0 16 -14.5 16t-35 -10t-46 -33.5 t-51 -49.5t-61.5 -70t-65.5 -80.5t-76 -97t-78.5 -103.5q-119 -156 -177 -234zM1540 1321q0 6 27 12q100 25 159 90q23 23 42.5 23t19.5 -19q0 -33 -90 -74.5t-144 -41.5q-14 0 -14 10z" />
<glyph unicode="&#xde;" horiz-adv-x="1609" d="M29 218q0 132 116.5 243.5t292.5 111.5q141 0 178 -98q100 63 205 90q-6 20 -6 45q0 109 116 243t310 216q-100 115 -309 115q-141 0 -265 -44t-200 -108q-160 -131 -217 -237l-23 -43q-10 -16 -22 -16.5t-12 22.5q29 66 98 151.5t147 145t214 108.5t294 49 q223 0 330 -129q195 72 380 72t302 -37q356 360 661 389q18 0 23 -14q0 -18 -39 -25q-281 -33 -604 -364q201 -84 201 -256q0 -125 -110 -248t-294 -190q74 -12 137.5 -12.5t85 0.5t21.5 -9q0 -14 -39 -20q-139 0 -256 24q-145 -43 -307 -43q-53 0 -99 10 q-209 -209 -425 -326.5t-445 -117.5t-334.5 85t-105.5 217zM100 225q0 -121 93.5 -199.5t296 -78.5t400 113.5t402.5 318.5q-31 18 -30.5 41.5t34 42t99.5 22.5q78 84 256 291t274 307q-113 39 -288 39t-345 -61q31 -49 31 -96l-2 -23q8 2 27 2q131 0 131 -80 q0 -66 -82 -158t-203 -161.5t-222.5 -69.5t-140.5 66q-106 -32 -206 -95q2 -8 2 -28q0 -74 -45 -140.5t-104.5 -66.5t-59.5 45q0 39 46 94.5t122 106.5q-37 92 -169 92t-224.5 -101.5t-92.5 -222.5zM461 268q0 -23 35.5 -22.5t67.5 48.5t32 107q0 16 -2 25 q-133 -99 -133 -158zM864 623q0 -25 6 -43q78 16 154 16q27 -6 27 -21q0 -6 -44 -6t-122 -16q33 -43 106 -43q133 0 281.5 126t148.5 216q0 61 -88 61l-14 -2q-14 -86 -67.5 -143t-131.5 -57q-33 0 -33 37.5t60.5 102t142.5 85.5v10q0 47 -33 101q-180 -76 -286.5 -200 t-106.5 -224zM1139 784.5q0 -20.5 12 -20.5q51 0 88 41t47 102q-59 -14 -103 -58t-44 -64.5zM1333 436q0 -4 4 -12l33 37q-37 -7 -37 -25zM1376 397q45 -18 133 -18t187 27q-27 6 -82 20q-110 31 -178 35zM1458 483q61 -2 289 -63q176 59 284.5 178t108.5 240 q0 156 -174 231q-90 -96 -260 -298t-248 -288z" />
<glyph unicode="&#xdf;" horiz-adv-x="516" d="M-750 -584l15 27q92 0 210.5 85t241.5 221t255 300t265.5 329t257 301t247.5 221t223 85q66 0 65 -59q0 -76 -93 -195t-210 -184v-4q0 -88 -92 -223.5t-231.5 -241t-253.5 -105.5q-61 0 -62 54q0 41 40 76.5t109.5 35.5t69.5 -24q0 -13 -14 -13l-51 9q-41 0 -66.5 -22.5 t-25.5 -49.5t34 -27q133 0 313.5 192.5t182.5 317.5q-57 -25 -133 -24.5t-76 41.5q0 33 46 61.5t120 28.5t86 -58q94 63 178 175t84 172q0 35 -35 34q-115 0 -285.5 -158.5t-351 -384t-363.5 -450.5t-371.5 -384t-328.5 -159zM532 557q0 -31 74 -31q33 1 72 19 q-14 57 -80 57t-66 -45z" />
<glyph unicode="&#xe0;" d="M39 70q0 86 102.5 179t237.5 93q72 0 119 -51q2 0 32 31q14 23 33 22.5t19 -18.5l-9 -19q-6 -10 -80.5 -100t-86 -106.5t-11.5 -49.5q0 -23 29 -22q59 0 168 98q6 8 13 8t7 -10q0 -25 -83 -78t-148 -53q-45 0 -45 47q0 16 -5 16t-7 -2q-102 -68 -193.5 -67.5t-91.5 82.5z M109 86q0 -61 59 -61q80 0 178 82.5t115 142.5q0 25 -31 42t-70 17q-94 0 -172.5 -81t-78.5 -142zM328 549q0 18 19.5 18t41.5 -22q59 -66 160 -90q26 -7 26 -13q0 -10 -14 -10q-53 0 -143 42t-90 75z" />
<glyph unicode="&#xe1;" d="M39 70q0 86 102.5 179t237.5 93q72 0 119 -51q2 0 32 31q14 23 33 22.5t19 -18.5l-9 -19q-6 -10 -80.5 -100t-86 -106.5t-11.5 -49.5q0 -23 29 -22q59 0 168 98q6 8 13 8t7 -10q0 -25 -83 -78t-148 -53q-45 0 -45 47q0 16 -5 16t-7 -2q-102 -68 -193.5 -67.5t-91.5 82.5z M109 86q0 -61 59 -61q80 0 178 82.5t115 142.5q0 25 -31 42t-70 17q-94 0 -172.5 -81t-78.5 -142zM389 422q0 6 27 12q100 25 159 90q23 23 42.5 23t19.5 -19q0 -33 -90 -74.5t-144 -41.5q-14 0 -14 10z" />
<glyph unicode="&#xe2;" d="M39 70q0 86 102.5 179t237.5 93q72 0 119 -51q2 0 32 31q14 23 33 22.5t19 -18.5l-9 -19q-6 -10 -80.5 -100t-86 -106.5t-11.5 -49.5q0 -23 29 -22q59 0 168 98q6 8 13 8t7 -10q0 -25 -83 -78t-148 -53q-45 0 -45 47q0 16 -5 16t-7 -2q-102 -68 -193.5 -67.5t-91.5 82.5z M109 86q0 -61 59 -61q80 0 178 82.5t115 142.5q0 25 -31 42t-70 17q-94 0 -172.5 -81t-78.5 -142zM336 441.5q0 9.5 45 17.5t79 46t49 38t20.5 -11.5t7.5 -27.5q6 -39 61 -64q6 -2 6 -6t-7 -10t-15 -6q-45 0 -82 69q-82 -55 -150 -55q-14 0 -14 9.5z" />
<glyph unicode="&#xe3;" d="M39 70q0 86 102.5 179t237.5 93q72 0 119 -51q2 0 32 31q14 23 33 22.5t19 -18.5l-9 -19q-6 -10 -80.5 -100t-86 -106.5t-11.5 -49.5q0 -23 29 -22q59 0 168 98q6 8 13 8t7 -10q0 -25 -83 -78t-148 -53q-45 0 -45 47q0 16 -5 16t-7 -2q-102 -68 -193.5 -67.5t-91.5 82.5z M109 86q0 -61 59 -61q80 0 178 82.5t115 142.5q0 25 -31 42t-70 17q-94 0 -172.5 -81t-78.5 -142zM272 457q0 28 30 43.5t54.5 15.5t90 -25.5t95 -25.5t49 14.5t28 14.5t8.5 -13q0 -23 -34 -38t-58.5 -15t-91 26.5t-91 26.5t-44 -16t-28 -16t-8.5 8z" />
<glyph unicode="&#xe4;" d="M39 70q0 86 102.5 179t237.5 93q72 0 119 -51q2 0 32 31q14 23 33 22.5t19 -18.5l-9 -19q-6 -10 -80.5 -100t-86 -106.5t-11.5 -49.5q0 -23 29 -22q59 0 168 98q6 8 13 8t7 -10q0 -25 -83 -78t-148 -53q-45 0 -45 47q0 16 -5 16t-7 -2q-102 -68 -193.5 -67.5t-91.5 82.5z M109 86q0 -61 59 -61q80 0 178 82.5t115 142.5q0 25 -31 42t-70 17q-94 0 -172.5 -81t-78.5 -142zM379 471q0 18 18.5 39.5t33.5 21.5t24.5 -9t9.5 -27.5t-21.5 -35t-35.5 -16.5q-29 0 -29 27zM528 453q0 18 18.5 39.5t34 21.5t24.5 -9t9 -27.5t-21.5 -35t-35.5 -16.5 q-29 0 -29 27z" />
<glyph unicode="&#xe5;" d="M39 70q0 86 102.5 179t237.5 93q72 0 119 -51q2 0 32 31q14 23 33 22.5t19 -18.5l-9 -19q-6 -10 -80.5 -100t-86 -106.5t-11.5 -49.5q0 -23 29 -22q59 0 168 98q6 8 13 8t7 -10q0 -25 -83 -78t-148 -53q-45 0 -45 47q0 16 -5 16t-7 -2q-102 -68 -193.5 -67.5t-91.5 82.5z M109 86q0 -61 59 -61q80 0 178 82.5t115 142.5q0 25 -31 42t-70 17q-94 0 -172.5 -81t-78.5 -142zM449 449q2 23 28.5 53t66.5 30t40 -36q-2 -31 -32 -56.5t-66.5 -25.5t-36.5 35zM477 457q0 -18 21.5 -18.5t38 15t18.5 35.5q0 18 -23.5 18.5t-39 -19t-15.5 -31.5z" />
<glyph unicode="&#xe6;" horiz-adv-x="741" d="M39 70q0 86 102.5 179t237.5 93q72 0 119 -51q2 0 32 31q14 23 31 22.5t21 -18.5q45 23 92 22q72 0 71 -63q0 -123 -274 -213q16 -47 90 -47q125 0 238 102q6 8 13 8t7 -13t-37 -44t-104.5 -59.5t-132.5 -28.5q-139 0 -139 114l-82 -49q-102 -68 -193.5 -67.5t-91.5 82.5 zM109 86q0 -61 59 -61q80 0 178 82.5t115 142.5q0 25 -31 42t-70 17q-94 0 -172.5 -81t-78.5 -142zM465 92q229 86 229 176q0 45 -47 45q-68 0 -125 -75.5t-57 -145.5z" />
<glyph unicode="&#xe7;" horiz-adv-x="440" d="M39 76q0 88 106.5 181t222 93t115.5 -76q0 -47 -47 -83.5t-85 -36.5t-55 15t-17 28.5t15 31t25 19.5q18 0 19 -17q0 -4 -4 -9t-4 -27q0 -16 23.5 -16.5t49 23t25.5 56.5q0 70 -78 70t-162 -83t-84 -157q0 -82 117 -82q166 0 283 121q6 8 13 8t7 -11t-30.5 -42 t-109.5 -66.5t-177 -38.5l-2 -14q29 -8 28.5 -30.5t-27 -39t-79.5 -16.5t-53 14.5t14 14.5q25 -6 41 -6q70 0 70 37q0 4 -10.5 9t-10.5 10t4 21q-143 2 -143 99z" />
<glyph unicode="&#xe8;" horiz-adv-x="382" d="M47 92q0 -102 139 -102q66 0 133.5 28.5t104.5 59.5t37 44t-7.5 13t-13.5 -8q-113 -102 -237 -102q-74 0 -90 47q274 90 274 213q0 63 -72 63q-98 0 -183 -86t-85 -170zM106 92v14q0 68 58.5 137.5t115 69.5t56.5 -45q-1 -88 -230 -176zM188 549q0 18 19.5 18t42.5 -22 q59 -66 160 -90q26 -7 26 -13q0 -10 -14 -10q-53 0 -143.5 42t-90.5 75z" />
<glyph unicode="&#xe9;" horiz-adv-x="382" d="M47 92q0 84 85 170t183 86q72 0 72 -63q0 -123 -274 -213q16 -47 90 -47q125 0 237 102q6 8 13.5 8t7.5 -13t-37 -44t-104.5 -59.5t-133.5 -28.5q-139 0 -139 102zM106 92q229 88 230 176q0 45 -56.5 45t-115 -69.5t-58.5 -137.5v-14zM231 422q0 6 27 12q100 25 160 90 q23 23 42 23t19 -19q0 -33 -90 -74.5t-143 -41.5q-15 0 -15 10z" />
<glyph unicode="&#xea;" horiz-adv-x="382" d="M47 92q0 84 85 170t183 86q72 0 72 -63q0 -123 -274 -213q16 -47 90 -47q125 0 237 102q6 8 13.5 8t7.5 -13t-37 -44t-104.5 -59.5t-133.5 -28.5q-139 0 -139 102zM106 92q229 88 230 176q0 45 -56.5 45t-115 -69.5t-58.5 -137.5v-14zM193 441.5q0 9.5 45 17.5t78.5 46 t49 38t20.5 -11.5t7 -27.5q6 -39 62 -64q6 -2 6 -6t-7.5 -10t-15.5 -6q-45 0 -82 69q-81 -55 -149 -55q-14 0 -14 9.5z" />
<glyph unicode="&#xeb;" horiz-adv-x="382" d="M47 92q0 -102 139 -102q66 0 133.5 28.5t104.5 59.5t37 44t-7.5 13t-13.5 -8q-113 -102 -237 -102q-74 0 -90 47q274 90 274 213q0 63 -72 63q-98 0 -183 -86t-85 -170zM106 92v14q0 68 58.5 137.5t115 69.5t56.5 -45q-1 -88 -230 -176zM233 471q0 18 18.5 39.5t34 21.5 t24.5 -9t9 -27.5t-21.5 -35t-35.5 -16.5q-29 0 -29 27zM383 453q0 18 18.5 39.5t34 21.5t24.5 -9t9 -27.5t-21.5 -35t-35.5 -16.5q-29 0 -29 27z" />
<glyph unicode="&#xec;" horiz-adv-x="206" d="M6 41q0 -47 45 -47q66 0 149 53t83 78q0 10 -7.5 10t-13.5 -8q-109 -98 -168 -98q-28 -1 -28 22q0 33 53 90l153 174q12 12 12.5 20.5t-7 14.5t-18.5 6t-19.5 -7t-32 -35.5t-64.5 -77t-54 -64.5t-29.5 -35.5t-26.5 -32.5q-27 -37 -27 -63zM131 549q0 18 19.5 18t42.5 -22 q59 -66 159 -90q27 -7 27 -13q0 -10 -14 -10q-53 0 -143.5 42t-90.5 75z" />
<glyph unicode="&#xed;" horiz-adv-x="206" d="M6 41q0 27 18.5 51.5t35 44t29.5 35.5t54 64.5t64.5 77t32 35.5t19.5 7t18.5 -6t7.5 -14t-13 -21l-153 -174q-53 -57 -53 -90q0 -23 28 -22q59 0 168 98q6 8 13.5 8t7.5 -10q0 -25 -83 -78t-149 -53q-45 0 -45 47zM260 422q0 6 27 12q100 25 159 90q23 23 42.5 23 t19.5 -19q0 -33 -90 -74.5t-144 -41.5q-14 0 -14 10z" />
<glyph unicode="&#xee;" horiz-adv-x="206" d="M6 41q0 27 18.5 51.5t35 44t29.5 35.5t54 64.5t64.5 77t32 35.5t19.5 7t18.5 -6t7.5 -14t-13 -21l-153 -174q-53 -57 -53 -90q0 -23 28 -22q59 0 168 98q6 8 13.5 8t7.5 -10q0 -25 -83 -78t-149 -53q-45 0 -45 47zM166 441.5q0 9.5 45 17.5t79 46t49 38t20.5 -11.5 t7.5 -27.5q6 -39 61 -64q6 -2 6 -6t-7 -10t-15 -6q-45 0 -82 69q-82 -55 -150 -55q-14 0 -14 9.5z" />
<glyph unicode="&#xef;" horiz-adv-x="206" d="M6 41q0 -47 45 -47q66 0 149 53t83 78q0 10 -7.5 10t-13.5 -8q-109 -98 -168 -98q-28 -1 -28 22q0 33 53 90l153 174q12 12 12.5 20.5t-7 14.5t-18.5 6t-19.5 -7t-32 -35.5t-64.5 -77t-54 -64.5t-29.5 -35.5t-26.5 -32.5q-27 -37 -27 -63zM242 471q0 18 18.5 39.5 t33.5 21.5t24.5 -9t9.5 -27.5t-21.5 -35t-36.5 -16.5q-29 0 -28 27zM391 453q0 18 18.5 39.5t34 21.5t24.5 -9t9 -27.5t-21.5 -35t-35.5 -16.5q-29 0 -29 27z" />
<glyph unicode="&#xf0;" horiz-adv-x="497" d="M45 78q0 94 87 184t222 90q37 0 67 -14t42 -31l10 -14q0 -25 -20 -25q-12 0 -19 17q-43 35 -98 34q-96 0 -168 -77.5t-72 -149.5t70 -72q109 0 217.5 111t179 263.5t94.5 303.5l-135 -22q-12 0 -12 6l2 6q16 25 33 25l117 20q6 43 6 82q0 195 -125 195q-29 0 -29 14 q0 25 56.5 25t102.5 -68t46 -162q0 -37 -6 -78l112 21q15 0 15 -8q0 -18 -27 -27l-104 -18q-39 -248 -189 -476q-74 -109 -175 -179t-210 -70q-90 0 -90 94z" />
<glyph unicode="&#xf1;" horiz-adv-x="481" d="M-39 14q2 6 29.5 41t36.5 43l166 207q61 70 73 70q25 0 25 -21q-6 -10 -24.5 -30.5t-26.5 -34.5q117 74 188 73q31 0 49.5 -14t24.5 -43q0 -47 -80 -134t-80 -120q0 -23 29 -22q59 0 168 98q6 8 13 8t7 -10q0 -25 -83 -78t-148 -53q-45 0 -45 45t77.5 132t77.5 115.5 t-50 27.5t-179 -70q-29 -27 -124 -137.5t-101 -112.5q-23 0 -23 20zM276 457q0 28 30 43.5t54.5 15.5t89 -25.5t95 -25.5t50 14.5t28 14.5t8.5 -13q0 -23 -34 -38t-58.5 -15t-91 26.5t-91 26.5t-44 -16t-28 -16t-8.5 8z" />
<glyph unicode="&#xf2;" horiz-adv-x="436" d="M8 80q0 -90 121 -90q88 0 170 64.5t115 150.5q63 2 135 28.5t88 41t16 21.5t-10 7q-14 -14 -88 -43t-133 -29q8 25 8 65t-25.5 65.5t-69.5 25.5t-63 -39q-90 -2 -177 -94t-87 -174zM78 96q0 68 60.5 142.5t129.5 76.5q7 -100 107 -110q-25 -76 -94.5 -130.5t-122.5 -54.5 q-80 0 -80 76zM279 567q0 18 19 18.5t42 -22.5q59 -66 160 -90q26 -6 26 -12q0 -10 -14 -10q-53 0 -143 42t-90 74zM315 336q0 16 18.5 16t35 -21.5t16.5 -53t-2 -41.5q-68 16 -68 100z" />
<glyph unicode="&#xf3;" horiz-adv-x="436" d="M8 80q0 82 87 174t177 94q18 39 62.5 39t70 -25.5t25.5 -65.5t-8 -65q59 0 133 29t88 43l10 -10q0 -4 -16 -18.5t-88 -41t-135 -28.5q-33 -86 -115 -150.5t-170 -64.5q-121 0 -121 90zM78 96q0 -76 80 -76q53 0 122.5 54.5t94.5 130.5q-100 10 -107 110 q-70 -2 -130 -76.5t-60 -142.5zM315 336q0 -84 68 -100q2 10 2 41.5t-16.5 53t-35 21.5t-18.5 -16zM324 446q0 6 26 13q100 25 160 90q23 23 42 22.5t19 -18.5q0 -33 -90 -75t-143 -42q-14 0 -14 10z" />
<glyph unicode="&#xf4;" horiz-adv-x="436" d="M8 80q0 82 87 174t177 94q18 39 62.5 39t70 -25.5t25.5 -65.5t-8 -65q59 0 133 29t88 43l10 -10q0 -4 -16 -18.5t-88 -41t-135 -28.5q-33 -86 -115 -150.5t-170 -64.5q-121 0 -121 90zM78 96q0 -76 80 -76q53 0 122.5 54.5t94.5 130.5q-100 10 -107 110 q-70 -2 -130 -76.5t-60 -142.5zM240 441.5q0 9.5 45 17.5t78.5 46t49 38t20.5 -11.5t7 -27.5q6 -39 62 -64q6 -2 6 -6t-7 -10t-16 -6q-45 0 -82 69q-81 -55 -149 -55q-14 0 -14 9.5zM315 336q0 -84 68 -100q2 10 2 41.5t-16.5 53t-35 21.5t-18.5 -16z" />
<glyph unicode="&#xf5;" horiz-adv-x="436" d="M8 80q0 82 87 174t177 94q18 39 62.5 39t70 -25.5t25.5 -65.5t-8 -65q59 0 133 29t88 43l10 -10q0 -4 -16 -18.5t-88 -41t-135 -28.5q-33 -86 -115 -150.5t-170 -64.5q-121 0 -121 90zM78 96q0 -76 80 -76q53 0 122.5 54.5t94.5 130.5q-100 10 -107 110 q-70 -2 -130 -76.5t-60 -142.5zM213 469q0 29 29.5 44t55.5 15t89.5 -25.5t94 -25.5t50 14.5t27.5 14.5t8 -12q0 -23 -33.5 -38.5t-58 -15.5t-91.5 27t-91.5 27t-44 -16.5t-27.5 -16.5t-8 8zM315 336q0 -84 68 -100q2 10 2 41.5t-16.5 53t-35 21.5t-18.5 -16z" />
<glyph unicode="&#xf6;" horiz-adv-x="436" d="M8 80q0 -90 121 -90q88 0 170 64.5t115 150.5q63 2 135 28.5t88 41t16 21.5t-10 7q-14 -14 -88 -43t-133 -29q8 25 8 65t-25.5 65.5t-69.5 25.5t-63 -39q-90 -2 -177 -94t-87 -174zM78 96q0 68 60.5 142.5t129.5 76.5q7 -100 107 -110q-25 -76 -94.5 -130.5t-122.5 -54.5 q-80 0 -80 76zM270 471q0 18 18.5 39.5t34 21.5t24.5 -9t9 -27.5t-21.5 -35t-35.5 -16.5q-29 0 -29 27zM315 336q0 16 18.5 16t35 -21.5t16.5 -53t-2 -41.5q-68 16 -68 100zM420 453q0 18 18.5 39.5t33.5 21.5t24.5 -9t9.5 -27.5t-21.5 -35t-35.5 -16.5q-29 0 -29 27z" />
<glyph unicode="&#xf7;" horiz-adv-x="739" d="M207 578q14 35 55 34h619q18 -2 18 -11t-10 -19q-14 -16 -29 -17h-631q-22 1 -22 13zM399 395q0 19 18.5 40.5t34 21.5t24.5 -9.5t9 -28t-21.5 -34.5t-35.5 -16q-29 0 -29 26zM586 735q0 19 18.5 40.5t33.5 21.5t24.5 -9.5t9.5 -28t-21.5 -34.5t-36.5 -16q-29 0 -28 26z " />
<glyph unicode="&#xf8;" horiz-adv-x="436" d="M-34.5 -20.5q-0.5 8.5 11.5 16.5l43 35q-12 23 -12 49q0 82 87 174t177 94q18 39 66.5 39t73.5 -37q72 57 91 57.5t19 -8.5q0 -4 -31.5 -22.5t-68.5 -44.5q8 -16 8 -46t-8 -55q59 0 133 29t88 43l10 -10q0 -4 -16 -18.5t-88 -41t-135 -28.5q-33 -86 -115 -150.5 t-170 -64.5q-53 0 -88 20q-37 -25 -55 -39q-20 0 -20.5 8.5zM78 80l209 172q-18 29 -19 63q-70 -2 -130 -76.5t-60 -142.5v-16zM90 49q18 -29 69.5 -29t121 54.5t94.5 130.5q-45 6 -70 26q-211 -178 -215 -182zM315.5 326.5q-0.5 -25.5 8.5 -43.5l49 39q-16 30 -39 30 q-18 0 -18.5 -25.5zM338 260q14 -18 45 -24q2 10 2 27.5t-4 33.5z" />
<glyph unicode="&#xf9;" horiz-adv-x="466" d="M-10 39q0 41 57 117.5t115.5 136t54.5 51.5q10 10 24.5 10t14.5 -13t-12.5 -25.5t-46 -50.5t-53 -60.5t-46.5 -52.5q-49 -63 -49 -93q0 -23 33 -22.5t92 39.5t102 80l43 39q86 76 117 120q18 23 37 23t19 -14q0 -12 -54 -68q-106 -113 -114 -131q-20 -47 -21 -64 q0 -33 50 -32.5t159 98.5q6 8 13 8t7 -10q0 -25 -82.5 -78t-148.5 -53q-45 0 -45 47q0 33 23 70v4t-3 0q-137 -117 -227 -117q-59 0 -59 41zM225 549q0 18 19.5 18t42.5 -22q59 -66 159 -90q27 -7 27 -13q0 -10 -14 -10q-53 0 -143.5 42t-90.5 75z" />
<glyph unicode="&#xfa;" horiz-adv-x="466" d="M-10 39q0 41 57 117.5t115.5 136t54.5 51.5q10 10 24.5 10t14.5 -13t-12.5 -25.5t-46 -50.5t-53 -60.5t-46.5 -52.5q-49 -63 -49 -93q0 -23 33 -22.5t92 39.5t102 80l43 39q86 76 117 120q18 23 37 23t19 -14q0 -12 -54 -68q-106 -113 -114 -131q-20 -47 -21 -64 q0 -33 50 -32.5t159 98.5q6 8 13 8t7 -10q0 -25 -82.5 -78t-148.5 -53q-45 0 -45 47q0 33 23 70v4t-3 0q-137 -117 -227 -117q-59 0 -59 41zM344 422q0 6 27 12q100 25 159 90q23 23 42.5 23t19.5 -19q0 -33 -90 -74.5t-144 -41.5q-14 0 -14 10z" />
<glyph unicode="&#xfb;" horiz-adv-x="466" d="M-10 39q0 41 57 117.5t115.5 136t54.5 51.5q10 10 24.5 10t14.5 -13t-12.5 -25.5t-46 -50.5t-53 -60.5t-46.5 -52.5q-49 -63 -49 -93q0 -23 33 -22.5t92 39.5t102 80l43 39q86 76 117 120q18 23 37 23t19 -14q0 -12 -54 -68q-106 -113 -114 -131q-20 -47 -21 -64 q0 -33 50 -32.5t159 98.5q6 8 13 8t7 -10q0 -25 -82.5 -78t-148.5 -53q-45 0 -45 47q0 33 23 70v4t-3 0q-137 -117 -227 -117q-59 0 -59 41zM268.5 441.5q-0.5 9.5 44.5 17.5t79 46t49.5 38t20.5 -11.5t7 -27.5q6 -39 61 -64q6 -2 6.5 -6t-7 -10t-15.5 -6q-45 0 -82 69 q-81 -55 -149 -55q-14 0 -14.5 9.5z" />
<glyph unicode="&#xfc;" horiz-adv-x="466" d="M-10 39q0 41 57 117.5t115.5 136t54.5 51.5q10 10 24.5 10t14.5 -13t-12.5 -25.5t-46 -50.5t-53 -60.5t-46.5 -52.5q-49 -63 -49 -93q0 -23 33 -22.5t92 39.5t102 80l43 39q86 76 117 120q18 23 37 23t19 -14q0 -12 -54 -68q-106 -113 -114 -131q-20 -47 -21 -64 q0 -33 50 -32.5t159 98.5q6 8 13 8t7 -10q0 -25 -82.5 -78t-148.5 -53q-45 0 -45 47q0 33 23 70v4t-3 0q-137 -117 -227 -117q-59 0 -59 41zM338 471q0 18 18.5 39.5t34 21.5t24.5 -9t9 -27.5t-21.5 -35t-35.5 -16.5q-29 0 -29 27zM487 453q0 18 18.5 39.5t34 21.5t24.5 -9 t9 -27.5t-21.5 -35t-35.5 -16.5q-29 0 -29 27z" />
<glyph unicode="&#xfd;" horiz-adv-x="428" d="M-518 -489q0 123 161.5 213t329.5 90q47 0 93 -11q68 74 163 193t115 141q-18 -18 -79.5 -57t-88.5 -53q-68 -35 -119 -35t-51 41q0 29 34 81t71 91q133 150 150.5 149.5t17.5 -13.5t-15 -28l-59 -63q-133 -143 -133 -187q0 -29 28 -28q51 0 160 82t164 140t73.5 58 t18.5 -12l-6 -16q-35 -35 -173 -215.5t-231 -284.5q63 -33 66 -96q74 25 124 24.5t98 -16.5t48 -41q0 -18 -12 -18q-4 0 -14 12q-31 37 -108 37t-138 -21q-6 -63 -55 -116.5t-96.5 -53.5t-47.5 25q0 35 48.5 79t119.5 76q-6 55 -55 82q-295 -334 -498 -333q-104 0 -104 84z M-467 -481q0 -29 19.5 -47.5t52.5 -18.5q147 0 438 326q-31 8 -78 8q-145 0 -288.5 -82t-143.5 -186zM14 -453q0 -12 31 -12t62.5 38t33.5 85q-55 -25 -91 -58t-36 -53zM369 422q0 6 26 12q100 25 160 90q23 23 42 23t19 -19q0 -33 -90 -74.5t-143 -41.5q-14 0 -14 10z" />
<glyph unicode="&#xfe;" horiz-adv-x="411" d="M-844 -516q0 131 183.5 240.5t349.5 109.5q51 0 82 -8q262 281 782 940q174 221 186.5 236.5t30.5 15.5t18 -19q0 -10 -10 -24q-59 -72 -290.5 -358.5t-231.5 -294.5q8 8 55 20t72 12q63 0 63 -53t-87 -141t-87 -109.5t29 -21.5q59 0 168 98q6 8 13 8t7 -10 q0 -25 -82.5 -78t-148.5 -53q-45 0 -45 47q0 37 91 125t91 118.5t-37 30.5q-63 2 -125 -32l-18 -11q-16 -18 -152.5 -186t-234.5 -279q86 -41 86 -133v-4q57 14 112.5 14.5t96.5 -23t41 -58.5q0 -6 -5 -16.5t-17.5 -10.5t-19.5 16.5t-20 30.5q-33 39 -90 39t-98 -12 q-10 -70 -64.5 -122t-128.5 -52q-31 0 -30 24q0 33 54 83t134 79q0 86 -72 123q-348 -379 -532 -379q-119 0 -119 78zM-788 -500q0 -66 73 -65q125 0 467 370q-18 5 -61 5q-168 0 -323.5 -97.5t-155.5 -212.5zM-250 -472q0 -17 12 -17q43 0 77 38.5t40 90.5q-57 -23 -93 -59 t-36 -53z" />
<glyph unicode="&#xff;" horiz-adv-x="428" d="M-518 -489q0 123 161.5 213t329.5 90q47 0 93 -11q68 74 163 193t115 141q-18 -18 -79.5 -57t-88.5 -53q-68 -35 -119 -35t-51 41q0 29 34 81t71 91q133 150 150.5 149.5t17.5 -13.5t-15 -28l-59 -63q-133 -143 -133 -187q0 -29 28 -28q51 0 160 82t164 140t73.5 58 t18.5 -12l-6 -16q-35 -35 -173 -215.5t-231 -284.5q63 -33 66 -96q74 25 124 24.5t98 -16.5t48 -41q0 -18 -12 -18q-4 0 -14 12q-31 37 -108 37t-138 -21q-6 -63 -55 -116.5t-96.5 -53.5t-47.5 25q0 35 48.5 79t119.5 76q-6 55 -55 82q-295 -334 -498 -333q-104 0 -104 84z M-467 -481q0 -29 19.5 -47.5t52.5 -18.5q147 0 438 326q-31 8 -78 8q-145 0 -288.5 -82t-143.5 -186zM14 -453q0 -12 31 -12t62.5 38t33.5 85q-55 -25 -91 -58t-36 -53zM348 471q0 18 18.5 39.5t34 21.5t24.5 -9t9 -27.5t-21.5 -35t-35.5 -16.5q-29 0 -29 27zM498 453 q0 18 18.5 39.5t33.5 21.5t24.5 -9t9.5 -27.5t-21.5 -35t-36.5 -16.5q-29 0 -28 27z" />
<glyph unicode="&#x152;" horiz-adv-x="2281" d="M74 220q0 134 87 314.5t216 338t295 272.5t309 131q14 0 14 -8v-4q0 -10 -20 -13q-166 -20 -364.5 -196t-335 -409.5t-136.5 -409.5q0 -258 310 -259q174 0 380 136q-135 37 -135 196q0 72 25 142q-33 -8 -76 -9q-127 0 -127 111q0 88 82 224t202 260t273.5 214t282.5 90 q242 0 241 -219q0 -127 -81 -295q115 96 261 160t285 86q-25 43 -24 96q0 109 95 195t247.5 86t237.5 -53.5t85 -134t-104 -134.5q-25 2 -25 10.5t15 20.5q61 59 61 118.5t-84 106t-178 46.5q-139 0 -214 -76t-75 -176q0 -53 23 -99q41 4 91 4t105.5 -18t55.5 -55 q-6 -45 -76 -45q-150 0 -219 86q-297 -45 -525.5 -266.5t-228.5 -452.5v-35q70 57 121 115q20 20 27.5 20t7.5 -11t-49.5 -60.5t-102.5 -92.5q16 -121 91 -200.5t215.5 -79.5t263 53t203.5 134t127 176t46 191.5t-66.5 160t-197.5 63.5q-193 0 -324 -130t-135 -321 q0 -18 8.5 -40.5t8.5 -32t-10.5 -16.5t-16.5 -7q-35 0 -35 96q0 195 151.5 340.5t371.5 145.5q160 0 239.5 -67.5t79.5 -170t-56.5 -209t-152.5 -196.5t-237.5 -148.5t-288 -58.5t-235.5 74.5t-115 195.5q-176 -119 -357 -119q-25 0 -37 2q-250 -164 -473 -163 q-166 0 -244.5 72.5t-78.5 206.5zM563 580q0 -102 125 -103q18 0 43 6q39 96 104.5 163t131.5 67q33 0 32.5 -34t-70 -104.5t-161.5 -107.5q-29 -74 -29 -141q0 -150 138 -183q253 180 452 467q23 41 51 78q160 260 160 428q0 190 -207 191q-109 0 -248 -83t-251.5 -198 t-191.5 -239.5t-79 -206.5zM784 504q59 31 109.5 75.5t50.5 67.5q0 12 -24.5 12t-65.5 -44t-70 -111zM922 137h26q135 0 312 111q-6 37 -6.5 89t16.5 122q-166 -193 -348 -322zM2136 1057q51 -68 137 -68q53 0 54 23q0 39 -148 47z" />
<glyph unicode="&#x153;" horiz-adv-x="673" d="M8 80q0 82 87 174t177 94q18 39 62.5 39t70 -25.5t25.5 -57.5t-2 -38q86 82 178 82q72 0 72 -63q0 -123 -275 -213q16 -47 91 -47q125 0 237 102q6 8 13.5 8t7.5 -13t-37 -44t-104.5 -59.5t-133.5 -28.5q-139 0 -139 100q-96 -100 -213 -100t-117 90zM78 96q0 -76 80 -76 q43 0 100 39t92 97q12 29 23 43q0 4 2 6q-100 10 -107 110q-70 -2 -130 -76.5t-60 -142.5zM315 336q0 -84 68 -100q2 10 2 41.5t-16.5 53t-35 21.5t-18.5 -16zM397 92q230 86 230 176q0 45 -56.5 45t-115 -70.5t-58.5 -138.5v-12z" />
<glyph unicode="&#x178;" horiz-adv-x="1220" d="M-365 -668q0 88 103.5 192.5t292 183.5t395.5 79q121 0 201 -20q139 160 305 368q-262 -172 -402 -172q-35 0 -66.5 27.5t-31.5 68.5q0 139 258 394q106 104 214 215.5t183.5 246t75.5 263.5q0 154 -213 153q-141 0 -282 -59q23 -45 22.5 -83t-2.5 -44q53 12 82 12 q123 0 123 -106q0 -92 -85 -220.5t-221 -226.5t-259 -98q-225 0 -226 172q0 141 150.5 322.5t365.5 283.5q-59 90 -208 90q-199 0 -429.5 -130t-287.5 -240q-14 -25 -28.5 -25t-14.5 16q0 10 8 25q90 129 319.5 256t446.5 127q166 0 231 -105q162 70 320 70q244 0 244 -174 q0 -137 -74 -278.5t-178.5 -255t-209 -217t-178 -200t-73.5 -167.5q0 -31 22.5 -51.5t57.5 -20.5q119 0 397 199q39 51 110.5 143t110.5 143.5t101.5 130t100.5 123.5t90 103.5t88 91.5t75 66q70 59 129 59q31 0 31 -33q0 -100 -235.5 -347t-518.5 -454q-213 -280 -391 -477 q127 -45 168 -135q184 131 456 131q92 0 172 -29q12 -6 12.5 -19t-18.5 -13q-2 0 -19.5 7t-35.5 13q-59 18 -125 19q-262 0 -432 -136q8 -25 8 -76t-40 -105t-87 -54t-47 45q0 90 121 190q-43 88 -158 134q-477 -520 -792 -521q-111 0 -166.5 36t-55.5 93zM-287 -655 q0 -102 176 -103q268 0 713 498q-80 22 -186 22q-174 0 -343 -73.5t-264.5 -170t-95.5 -173.5zM164 705q0 -72 49 -115t149 -43q156 0 317 177t161 310q0 94 -103 94q-20 0 -49 -8q-12 -88 -58 -154.5t-93.5 -66.5t-47.5 44t47.5 101.5t120.5 88.5v16q0 63 -22 108 q-199 -90 -335 -255.5t-136 -296.5zM539 959.5q0 -25.5 14 -25.5q33 0 63.5 52t38.5 122q-51 -27 -83.5 -75t-32.5 -73.5zM731 -575q0 -23 26.5 -23t48 29.5t21.5 63.5t-10 69q-86 -84 -86 -139zM1130 315q238 188 421.5 386t183.5 276q0 16 -14.5 16t-35 -10t-46 -33.5 t-51 -49.5t-61.5 -70t-65.5 -80.5t-76 -97t-78.5 -103.5q-119 -156 -177 -234zM1483 1386q0 19 18.5 40.5t33.5 21.5t24.5 -9t9.5 -27.5t-21.5 -35t-36.5 -16.5q-29 0 -28 26zM1632 1368q0 18 18.5 40t34 22t24.5 -9.5t9 -28t-21.5 -35t-35.5 -16.5q-29 0 -29 27z" />
<glyph unicode="&#x2c6;" d="M164 441.5q0 9.5 45 17.5t79 46t49 38t20 -11.5t8 -27.5q6 -39 61 -64q6 -2 6 -6t-7 -10t-15 -6q-45 0 -82 69q-82 -55 -150 -55q-14 0 -14 9.5z" />
<glyph unicode="&#x2dc;" horiz-adv-x="481" d="M82 457q0 28 29.5 43.5t55.5 15.5t89 -25.5t94 -25.5t50.5 14.5t27.5 14.5t8 -13q0 -23 -33.5 -38t-58.5 -15t-91.5 26.5t-91 26.5t-44 -16t-27.5 -16t-8 8z" />
<glyph unicode="&#x2000;" horiz-adv-x="879" />
<glyph unicode="&#x2001;" horiz-adv-x="1759" />
<glyph unicode="&#x2002;" horiz-adv-x="879" />
<glyph unicode="&#x2003;" horiz-adv-x="1759" />
<glyph unicode="&#x2004;" horiz-adv-x="586" />
<glyph unicode="&#x2005;" horiz-adv-x="439" />
<glyph unicode="&#x2006;" horiz-adv-x="293" />
<glyph unicode="&#x2007;" horiz-adv-x="293" />
<glyph unicode="&#x2008;" horiz-adv-x="219" />
<glyph unicode="&#x2009;" horiz-adv-x="351" />
<glyph unicode="&#x200a;" horiz-adv-x="97" />
<glyph unicode="&#x2010;" horiz-adv-x="1130" d="M207 180q14 35 55 35h782q18 -2 18.5 -11t-9.5 -20q-14 -16 -29 -16h-795q-22 0 -22 12z" />
<glyph unicode="&#x2011;" horiz-adv-x="1130" d="M207 180q14 35 55 35h782q18 -2 18.5 -11t-9.5 -20q-14 -16 -29 -16h-795q-22 0 -22 12z" />
<glyph unicode="&#x2012;" horiz-adv-x="1130" d="M207 180q14 35 55 35h782q18 -2 18.5 -11t-9.5 -20q-14 -16 -29 -16h-795q-22 0 -22 12z" />
<glyph unicode="&#x2013;" horiz-adv-x="643" d="M207 180q6 35 29 35h329q10 -2 10 -11t-6 -20q-8 -16 -12 -16h-338q-12 0 -12 12z" />
<glyph unicode="&#x2014;" horiz-adv-x="1007" d="M207 180q14 35 55 35h660q18 -2 18 -11t-10 -20q-14 -16 -29 -16h-672q-22 0 -22 12z" />
<glyph unicode="&#x2018;" horiz-adv-x="292" d="M303 780q0 66 58.5 116t125.5 54q23 0 23 -10t-24.5 -10t-71.5 -25.5t-56 -64.5q31 0 31 -27q0 -18 -18.5 -39.5t-33.5 -21.5t-24.5 9t-9.5 19z" />
<glyph unicode="&#x2019;" horiz-adv-x="292" d="M362 764q0 10 25 10t72 25.5t55 64.5q-31 0 -31 27q0 18 18.5 39.5t34 21.5t24.5 -9t9 -19q0 -66 -58 -116t-126 -54q-23 0 -23 10z" />
<glyph unicode="&#x201a;" horiz-adv-x="307" d="M4 -111.5q0 9.5 24.5 10.5t71.5 26.5t56 64.5q-31 0 -31 26q0 19 18.5 40.5t34 21.5t24.5 -9.5t9 -19.5q0 -66 -58.5 -116t-125.5 -54q-23 0 -23 9.5z" />
<glyph unicode="&#x201c;" horiz-adv-x="423" d="M303 780q0 66 58.5 116t125.5 54q23 0 23 -10t-24.5 -10t-71.5 -25.5t-56 -64.5q31 0 31 -27q0 -18 -18.5 -39.5t-33.5 -21.5t-24.5 9t-9.5 19zM434 780q0 66 58.5 116t125.5 54q23 0 23 -9t-24.5 -10t-71.5 -26.5t-56 -64.5q31 0 31 -27q0 -18 -18.5 -39.5t-33.5 -21.5 t-24.5 9t-9.5 19z" />
<glyph unicode="&#x201d;" horiz-adv-x="423" d="M362 763q0 9 25 10t72 26.5t55 64.5q-31 0 -31 27q0 18 18.5 39.5t34 21.5t24.5 -9t9 -19q0 -66 -58 -116t-126 -54q-23 0 -23 9zM493.5 764q0.5 10 25 10t71.5 25.5t55 64.5q-31 0 -31 27q0 18 18.5 39.5t34 21.5t24.5 -9t9 -19q0 -66 -58 -116t-126 -54q-23 0 -22.5 10 z" />
<glyph unicode="&#x201e;" horiz-adv-x="438" d="M4 -98.5q0 10.5 24.5 10.5t71.5 25.5t56 64.5q-31 0 -31 27q0 18 18.5 39.5t34 21.5t24.5 -9t9 -20q0 -66 -58.5 -115.5t-125.5 -54.5q-23 0 -23 10.5zM135 -98.5q0 10.5 24.5 10.5t72 25.5t55.5 64.5q-31 0 -31 27q0 18 18.5 39.5t34 21.5t24.5 -9t9 -20 q0 -66 -58.5 -115.5t-125.5 -54.5q-23 0 -23 10.5z" />
<glyph unicode="&#x2022;" d="M240 137q8 33 41.5 71t88 38t54.5 -49q-4 -41 -44 -74t-90 -33t-50 47z" />
<glyph unicode="&#x2026;" horiz-adv-x="745" d="M137 16q0 19 18.5 40.5t34 21.5t24.5 -9.5t9 -27.5t-21.5 -34.5t-35.5 -16.5q-29 0 -29 26zM373 16q0 19 18.5 40.5t33.5 21.5t24.5 -9.5t9.5 -27.5t-21.5 -34.5t-36.5 -16.5q-29 0 -28 26zM588 16q0 19 18.5 40.5t33.5 21.5t24.5 -9.5t9.5 -27.5t-21.5 -34.5 t-36.5 -16.5q-29 0 -28 26z" />
<glyph unicode="&#x202f;" horiz-adv-x="351" />
<glyph unicode="&#x2039;" horiz-adv-x="403" d="M90 121q0 23 64 57q127 70 214 134.5t99 64.5q25 0 25 -19q0 -10 -40 -42.5t-307 -188.5l193 -156q10 -6 10 -12t-16 -8q-25 -4 -46.5 15.5t-74.5 58.5q-121 84 -121 96z" />
<glyph unicode="&#x203a;" horiz-adv-x="473" d="M90 -31q0 10 40 43t306 189l-192 155q-11 6 -11 12.5t17 8.5q25 4 46 -15.5t75 -58.5q121 -84 121 -96q0 -23 -64 -57q-127 -70 -214 -134.5t-99 -64.5q-25 0 -25 18z" />
<glyph unicode="&#x205f;" horiz-adv-x="439" />
<glyph unicode="&#x20ac;" horiz-adv-x="1294" d="M133 430q14 35 55 35h191q10 23 35 67h-166q-23 1 -23 13q14 35 56 35h161q23 37 76 110q-86 16 -128 62.5t-42 107.5q0 86 89 153.5t161 67.5q14 0 26.5 -10t12.5 -29.5t-19 -19.5l-20 6q-20 8 -56 8t-91.5 -50t-55.5 -110.5t37 -101.5t111 -53q199 252 484.5 422 t569.5 170q236 0 236 -142q0 -102 -104.5 -212.5t-269.5 -185.5t-326 -75q-104 0 -138 68q-209 -82 -389 -82h-43q-35 -47 -69 -104h399q18 -2 18 -11.5t-10 -19.5q-14 -16 -29 -17h-405q-12 -23 -33 -67h367q18 -2 18 -11.5t-8 -19.5q-16 -16 -33 -16h-362 q-45 -123 -45 -228.5t70.5 -170t217.5 -64.5q244 0 453 131q49 31 74 51l24 21q6 4 18.5 4t12.5 -13.5t-18 -25.5q-260 -205 -598 -205q-162 0 -241 70.5t-79 185.5t53 244h-202q-23 0 -23 12zM586 717h28q180 0 373 80v16q0 70 96.5 143.5t163.5 73.5q45 0 45 -41 q0 -45 -69.5 -101.5t-180.5 -103.5q25 -49 113 -49q207 0 416 132t209 270q0 133 -249 133t-507 -159t-438 -394zM1036 817q84 41 135.5 83t51.5 65.5t-21 23.5q-43 0 -104.5 -56.5t-61.5 -113.5v-2z" />
<glyph unicode="&#x2122;" horiz-adv-x="1085" d="M133 556q0 34 26.5 60.5t62.5 26.5t57 -22q33 25 72.5 24.5t39.5 -5.5t-4 -5h-8q-59 0 -96 -25q4 -12 4 -26.5t-14.5 -28.5t-30 -14t-15.5 21.5t41 51.5q-8 20 -39.5 20.5t-52 -23t-20.5 -53.5t22.5 -50.5t72.5 -20.5t108.5 39t99.5 88q135 162 186 199q-66 8 -100.5 8 t-77.5 -14q2 -6 2 -21v-8q16 4 25 4q29 0 28 -18q0 -27 -43 -59.5t-90 -32.5t-47 33q0 27 32 59.5t77 46.5q-16 29 -72.5 29t-101 -28t-60.5 -54l-16 -29q-4 -4 -10.5 -4t-6.5 4q37 76 123 107q35 14 86 14t70 -37q53 18 94 18t107 -4q43 25 66.5 28t23.5 1t-22.5 -10 t-39.5 -21q61 -4 96 -4t93 17q16 12 23 12t7 -2q0 -6 -12 -12.5t-40 -51.5t-64.5 -110.5t-63.5 -102.5q6 4 64 64q162 170 256 213q10 2 17 2t7 -11.5t-2 -11.5q-55 -39 -160.5 -162.5t-105.5 -153.5t18.5 -30t69.5 31h2q4 0 4 -3t-4 -7q-51 -37 -84 -37t-33 36t86 142.5 t148 159.5l22 18q-102 -49 -372 -338q0 -4 -9.5 -4t-9.5 3t2 5l29 39q18 23 89 138.5t95 142.5q-37 -29 -131 -132.5t-177 -166t-161 -62.5l4 11q121 10 283 188q84 96 170 168q-27 -6 -83 -6t-89 4h-6q-74 -51 -191 -207q-39 -51 -103.5 -91t-127 -40t-89 24.5t-26.5 58.5z M243.5 569q0.5 -10 6.5 -10t15 10.5t9 20.5t-2 14q-29 -25 -28.5 -35zM365 704.5q0 -24.5 30.5 -24.5t68.5 31.5t38 47t-15 15.5q-4 0 -20 -4q-8 -45 -41 -45q-12 0 -12 9t12.5 21.5t30.5 18.5q2 2 2 9.5t-4 19.5q-35 -12 -62.5 -43t-27.5 -55.5zM428 741q0 -4 6 -4 q16 0 23 29q-29 -14 -29 -25z" />
<glyph unicode="&#x25fc;" horiz-adv-x="368" d="M0 0v369h369v-369h-369z" />
<glyph unicode="&#xfb01;" horiz-adv-x="460" d="M-809 -508q0 98 150.5 213t328.5 115q84 0 137 -27q100 113 435 531h-111q-18 0 -18 12q0 18 34 18h121q242 301 422 466t326 165q90 1 90 -65q0 -33 -43 -54q-53 0 -53 23q0 12 17 27.5t17 25.5t-43 10q-121 0 -282.5 -152.5t-396.5 -443.5h215q8 0 15 -6t7 -14t-12 -21 l-154 -174q-53 -57 -53 -90q0 -23 29 -22q59 0 168 98q6 8 13 8t7 -10q0 -25 -83 -78t-148 -53q-45 0 -45 47q0 27 18 51.5t34.5 44t32 36.5t62.5 75.5t61 75.5h-194q-340 -422 -457 -549q47 -37 56 -99q76 31 128 31t97 -20.5t45 -51.5q0 -12 -6 -14h-4q-4 0 -11.5 9.5 t-19.5 21.5q-29 29 -96.5 29t-132.5 -27q-2 -70 -43 -119t-85.5 -49t-44.5 36t41 74.5t103 67.5q-8 59 -45 90q-319 -338 -518 -338q-111 0 -111 76zM-748 -504q1 -53 64 -53q174 0 473 330q-51 23 -139 22q-145 0 -271.5 -107.5t-126.5 -191.5zM-233 -463q0 -8 6 -8 q39 2 65.5 36t26.5 73v4q-98 -45 -98 -105zM629 489q0 19 18.5 40.5t33.5 21.5t24.5 -9.5t9.5 -27.5t-21.5 -34.5t-36.5 -16.5q-29 0 -28 26z" />
<glyph unicode="&#xfb02;" horiz-adv-x="581" d="M-725 -570.5q0 13.5 31 13.5h10q96 0 201 78q59 45 106 82t119 115.5t114 124.5t124 149q115 143 241 305h-121q-18 0 -18 12q0 18 35 19h129q258 319 440 488t330 169q76 0 76 -29q0 -10 -19 -26q-90 -86 -374.5 -438.5t-284.5 -402.5t49 -50q16 0 53 10 q66 27 96.5 56.5t37.5 29.5t7 -12t-36.5 -44t-92 -56.5t-100.5 -24.5q-68 0 -68 63q0 70 269.5 406t404.5 485h-33q-131 0 -323 -192q-143 -143 -377 -432h133q25 0 25 -11q0 -16 -37 -20h-148q-135 -170 -205.5 -257t-195.5 -227.5t-208 -212t-183 -128t-180 -56.5 q-27 0 -27 13.5z" />
</font>
</defs>
</svg>
